Compagnon-Light.ufo
<glyph name="exclam" format="2">
	<advance width="600"/>
	<unicode hex="0021"/>
	<note>
		exclam
	</note>
	<outline>
		<contour>
			<point x="290" y="139" type="line"/>
			<point x="304" y="139" type="line"/>
			<point x="324" y="552" type="line" smooth="yes"/>
			<point x="325" y="580"/>
			<point x="320" y="603"/>
			<point x="298" y="603" type="curve" smooth="yes"/>
			<point x="275" y="603"/>
			<point x="270" y="580"/>
			<point x="270" y="552" type="curve"/>
		</contour>
		<contour>
			<point x="298" y="-13" type="curve" smooth="yes"/>
			<point x="326" y="-13"/>
			<point x="349" y="11"/>
			<point x="349" y="38" type="curve" smooth="yes"/>
			<point x="349" y="65"/>
			<point x="326" y="89"/>
			<point x="298" y="89" type="curve" smooth="yes"/>
			<point x="270" y="89"/>
			<point x="246" y="65"/>
			<point x="246" y="38" type="curve" smooth="yes"/>
			<point x="246" y="11"/>
			<point x="270" y="-13"/>
		</contour>
	</outline>
</glyph>
<glyph name="quotedbl" format="2">
	<advance width="600"/>
	<unicode hex="0022"/>
	<note>
		quotedbl
	</note>
	<outline>
		<contour>
			<point x="132" y="466" type="curve" smooth="yes"/>
			<point x="165" y="466"/>
			<point x="192" y="494"/>
			<point x="192" y="522" type="curve" smooth="yes"/>
			<point x="192" y="541"/>
			<point x="186" y="558"/>
			<point x="175" y="567" type="curve"/>
			<point x="204" y="558"/>
			<point x="227" y="515"/>
			<point x="227" y="473" type="curve" smooth="yes"/>
			<point x="227" y="408"/>
			<point x="169" y="342"/>
			<point x="102" y="335" type="curve"/>
			<point x="106" y="310" type="line"/>
			<point x="178" y="317"/>
			<point x="252" y="388"/>
			<point x="252" y="473" type="curve" smooth="yes"/>
			<point x="252" y="548"/>
			<point x="205" y="603"/>
			<point x="144" y="603" type="curve" smooth="yes"/>
			<point x="104" y="603"/>
			<point x="66" y="575"/>
			<point x="66" y="534" type="curve" smooth="yes"/>
			<point x="66" y="495"/>
			<point x="95" y="466"/>
		</contour>
		<contour>
			<point x="334" y="466" type="curve" smooth="yes"/>
			<point x="367" y="466"/>
			<point x="394" y="494"/>
			<point x="394" y="522" type="curve" smooth="yes"/>
			<point x="394" y="541"/>
			<point x="388" y="558"/>
			<point x="377" y="567" type="curve"/>
			<point x="406" y="558"/>
			<point x="429" y="515"/>
			<point x="429" y="473" type="curve" smooth="yes"/>
			<point x="429" y="408"/>
			<point x="371" y="342"/>
			<point x="304" y="335" type="curve"/>
			<point x="308" y="310" type="line"/>
			<point x="380" y="317"/>
			<point x="454" y="388"/>
			<point x="454" y="473" type="curve" smooth="yes"/>
			<point x="454" y="548"/>
			<point x="407" y="603"/>
			<point x="346" y="603" type="curve" smooth="yes"/>
			<point x="306" y="603"/>
			<point x="268" y="575"/>
			<point x="268" y="534" type="curve" smooth="yes"/>
			<point x="268" y="495"/>
			<point x="297" y="466"/>
		</contour>
	</outline>
</glyph>
<glyph name="dollar" format="2">
	<advance width="600"/>
	<unicode hex="0024"/>
	<note>
		dollar
	</note>
	<outline>
		<contour>
			<point x="534" y="173" type="curve" smooth="yes"/>
			<point x="534" y="249"/>
			<point x="468" y="273"/>
			<point x="356" y="293" type="curve" smooth="yes"/>
			<point x="319" y="300" type="line"/>
			<point x="319" y="522" type="line"/>
			<point x="399" y="517"/>
			<point x="473" y="486"/>
			<point x="485" y="437" type="curve"/>
			<point x="462" y="470"/>
			<point x="399" y="452"/>
			<point x="399" y="403" type="curve" smooth="yes"/>
			<point x="399" y="371"/>
			<point x="424" y="346"/>
			<point x="459" y="346" type="curve" smooth="yes"/>
			<point x="493" y="346"/>
			<point x="516" y="377"/>
			<point x="516" y="418" type="curve" smooth="yes"/>
			<point x="516" y="500"/>
			<point x="423" y="547"/>
			<point x="319" y="552" type="curve"/>
			<point x="319" y="603" type="line"/>
			<point x="289" y="603" type="line"/>
			<point x="289" y="553" type="line"/>
			<point x="190" y="551"/>
			<point x="86" y="507"/>
			<point x="86" y="422" type="curve" smooth="yes"/>
			<point x="86" y="335"/>
			<point x="158" y="296"/>
			<point x="259" y="279" type="curve" smooth="yes"/>
			<point x="289" y="274" type="line"/>
			<point x="289" y="68" type="line"/>
			<point x="200" y="72"/>
			<point x="132" y="98"/>
			<point x="99" y="162" type="curve"/>
			<point x="122" y="129"/>
			<point x="187" y="147"/>
			<point x="185" y="196" type="curve" smooth="yes"/>
			<point x="184" y="228"/>
			<point x="161" y="253"/>
			<point x="127" y="253" type="curve" smooth="yes"/>
			<point x="96" y="253"/>
			<point x="68" y="225"/>
			<point x="68" y="184" type="curve" smooth="yes"/>
			<point x="68" y="101"/>
			<point x="181" y="45"/>
			<point x="289" y="39" type="curve"/>
			<point x="289" y="-13" type="line"/>
			<point x="319" y="-13" type="line"/>
			<point x="319" y="38" type="line"/>
			<point x="431" y="41"/>
			<point x="534" y="85"/>
		</contour>
		<contour>
			<point x="289" y="305" type="line"/>
			<point x="267" y="309" type="line" smooth="yes"/>
			<point x="171" y="326"/>
			<point x="116" y="357"/>
			<point x="116" y="422" type="curve" smooth="yes"/>
			<point x="116" y="485"/>
			<point x="207" y="521"/>
			<point x="289" y="523" type="curve"/>
		</contour>
		<contour>
			<point x="319" y="68" type="curve"/>
			<point x="319" y="269" type="line"/>
			<point x="341" y="265" type="line" smooth="yes"/>
			<point x="437" y="249"/>
			<point x="504" y="233"/>
			<point x="504" y="173" type="curve" smooth="yes"/>
			<point x="504" y="112"/>
			<point x="427" y="71"/>
		</contour>
	</outline>
</glyph>
<glyph name="percent" format="2">
	<advance width="600"/>
	<unicode hex="0025"/>
	<note>
		percent
	</note>
	<outline>
		<contour>
			<point x="44" y="445" type="curve" smooth="yes"/>
			<point x="44" y="541"/>
			<point x="96" y="603"/>
			<point x="163" y="603" type="curve" smooth="yes"/>
			<point x="194" y="603"/>
			<point x="221" y="590"/>
			<point x="242" y="566" type="curve" smooth="yes"/>
			<point x="258" y="547"/>
			<point x="301" y="496"/>
			<point x="346" y="496" type="curve" smooth="yes"/>
			<point x="398" y="496"/>
			<point x="458" y="554"/>
			<point x="498" y="603" type="curve"/>
			<point x="521" y="584" type="line"/>
			<point x="95" y="-13" type="line"/>
			<point x="72" y="6" type="line"/>
			<point x="417.572" y="490.287" type="line"/>
			<point x="394.563" y="474.324"/>
			<point x="369.792" y="466"/>
			<point x="346" y="466" type="curve" smooth="yes"/>
			<point x="314.934" y="466"/>
			<point x="290.214" y="477.421"/>
			<point x="275.882" y="494.703" type="curve"/>
			<point x="279.213" y="479.423"/>
			<point x="281" y="462.795"/>
			<point x="281" y="445" type="curve" smooth="yes"/>
			<point x="281" y="348"/>
			<point x="229" y="286"/>
			<point x="163" y="286" type="curve" smooth="yes"/>
			<point x="96" y="286"/>
			<point x="44" y="348"/>
		</contour>
		<contour>
			<point x="74" y="445" type="curve" smooth="yes"/>
			<point x="74" y="375"/>
			<point x="114" y="317"/>
			<point x="163" y="317" type="curve" smooth="yes"/>
			<point x="211" y="317"/>
			<point x="251" y="375"/>
			<point x="251" y="445" type="curve" smooth="yes"/>
			<point x="251" y="516"/>
			<point x="211" y="574"/>
			<point x="163" y="574" type="curve" smooth="yes"/>
			<point x="114" y="574"/>
			<point x="74" y="516"/>
		</contour>
		<contour>
			<point x="319" y="146" type="curve" smooth="yes"/>
			<point x="319" y="242"/>
			<point x="371" y="304"/>
			<point x="438" y="304" type="curve" smooth="yes"/>
			<point x="504" y="304"/>
			<point x="556" y="242"/>
			<point x="556" y="146" type="curve" smooth="yes"/>
			<point x="556" y="49"/>
			<point x="504" y="-13"/>
			<point x="438" y="-13" type="curve" smooth="yes"/>
			<point x="371" y="-13"/>
			<point x="319" y="49"/>
		</contour>
		<contour>
			<point x="349" y="146" type="curve" smooth="yes"/>
			<point x="349" y="76"/>
			<point x="389" y="18"/>
			<point x="438" y="18" type="curve" smooth="yes"/>
			<point x="486" y="18"/>
			<point x="526" y="76"/>
			<point x="526" y="146" type="curve" smooth="yes"/>
			<point x="526" y="217"/>
			<point x="486" y="275"/>
			<point x="438" y="275" type="curve" smooth="yes"/>
			<point x="389" y="275"/>
			<point x="349" y="217"/>
		</contour>
	</outline>
</glyph>
<glyph name="parenright" format="2">
	<advance width="600"/>
	<unicode hex="0029"/>
	<note>
		parenright
	</note>
	<outline>
		<contour>
			<point x="368" y="248" type="curve" smooth="yes"/>
			<point x="368" y="408"/>
			<point x="263" y="553"/>
			<point x="108" y="608" type="curve"/>
			<point x="100" y="580" type="line"/>
			<point x="235" y="533"/>
			<point x="338" y="394"/>
			<point x="338" y="248" type="curve" smooth="yes"/>
			<point x="338" y="100"/>
			<point x="234" y="-36"/>
			<point x="100" y="-83" type="curve"/>
			<point x="108" y="-111" type="line"/>
			<point x="266" y="-55"/>
			<point x="368" y="92"/>
		</contour>
	</outline>
</glyph>
<glyph name="asterisk" format="2">
	<advance width="600"/>
	<unicode hex="002A"/>
	<note>
		asterisk
	</note>
	<outline>
		<contour>
			<point x="287" y="459" type="curve"/>
			<point x="294" y="464"/>
			<point x="279" y="547"/>
			<point x="268" y="566" type="curve" smooth="yes"/>
			<point x="256" y="586"/>
			<point x="235" y="595"/>
			<point x="215" y="583" type="curve"/>
			<point x="195" y="572"/>
			<point x="192" y="549"/>
			<point x="203" y="529" type="curve" smooth="yes"/>
			<point x="214" y="510"/>
			<point x="280" y="455"/>
		</contour>
		<contour>
			<point x="313" y="459" type="curve"/>
			<point x="320" y="455"/>
			<point x="386" y="510"/>
			<point x="397" y="529" type="curve" smooth="yes"/>
			<point x="408" y="549"/>
			<point x="405" y="572"/>
			<point x="385" y="583" type="curve"/>
			<point x="365" y="595"/>
			<point x="344" y="586"/>
			<point x="332" y="566" type="curve" smooth="yes"/>
			<point x="321" y="547"/>
			<point x="306" y="464"/>
		</contour>
		<contour>
			<point x="273" y="436" type="curve" smooth="yes"/>
			<point x="273" y="445"/>
			<point x="193" y="473"/>
			<point x="171" y="473" type="curve" smooth="yes"/>
			<point x="148" y="473"/>
			<point x="130" y="459"/>
			<point x="130" y="436" type="curve" smooth="yes"/>
			<point x="130" y="413"/>
			<point x="148" y="399"/>
			<point x="171" y="399" type="curve" smooth="yes"/>
			<point x="193" y="399"/>
			<point x="273" y="428"/>
		</contour>
		<contour>
			<point x="327" y="436" type="curve" smooth="yes"/>
			<point x="327" y="428"/>
			<point x="407" y="399"/>
			<point x="429" y="399" type="curve" smooth="yes"/>
			<point x="452" y="399"/>
			<point x="470" y="413"/>
			<point x="470" y="436" type="curve" smooth="yes"/>
			<point x="470" y="459"/>
			<point x="452" y="473"/>
			<point x="429" y="473" type="curve" smooth="yes"/>
			<point x="407" y="473"/>
			<point x="327" y="445"/>
		</contour>
		<contour>
			<point x="286" y="413" type="curve" smooth="yes"/>
			<point x="279" y="417"/>
			<point x="214" y="362"/>
			<point x="203" y="343" type="curve" smooth="yes"/>
			<point x="192" y="323"/>
			<point x="195" y="300"/>
			<point x="215" y="289" type="curve"/>
			<point x="235" y="277"/>
			<point x="256" y="286"/>
			<point x="268" y="306" type="curve" smooth="yes"/>
			<point x="279" y="325"/>
			<point x="293" y="409"/>
		</contour>
		<contour>
			<point x="314" y="413" type="curve" smooth="yes"/>
			<point x="307" y="409"/>
			<point x="321" y="325"/>
			<point x="332" y="306" type="curve" smooth="yes"/>
			<point x="344" y="286"/>
			<point x="365" y="277"/>
			<point x="385" y="289" type="curve"/>
			<point x="405" y="300"/>
			<point x="408" y="323"/>
			<point x="397" y="343" type="curve" smooth="yes"/>
			<point x="386" y="362"/>
			<point x="321" y="417"/>
		</contour>
	</outline>
</glyph>
<glyph name="hyphen" format="2">
	<advance width="600"/>
	<unicode hex="002D"/>
	<note>
		hyphen
	</note>
	<outline>
		<contour>
			<point x="518" y="200" type="line"/>
			<point x="88" y="200" type="line"/>
			<point x="88" y="230" type="line"/>
			<point x="518" y="230" type="line"/>
		</contour>
	</outline>
</glyph>
<glyph name="zero" format="2">
	<advance width="600"/>
	<unicode hex="0030"/>
	<note>
		zero
	</note>
	<outline>
		<contour>
			<point x="539" y="295" type="curve" smooth="yes"/>
			<point x="539" y="457"/>
			<point x="454" y="602"/>
			<point x="301" y="602" type="curve" smooth="yes"/>
			<point x="148" y="602"/>
			<point x="62" y="457"/>
			<point x="62" y="294" type="curve" smooth="yes"/>
			<point x="62" y="131"/>
			<point x="148" y="-13"/>
			<point x="301" y="-13" type="curve" smooth="yes"/>
			<point x="454" y="-13"/>
			<point x="539" y="132"/>
		</contour>
		<contour>
			<point x="92" y="295" type="curve" smooth="yes"/>
			<point x="92" y="442"/>
			<point x="164" y="572"/>
			<point x="301" y="572" type="curve" smooth="yes"/>
			<point x="438" y="572"/>
			<point x="509" y="442"/>
			<point x="509" y="294" type="curve" smooth="yes"/>
			<point x="509" y="146"/>
			<point x="438" y="17"/>
			<point x="301" y="17" type="curve" smooth="yes"/>
			<point x="164" y="17"/>
			<point x="92" y="147"/>
		</contour>
	</outline>
</glyph>
<glyph name="one" format="2">
	<advance width="600"/>
	<unicode hex="0031"/>
	<note>
		one
	</note>
	<outline>
		<contour>
			<point x="356" y="590" type="line"/>
			<point x="318" y="590" type="line"/>
			<point x="260" y="474"/>
			<point x="208" y="398"/>
			<point x="79" y="318" type="curve"/>
			<point x="93" y="295" type="line"/>
			<point x="217" y="371"/>
			<point x="267" y="432"/>
			<point x="326" y="541" type="curve"/>
			<point x="326" y="30" type="line"/>
			<point x="77" y="30" type="line"/>
			<point x="77" y="0" type="line"/>
			<point x="543" y="0" type="line"/>
			<point x="543" y="30" type="line"/>
			<point x="356" y="30" type="line"/>
		</contour>
	</outline>
</glyph>
<glyph name="three" format="2">
	<advance width="600"/>
	<unicode hex="0033"/>
	<note>
		three
	</note>
	<outline>
		<contour>
			<point x="114" y="150" type="curve"/>
			<point x="114" y="77"/>
			<point x="212" y="18"/>
			<point x="296" y="18" type="curve" smooth="yes"/>
			<point x="402" y="18"/>
			<point x="488" y="87"/>
			<point x="488" y="190" type="curve" smooth="yes"/>
			<point x="488" y="293"/>
			<point x="404" y="345"/>
			<point x="308" y="354" type="curve"/>
			<point x="280" y="325" type="line"/>
			<point x="258" y="346" type="line"/>
			<point x="463" y="560" type="line"/>
			<point x="154" y="560" type="line"/>
			<point x="118" y="405" type="line"/>
			<point x="89" y="411" type="line"/>
			<point x="130" y="590" type="line"/>
			<point x="505" y="590" type="line"/>
			<point x="505" y="560" type="line"/>
			<point x="333" y="380" type="line"/>
			<point x="421" y="369"/>
			<point x="518" y="315"/>
			<point x="518" y="190" type="curve" smooth="yes"/>
			<point x="518" y="65"/>
			<point x="417" y="-13"/>
			<point x="295" y="-13" type="curve" smooth="yes"/>
			<point x="182" y="-13"/>
			<point x="78" y="55"/>
			<point x="81" y="155" type="curve" smooth="yes"/>
			<point x="81" y="199"/>
			<point x="115" y="221"/>
			<point x="140" y="221" type="curve" smooth="yes"/>
			<point x="170" y="221"/>
			<point x="193" y="202"/>
			<point x="193" y="174" type="curve" smooth="yes"/>
			<point x="193" y="149"/>
			<point x="173" y="128"/>
			<point x="152" y="128" type="curve" smooth="yes"/>
			<point x="134" y="128"/>
			<point x="120" y="137"/>
		</contour>
	</outline>
</glyph>
<glyph name="four" format="2">
	<advance width="600"/>
	<unicode hex="0034"/>
	<note>
		four
	</note>
	<outline>
		<contour>
			<point x="44" y="126" type="line"/>
			<point x="374" y="126" type="line"/>
			<point x="374" y="0" type="line"/>
			<point x="404" y="0" type="line"/>
			<point x="404" y="126" type="line"/>
			<point x="569" y="126" type="line"/>
			<point x="569" y="156" type="line"/>
			<point x="404" y="156" type="line"/>
			<point x="404" y="426" type="line"/>
			<point x="374" y="426" type="line"/>
			<point x="374" y="156" type="line"/>
			<point x="76" y="156" type="line"/>
			<point x="139" y="240"/>
			<point x="188" y="316"/>
			<point x="226" y="389" type="curve" smooth="yes"/>
			<point x="264" y="461"/>
			<point x="289" y="525"/>
			<point x="308" y="597" type="curve"/>
			<point x="280" y="603" type="line"/>
			<point x="256" y="523"/>
			<point x="229" y="457"/>
			<point x="191" y="386" type="curve" smooth="yes"/>
			<point x="153" y="315"/>
			<point x="105" y="244"/>
			<point x="44" y="164" type="curve"/>
		</contour>
	</outline>
</glyph>
<glyph name="six" format="2">
	<advance width="600"/>
	<unicode hex="0036"/>
	<note>
		six
	</note>
	<outline>
		<contour>
			<point x="478" y="467" type="curve"/>
			<point x="468" y="486"/>
			<point x="446" y="489"/>
			<point x="435" y="489" type="curve" smooth="yes"/>
			<point x="415" y="489"/>
			<point x="391" y="473"/>
			<point x="391" y="445" type="curve" smooth="yes"/>
			<point x="391" y="413"/>
			<point x="415" y="396"/>
			<point x="443" y="396" type="curve" smooth="yes"/>
			<point x="479" y="396"/>
			<point x="504" y="428"/>
			<point x="504" y="467" type="curve" smooth="yes"/>
			<point x="504" y="546"/>
			<point x="439" y="603"/>
			<point x="335" y="603" type="curve" smooth="yes"/>
			<point x="167" y="603"/>
			<point x="75" y="465"/>
			<point x="75" y="276" type="curve" smooth="yes"/>
			<point x="75" y="115"/>
			<point x="165" y="-13"/>
			<point x="306" y="-13" type="curve" smooth="yes"/>
			<point x="428" y="-13"/>
			<point x="525" y="64"/>
			<point x="525" y="180" type="curve" smooth="yes"/>
			<point x="525" y="296"/>
			<point x="446" y="367"/>
			<point x="322" y="367" type="curve" smooth="yes"/>
			<point x="237" y="367"/>
			<point x="167" y="326"/>
			<point x="104" y="251" type="curve"/>
			<point x="104" y="302" type="line" smooth="yes"/>
			<point x="104" y="444"/>
			<point x="192" y="573"/>
			<point x="335" y="573" type="curve" smooth="yes"/>
			<point x="420" y="573"/>
			<point x="472" y="531"/>
		</contour>
		<contour>
			<point x="109" y="214" type="curve"/>
			<point x="113" y="219" type="line" smooth="yes"/>
			<point x="172" y="293"/>
			<point x="237" y="337"/>
			<point x="322" y="337" type="curve" smooth="yes"/>
			<point x="419" y="337"/>
			<point x="495" y="279"/>
			<point x="495" y="180" type="curve" smooth="yes"/>
			<point x="495" y="81"/>
			<point x="408" y="17"/>
			<point x="306" y="17" type="curve" smooth="yes"/>
			<point x="199" y="17"/>
			<point x="130" y="94"/>
		</contour>
	</outline>
</glyph>
<glyph name="seven" format="2">
	<advance width="600"/>
	<unicode hex="0037"/>
	<note>
		seven
	</note>
	<outline>
		<contour>
			<point x="92" y="396" type="line"/>
			<point x="119" y="399" type="line"/>
			<point x="114" y="443" type="line"/>
			<point x="142" y="530"/>
			<point x="174" y="573"/>
			<point x="222" y="573" type="curve" smooth="yes"/>
			<point x="284" y="573"/>
			<point x="337" y="526"/>
			<point x="412" y="526" type="curve" smooth="yes"/>
			<point x="435" y="526"/>
			<point x="470" y="534"/>
			<point x="502" y="550" type="curve"/>
			<point x="477" y="486"/>
			<point x="432" y="422"/>
			<point x="389" y="375" type="curve" smooth="yes"/>
			<point x="308" y="286"/>
			<point x="264" y="225"/>
			<point x="264" y="114" type="curve" smooth="yes"/>
			<point x="264" y="0" type="line"/>
			<point x="294" y="0" type="line"/>
			<point x="294" y="114" type="line" smooth="yes"/>
			<point x="294" y="210"/>
			<point x="335" y="266"/>
			<point x="410" y="353" type="curve" smooth="yes"/>
			<point x="488" y="444"/>
			<point x="509" y="475"/>
			<point x="542" y="582" type="curve"/>
			<point x="513" y="596" type="line"/>
			<point x="490" y="575"/>
			<point x="448" y="556"/>
			<point x="412" y="556" type="curve" smooth="yes"/>
			<point x="343" y="556"/>
			<point x="301" y="603"/>
			<point x="222" y="603" type="curve" smooth="yes"/>
			<point x="174" y="603"/>
			<point x="126" y="568"/>
			<point x="110" y="504" type="curve"/>
			<point x="102" y="597" type="line"/>
			<point x="75" y="594" type="line"/>
		</contour>
	</outline>
</glyph>
<glyph name="nine" format="2">
	<advance width="600"/>
	<unicode hex="0039"/>
	<note>
		nine
	</note>
	<outline>
		<contour>
			<point x="122" y="123" type="curve"/>
			<point x="132" y="104"/>
			<point x="154" y="101"/>
			<point x="165" y="101" type="curve" smooth="yes"/>
			<point x="185" y="101"/>
			<point x="209" y="117"/>
			<point x="209" y="145" type="curve" smooth="yes"/>
			<point x="209" y="177"/>
			<point x="185" y="194"/>
			<point x="157" y="194" type="curve" smooth="yes"/>
			<point x="121" y="194"/>
			<point x="96" y="162"/>
			<point x="96" y="123" type="curve" smooth="yes"/>
			<point x="96" y="44"/>
			<point x="161" y="-13"/>
			<point x="265" y="-13" type="curve" smooth="yes"/>
			<point x="433" y="-13"/>
			<point x="525" y="125"/>
			<point x="525" y="314" type="curve" smooth="yes"/>
			<point x="525" y="475"/>
			<point x="435" y="603"/>
			<point x="294" y="603" type="curve" smooth="yes"/>
			<point x="172" y="603"/>
			<point x="75" y="526"/>
			<point x="75" y="410" type="curve" smooth="yes"/>
			<point x="75" y="294"/>
			<point x="154" y="223"/>
			<point x="278" y="223" type="curve" smooth="yes"/>
			<point x="363" y="223"/>
			<point x="433" y="264"/>
			<point x="496" y="339" type="curve"/>
			<point x="496" y="288" type="line" smooth="yes"/>
			<point x="496" y="146"/>
			<point x="408" y="17"/>
			<point x="265" y="17" type="curve" smooth="yes"/>
			<point x="180" y="17"/>
			<point x="128" y="59"/>
		</contour>
		<contour>
			<point x="491" y="376" type="curve"/>
			<point x="487" y="371" type="line" smooth="yes"/>
			<point x="428" y="297"/>
			<point x="363" y="253"/>
			<point x="278" y="253" type="curve" smooth="yes"/>
			<point x="181" y="253"/>
			<point x="105" y="311"/>
			<point x="105" y="410" type="curve" smooth="yes"/>
			<point x="105" y="509"/>
			<point x="192" y="573"/>
			<point x="294" y="573" type="curve" smooth="yes"/>
			<point x="401" y="573"/>
			<point x="470" y="496"/>
		</contour>
	</outline>
</glyph>
<glyph name="less" format="2">
	<advance width="600"/>
	<unicode hex="003C"/>
	<note>
		less
	</note>
	<outline>
		<contour>
			<point x="66" y="208" type="line"/>
			<point x="66" y="245" type="line"/>
			<point x="474" y="466" type="line"/>
			<point x="488" y="439" type="line"/>
			<point x="95" y="227" type="line"/>
			<point x="488" y="14" type="line"/>
			<point x="474" y="-13" type="line"/>
		</contour>
	</outline>
</glyph>
<glyph name="equal" format="2">
	<advance width="600"/>
	<unicode hex="003D"/>
	<note>
		equal
	</note>
	<outline>
		<contour>
			<point x="69" y="296" type="line"/>
			<point x="69" y="326" type="line"/>
			<point x="531" y="326" type="line"/>
			<point x="531" y="296" type="line"/>
		</contour>
		<contour>
			<point x="69" y="104" type="line"/>
			<point x="69" y="134" type="line"/>
			<point x="531" y="134" type="line"/>
			<point x="531" y="104" type="line"/>
		</contour>
	</outline>
</glyph>
<glyph name="greater" format="2">
	<advance width="600"/>
	<unicode hex="003E"/>
	<note>
		greater
	</note>
	<outline>
		<contour>
			<point x="126" y="466" type="line"/>
			<point x="534" y="245" type="line"/>
			<point x="534" y="208" type="line"/>
			<point x="126" y="-13" type="line"/>
			<point x="112" y="14" type="line"/>
			<point x="505" y="227" type="line"/>
			<point x="112" y="439" type="line"/>
		</contour>
	</outline>
</glyph>
<glyph name="B" format="2">
	<advance width="600"/>
	<unicode hex="0042"/>
	<note>
		B
	</note>
	<outline>
		<contour>
			<point x="420" y="313" type="curve"/>
			<point x="487" y="322"/>
			<point x="521" y="382"/>
			<point x="521" y="438" type="curve" smooth="yes"/>
			<point x="521" y="545"/>
			<point x="436" y="596"/>
			<point x="315" y="592" type="curve" smooth="yes"/>
			<point x="286" y="591"/>
			<point x="203" y="590"/>
			<point x="162" y="590" type="curve" smooth="yes"/>
			<point x="116" y="590"/>
			<point x="78" y="593"/>
			<point x="32" y="603" type="curve"/>
			<point x="25" y="575" type="line"/>
			<point x="56" y="568"/>
			<point x="102" y="560"/>
			<point x="133" y="560" type="curve"/>
			<point x="133" y="30" type="line"/>
			<point x="30" y="30" type="line"/>
			<point x="30" y="0" type="line"/>
			<point x="148" y="0" type="line" smooth="yes"/>
			<point x="179" y="0"/>
			<point x="281" y="-3"/>
			<point x="311" y="-4" type="curve" smooth="yes"/>
			<point x="438" y="-9"/>
			<point x="554" y="40"/>
			<point x="554" y="161" type="curve" smooth="yes"/>
			<point x="554" y="254"/>
			<point x="486" y="303"/>
		</contour>
		<contour>
			<point x="491" y="438" type="curve" smooth="yes"/>
			<point x="491" y="354"/>
			<point x="420" y="328"/>
			<point x="326" y="328" type="curve" smooth="yes"/>
			<point x="163" y="328" type="line"/>
			<point x="163" y="560" type="line"/>
			<point x="170" y="560" type="line" smooth="yes"/>
			<point x="205" y="560"/>
			<point x="293" y="562"/>
			<point x="315" y="562" type="curve" smooth="yes"/>
			<point x="426" y="562"/>
			<point x="491" y="524"/>
		</contour>
		<contour>
			<point x="310" y="26" type="curve" smooth="yes"/>
			<point x="163" y="31" type="line"/>
			<point x="163" y="298" type="line"/>
			<point x="326" y="298" type="line" smooth="yes"/>
			<point x="440" y="298"/>
			<point x="524" y="254"/>
			<point x="524" y="161" type="curve" smooth="yes"/>
			<point x="524" y="60"/>
			<point x="421" y="22"/>
		</contour>
	</outline>
</glyph>
<glyph name="C" format="2">
	<advance width="600"/>
	<unicode hex="0043"/>
	<note>
		C
	</note>
	<outline>
		<contour>
			<point x="460" y="430" type="curve"/>
			<point x="460" y="511"/>
			<point x="374" y="573"/>
			<point x="298" y="573" type="curve" smooth="yes"/>
			<point x="159" y="573"/>
			<point x="63" y="449"/>
			<point x="63" y="288" type="curve" smooth="yes"/>
			<point x="63" y="128"/>
			<point x="164" y="17"/>
			<point x="300" y="17" type="curve" smooth="yes"/>
			<point x="426" y="17"/>
			<point x="508" y="106"/>
			<point x="552" y="231" type="curve"/>
			<point x="580" y="219" type="line"/>
			<point x="527" y="76"/>
			<point x="437" y="-13"/>
			<point x="300" y="-13" type="curve" smooth="yes"/>
			<point x="140" y="-13"/>
			<point x="33" y="119"/>
			<point x="33" y="288" type="curve" smooth="yes"/>
			<point x="33" y="464"/>
			<point x="138" y="603"/>
			<point x="298" y="603" type="curve" smooth="yes"/>
			<point x="410" y="603"/>
			<point x="495" y="511"/>
			<point x="495" y="408" type="curve" smooth="yes"/>
			<point x="495" y="367"/>
			<point x="473" y="333"/>
			<point x="434" y="333" type="curve" smooth="yes"/>
			<point x="399" y="333"/>
			<point x="378" y="360"/>
			<point x="378" y="394" type="curve" smooth="yes"/>
			<point x="378" y="437"/>
			<point x="435" y="460"/>
		</contour>
	</outline>
</glyph>
<glyph name="E" format="2">
	<advance width="600"/>
	<unicode hex="0045"/>
	<anchor x="305" y="590" name="top"/>
	<note>
		E
	</note>
	<outline>
		<contour>
			<point x="41" y="0" type="line"/>
			<point x="41" y="30" type="line"/>
			<point x="165" y="30" type="line"/>
			<point x="165" y="560" type="line"/>
			<point x="41" y="560" type="line"/>
			<point x="41" y="590" type="line"/>
			<point x="531" y="590" type="line"/>
			<point x="550" y="373" type="line"/>
			<point x="520" y="370" type="line"/>
			<point x="504" y="560" type="line"/>
			<point x="195" y="560" type="line"/>
			<point x="195" y="307" type="line"/>
			<point x="365" y="307" type="line"/>
			<point x="365" y="427" type="line"/>
			<point x="395" y="427" type="line"/>
			<point x="395" y="162" type="line"/>
			<point x="365" y="162" type="line"/>
			<point x="365" y="277" type="line"/>
			<point x="195" y="277" type="line"/>
			<point x="195" y="30" type="line"/>
			<point x="504" y="30" type="line"/>
			<point x="522" y="220" type="line"/>
			<point x="552" y="217" type="line"/>
			<point x="531" y="0" type="line"/>
		</contour>
	</outline>
</glyph>
<glyph name="F" format="2">
	<advance width="600"/>
	<unicode hex="0046"/>
	<note>
		F
	</note>
	<outline>
		<contour>
			<point x="27" y="0" type="line"/>
			<point x="27" y="31" type="line"/>
			<point x="159" y="31" type="line"/>
			<point x="159" y="560" type="line"/>
			<point x="27" y="560" type="line"/>
			<point x="27" y="590" type="line"/>
			<point x="528" y="590" type="line"/>
			<point x="552" y="303" type="line"/>
			<point x="522" y="300" type="line"/>
			<point x="500" y="560" type="line"/>
			<point x="189" y="560" type="line"/>
			<point x="189" y="307" type="line"/>
			<point x="360" y="307" type="line"/>
			<point x="360" y="430" type="line"/>
			<point x="390" y="430" type="line"/>
			<point x="390" y="165" type="line"/>
			<point x="360" y="165" type="line"/>
			<point x="360" y="277" type="line"/>
			<point x="189" y="277" type="line"/>
			<point x="189" y="31" type="line"/>
			<point x="315" y="31" type="line"/>
			<point x="315" y="0" type="line"/>
		</contour>
	</outline>
</glyph>
<glyph name="H" format="2">
	<advance width="600"/>
	<unicode hex="0048"/>
	<note>
		H
	</note>
	<outline>
		<contour>
			<point x="256" y="0" type="line"/>
			<point x="27" y="0" type="line"/>
			<point x="27" y="30" type="line"/>
			<point x="119" y="30" type="line"/>
			<point x="119" y="560" type="line"/>
			<point x="27" y="560" type="line"/>
			<point x="27" y="590" type="line"/>
			<point x="256" y="590" type="line"/>
			<point x="256" y="560" type="line"/>
			<point x="149" y="560" type="line"/>
			<point x="149" y="318" type="line"/>
			<point x="451" y="318" type="line"/>
			<point x="451" y="560" type="line"/>
			<point x="344" y="560" type="line"/>
			<point x="344" y="590" type="line"/>
			<point x="573" y="590" type="line"/>
			<point x="573" y="560" type="line"/>
			<point x="481" y="560" type="line"/>
			<point x="481" y="30" type="line"/>
			<point x="573" y="30" type="line"/>
			<point x="573" y="0" type="line"/>
			<point x="344" y="0" type="line"/>
			<point x="344" y="30" type="line"/>
			<point x="451" y="30" type="line"/>
			<point x="451" y="288" type="line"/>
			<point x="149" y="288" type="line"/>
			<point x="149" y="30" type="line"/>
			<point x="256" y="30" type="line"/>
		</contour>
	</outline>
</glyph>
<glyph name="I" format="2">
	<advance width="600"/>
	<unicode hex="0049"/>
	<anchor x="300" y="590" name="top"/>
	<note>
		I
	</note>
	<outline>
		<contour>
			<point x="498" y="560" type="line"/>
			<point x="315" y="560" type="line"/>
			<point x="315" y="30" type="line"/>
			<point x="498" y="30" type="line"/>
			<point x="498" y="0" type="line"/>
			<point x="102" y="0" type="line"/>
			<point x="102" y="30" type="line"/>
			<point x="285" y="30" type="line"/>
			<point x="285" y="560" type="line"/>
			<point x="102" y="560" type="line"/>
			<point x="102" y="590" type="line"/>
			<point x="498" y="590" type="line"/>
		</contour>
	</outline>
</glyph>
<glyph name="K" format="2">
	<advance width="600"/>
	<unicode hex="004B"/>
	<note>
		K
	</note>
	<outline>
		<contour>
			<point x="253" y="0" type="line"/>
			<point x="253" y="32" type="line"/>
			<point x="157" y="32" type="line"/>
			<point x="157" y="169" type="line"/>
			<point x="284" y="312" type="line"/>
			<point x="406" y="90" type="line" smooth="yes"/>
			<point x="446" y="18"/>
			<point x="476" y="-13"/>
			<point x="520" y="-13" type="curve" smooth="yes"/>
			<point x="567" y="-13"/>
			<point x="611" y="22"/>
			<point x="611" y="99" type="curve" smooth="yes"/>
			<point x="611" y="126" type="line"/>
			<point x="581" y="126" type="line"/>
			<point x="581" y="100" type="line" smooth="yes"/>
			<point x="581" y="42"/>
			<point x="558" y="17"/>
			<point x="520" y="17" type="curve" smooth="yes"/>
			<point x="482" y="17"/>
			<point x="455" y="62"/>
			<point x="431" y="106" type="curve" smooth="yes"/>
			<point x="305" y="335" type="line"/>
			<point x="500" y="560" type="line"/>
			<point x="571" y="560" type="line"/>
			<point x="571" y="590" type="line"/>
			<point x="349" y="590" type="line"/>
			<point x="349" y="560" type="line"/>
			<point x="461" y="560" type="line"/>
			<point x="157" y="214" type="line"/>
			<point x="157" y="560" type="line"/>
			<point x="253" y="560" type="line"/>
			<point x="253" y="590" type="line"/>
			<point x="40" y="590" type="line"/>
			<point x="40" y="560" type="line"/>
			<point x="127" y="560" type="line"/>
			<point x="127" y="32" type="line"/>
			<point x="40" y="32" type="line"/>
			<point x="40" y="0" type="line"/>
		</contour>
	</outline>
</glyph>
<glyph name="L" format="2">
	<advance width="600"/>
	<unicode hex="004C"/>
	<note>
		L
	</note>
	<outline>
		<contour>
			<point x="198" y="30" type="line"/>
			<point x="514" y="30" type="line"/>
			<point x="536" y="291" type="line"/>
			<point x="566" y="287" type="line"/>
			<point x="542" y="0" type="line"/>
			<point x="56" y="0" type="line"/>
			<point x="56" y="30" type="line"/>
			<point x="168" y="30" type="line"/>
			<point x="168" y="560" type="line"/>
			<point x="56" y="560" type="line"/>
			<point x="56" y="590" type="line"/>
			<point x="310" y="590" type="line"/>
			<point x="310" y="560" type="line"/>
			<point x="198" y="560" type="line"/>
		</contour>
	</outline>
</glyph>
<glyph name="N" format="2">
	<advance width="600"/>
	<unicode hex="004E"/>
	<note>
		N
	</note>
	<outline>
		<contour>
			<point x="577" y="590" type="line"/>
			<point x="373" y="590" type="line"/>
			<point x="373" y="560" type="line"/>
			<point x="455" y="560" type="line"/>
			<point x="455" y="30" type="line"/>
			<point x="168" y="590" type="line"/>
			<point x="165" y="590" type="line" smooth="yes"/>
			<point x="117" y="590"/>
			<point x="78" y="593"/>
			<point x="30" y="603" type="curve"/>
			<point x="23" y="575" type="line"/>
			<point x="51" y="569"/>
			<point x="92" y="562"/>
			<point x="122" y="560" type="curve"/>
			<point x="122" y="30" type="line"/>
			<point x="30" y="30" type="line"/>
			<point x="30" y="0" type="line"/>
			<point x="234" y="0" type="line"/>
			<point x="234" y="30" type="line"/>
			<point x="152" y="30" type="line"/>
			<point x="153" y="554" type="line"/>
			<point x="437" y="0" type="line"/>
			<point x="485" y="0" type="line"/>
			<point x="485" y="560" type="line"/>
			<point x="577" y="560" type="line"/>
		</contour>
	</outline>
</glyph>
<glyph name="bracketright" format="2">
	<advance width="600"/>
	<unicode hex="005D"/>
	<note>
		bracketright
	</note>
	<outline>
		<contour>
			<point x="340" y="-92" type="line"/>
			<point x="81" y="-92" type="line"/>
			<point x="81" y="-62" type="line"/>
			<point x="310" y="-62" type="line"/>
			<point x="310" y="560" type="line"/>
			<point x="81" y="560" type="line"/>
			<point x="81" y="590" type="line"/>
			<point x="340" y="590" type="line"/>
		</contour>
	</outline>
</glyph>
<glyph name="c" format="2">
	<advance width="600"/>
	<unicode hex="0063"/>
	<note>
		c
	</note>
	<outline>
		<contour>
			<point x="281" y="413" type="curve" smooth="yes"/>
			<point x="357" y="413"/>
			<point x="439" y="370"/>
			<point x="443" y="310" type="curve"/>
			<point x="433" y="326"/>
			<point x="417" y="331"/>
			<point x="401" y="331" type="curve" smooth="yes"/>
			<point x="377" y="331"/>
			<point x="354" y="304"/>
			<point x="354" y="279" type="curve" smooth="yes"/>
			<point x="354" y="247"/>
			<point x="380" y="229"/>
			<point x="411" y="229" type="curve" smooth="yes"/>
			<point x="445" y="229"/>
			<point x="471" y="260"/>
			<point x="471" y="309" type="curve" smooth="yes"/>
			<point x="471" y="384"/>
			<point x="379" y="443"/>
			<point x="282" y="443" type="curve" smooth="yes"/>
			<point x="147" y="443"/>
			<point x="59" y="358"/>
			<point x="59" y="219" type="curve" smooth="yes"/>
			<point x="59" y="84"/>
			<point x="160" y="-13"/>
			<point x="305" y="-13" type="curve" smooth="yes"/>
			<point x="436" y="-13"/>
			<point x="536" y="74"/>
			<point x="554" y="201" type="curve"/>
			<point x="524" y="205" type="line"/>
			<point x="506" y="91"/>
			<point x="422" y="17"/>
			<point x="305" y="17" type="curve" smooth="yes"/>
			<point x="178" y="17"/>
			<point x="89" y="101"/>
			<point x="89" y="219" type="curve" smooth="yes"/>
			<point x="89" y="339"/>
			<point x="164" y="413"/>
		</contour>
	</outline>
</glyph>
<glyph name="f" format="2">
	<advance width="600"/>
	<unicode hex="0066"/>
	<note>
		f
	</note>
	<outline>
		<contour>
			<point x="531" y="470" type="curve"/>
			<point x="521" y="486"/>
			<point x="507" y="489"/>
			<point x="491" y="489" type="curve" smooth="yes"/>
			<point x="468" y="489"/>
			<point x="443" y="464"/>
			<point x="443" y="439" type="curve" smooth="yes"/>
			<point x="443" y="405"/>
			<point x="469" y="389"/>
			<point x="500" y="389" type="curve" smooth="yes"/>
			<point x="534" y="389"/>
			<point x="560" y="420"/>
			<point x="560" y="469" type="curve" smooth="yes"/>
			<point x="560" y="540"/>
			<point x="487" y="603"/>
			<point x="390" y="603" type="curve" smooth="yes"/>
			<point x="285" y="603"/>
			<point x="214" y="542"/>
			<point x="200" y="430" type="curve"/>
			<point x="56" y="430" type="line"/>
			<point x="56" y="400" type="line"/>
			<point x="199" y="400" type="line"/>
			<point x="199" y="30" type="line"/>
			<point x="56" y="30" type="line"/>
			<point x="56" y="0" type="line"/>
			<point x="389" y="0" type="line"/>
			<point x="389" y="30" type="line"/>
			<point x="229" y="30" type="line"/>
			<point x="229" y="400" type="line"/>
			<point x="389" y="400" type="line"/>
			<point x="389" y="430" type="line"/>
			<point x="230" y="430" type="line"/>
			<point x="244" y="522"/>
			<point x="298" y="573"/>
			<point x="389" y="573" type="curve" smooth="yes"/>
			<point x="465" y="573"/>
			<point x="528" y="530"/>
		</contour>
	</outline>
</glyph>
<glyph name="h" format="2">
	<advance width="600"/>
	<unicode hex="0068"/>
	<note>
		h
	</note>
	<outline>
		<contour>
			<point x="354" y="413" type="curve" smooth="yes"/>
			<point x="413" y="413"/>
			<point x="450" y="377"/>
			<point x="450" y="310" type="curve" smooth="yes"/>
			<point x="450" y="30" type="line"/>
			<point x="366" y="30" type="line"/>
			<point x="366" y="0" type="line"/>
			<point x="567" y="0" type="line"/>
			<point x="567" y="30" type="line"/>
			<point x="480" y="30" type="line"/>
			<point x="480" y="310" type="line" smooth="yes"/>
			<point x="480" y="394"/>
			<point x="432" y="443"/>
			<point x="354" y="443" type="curve" smooth="yes"/>
			<point x="287" y="443"/>
			<point x="245" y="386"/>
			<point x="162" y="303" type="curve"/>
			<point x="162" y="590" type="line"/>
			<point x="44" y="590" type="line"/>
			<point x="44" y="560" type="line"/>
			<point x="132" y="560" type="line"/>
			<point x="132" y="30" type="line"/>
			<point x="44" y="30" type="line"/>
			<point x="44" y="0" type="line"/>
			<point x="246" y="0" type="line"/>
			<point x="246" y="30" type="line"/>
			<point x="162" y="30" type="line"/>
			<point x="162" y="261" type="line"/>
			<point x="270" y="369"/>
			<point x="300" y="413"/>
		</contour>
	</outline>
</glyph>
<glyph name="j" format="2">
	<advance width="600"/>
	<unicode hex="006A"/>
	<note>
		j
	</note>
	<outline>
		<contour>
			<point x="430" y="488" type="curve" smooth="yes"/>
			<point x="458" y="488"/>
			<point x="481" y="512"/>
			<point x="481" y="539" type="curve" smooth="yes"/>
			<point x="481" y="566"/>
			<point x="458" y="590"/>
			<point x="430" y="590" type="curve" smooth="yes"/>
			<point x="402" y="590"/>
			<point x="378" y="566"/>
			<point x="378" y="539" type="curve" smooth="yes"/>
			<point x="378" y="512"/>
			<point x="402" y="488"/>
		</contour>
		<contour>
			<point x="101" y="-23" type="curve"/>
			<point x="103" y="-109"/>
			<point x="178" y="-173"/>
			<point x="264" y="-173" type="curve" smooth="yes"/>
			<point x="381" y="-173"/>
			<point x="448" y="-101"/>
			<point x="448" y="29" type="curve" smooth="yes"/>
			<point x="448" y="430" type="line"/>
			<point x="156" y="430" type="line"/>
			<point x="156" y="400" type="line"/>
			<point x="418" y="400" type="line"/>
			<point x="418" y="40" type="line" smooth="yes"/>
			<point x="418" y="-74"/>
			<point x="375" y="-143"/>
			<point x="264" y="-143" type="curve" smooth="yes"/>
			<point x="201" y="-143"/>
			<point x="133" y="-98"/>
			<point x="133" y="-23" type="curve"/>
			<point x="143" y="-40"/>
			<point x="159" y="-45"/>
			<point x="174" y="-45" type="curve" smooth="yes"/>
			<point x="202" y="-45"/>
			<point x="222" y="-17"/>
			<point x="222" y="7" type="curve" smooth="yes"/>
			<point x="222" y="40"/>
			<point x="196" y="58"/>
			<point x="165" y="57" type="curve" smooth="yes"/>
			<point x="131" y="56"/>
			<point x="102" y="26"/>
		</contour>
	</outline>
</glyph>
<glyph name="l" format="2">
	<advance width="600"/>
	<unicode hex="006C"/>
	<note>
		l
	</note>
	<outline>
		<contour>
			<point x="321" y="590" type="line"/>
			<point x="321" y="30" type="line"/>
			<point x="514" y="30" type="line"/>
			<point x="514" y="0" type="line"/>
			<point x="95" y="0" type="line"/>
			<point x="95" y="30" type="line"/>
			<point x="291" y="30" type="line"/>
			<point x="291" y="560" type="line"/>
			<point x="95" y="560" type="line"/>
			<point x="95" y="590" type="line"/>
		</contour>
	</outline>
</glyph>
<glyph name="m" format="2">
	<advance width="600"/>
	<unicode hex="006D"/>
	<note>
		m
	</note>
	<outline>
		<contour>
			<point x="593" y="30" type="line"/>
			<point x="547" y="30" type="line"/>
			<point x="547" y="343" type="line" smooth="yes"/>
			<point x="547" y="422"/>
			<point x="516" y="443"/>
			<point x="473" y="443" type="curve" smooth="yes"/>
			<point x="429" y="443"/>
			<point x="388" y="405"/>
			<point x="341" y="350" type="curve"/>
			<point x="339" y="423"/>
			<point x="309" y="443"/>
			<point x="267" y="443" type="curve" smooth="yes"/>
			<point x="226" y="443"/>
			<point x="187" y="409"/>
			<point x="143" y="359" type="curve"/>
			<point x="143" y="363" type="line"/>
			<point x="142" y="425"/>
			<point x="117" y="443"/>
			<point x="88" y="443" type="curve" smooth="yes"/>
			<point x="48" y="443"/>
			<point x="27" y="397"/>
			<point x="3" y="342" type="curve"/>
			<point x="30" y="328" type="line"/>
			<point x="51" y="374"/>
			<point x="68" y="413"/>
			<point x="88" y="413" type="curve" smooth="yes"/>
			<point x="104" y="413"/>
			<point x="113" y="397"/>
			<point x="113" y="363" type="curve" smooth="yes"/>
			<point x="113" y="30" type="line"/>
			<point x="40" y="30" type="line"/>
			<point x="40" y="0" type="line"/>
			<point x="216" y="0" type="line"/>
			<point x="216" y="30" type="line"/>
			<point x="143" y="30" type="line"/>
			<point x="143" y="313" type="line"/>
			<point x="187" y="365"/>
			<point x="226" y="413"/>
			<point x="267" y="413" type="curve" smooth="yes"/>
			<point x="299" y="413"/>
			<point x="311" y="397"/>
			<point x="311" y="338" type="curve" smooth="yes"/>
			<point x="311" y="0" type="line"/>
			<point x="341" y="0" type="line"/>
			<point x="341" y="303" type="line"/>
			<point x="388" y="359"/>
			<point x="430" y="413"/>
			<point x="473" y="413" type="curve" smooth="yes"/>
			<point x="505" y="413"/>
			<point x="517" y="397"/>
			<point x="517" y="338" type="curve" smooth="yes"/>
			<point x="517" y="30" type="line"/>
			<point x="444" y="30" type="line"/>
			<point x="444" y="0" type="line"/>
			<point x="593" y="0" type="line"/>
		</contour>
		<contour>
			<point x="320" y="328" type="curve"/>
			<point x="320" y="327"/>
			<point x="320" y="328"/>
		</contour>
	</outline>
</glyph>
<glyph name="n" format="2">
	<advance width="600"/>
	<unicode hex="006E"/>
	<note>
		n
	</note>
	<outline>
		<contour>
			<point x="132" y="363" type="curve" smooth="yes"/>
			<point x="132" y="30" type="line"/>
			<point x="44" y="30" type="line"/>
			<point x="44" y="0" type="line"/>
			<point x="246" y="0" type="line"/>
			<point x="246" y="30" type="line"/>
			<point x="162" y="30" type="line"/>
			<point x="162" y="261" type="line"/>
			<point x="270" y="369"/>
			<point x="300" y="413"/>
			<point x="354" y="413" type="curve" smooth="yes"/>
			<point x="413" y="413"/>
			<point x="450" y="377"/>
			<point x="450" y="310" type="curve" smooth="yes"/>
			<point x="450" y="30" type="line"/>
			<point x="366" y="30" type="line"/>
			<point x="366" y="0" type="line"/>
			<point x="567" y="0" type="line"/>
			<point x="567" y="30" type="line"/>
			<point x="480" y="30" type="line"/>
			<point x="480" y="310" type="line" smooth="yes"/>
			<point x="480" y="394"/>
			<point x="432" y="443"/>
			<point x="354" y="443" type="curve" smooth="yes"/>
			<point x="287" y="443"/>
			<point x="245" y="386"/>
			<point x="162" y="303" type="curve"/>
			<point x="162" y="363" type="line"/>
			<point x="161" y="425"/>
			<point x="136" y="443"/>
			<point x="107" y="443" type="curve" smooth="yes"/>
			<point x="63" y="443"/>
			<point x="42" y="386"/>
			<point x="14" y="323" type="curve"/>
			<point x="41" y="310" type="line"/>
			<point x="65" y="364"/>
			<point x="85" y="413"/>
			<point x="107" y="413" type="curve" smooth="yes"/>
			<point x="123" y="413"/>
			<point x="132" y="397"/>
		</contour>
	</outline>
</glyph>
<glyph name="q" format="2">
	<advance width="600"/>
	<unicode hex="0071"/>
	<note>
		q
	</note>
	<outline>
		<contour>
			<point x="568" y="-127" type="line"/>
			<point x="476" y="-127" type="line"/>
			<point x="475" y="430" type="line"/>
			<point x="445" y="430" type="line"/>
			<point x="446" y="321" type="line"/>
			<point x="395" y="386"/>
			<point x="325" y="443"/>
			<point x="257" y="443" type="curve" smooth="yes"/>
			<point x="137" y="443"/>
			<point x="51" y="340"/>
			<point x="51" y="215" type="curve" smooth="yes"/>
			<point x="51" y="84"/>
			<point x="137" y="-13"/>
			<point x="257" y="-13" type="curve" smooth="yes"/>
			<point x="325" y="-13"/>
			<point x="396" y="40"/>
			<point x="446" y="110" type="curve"/>
			<point x="446" y="-127" type="line"/>
			<point x="337" y="-127" type="line"/>
			<point x="337" y="-160" type="line"/>
			<point x="568" y="-160" type="line"/>
		</contour>
		<contour>
			<point x="445" y="278" type="curve"/>
			<point x="445" y="152" type="line"/>
			<point x="379" y="74"/>
			<point x="325" y="17"/>
			<point x="257" y="17" type="curve" smooth="yes"/>
			<point x="155" y="17"/>
			<point x="81" y="101"/>
			<point x="81" y="215" type="curve" smooth="yes"/>
			<point x="81" y="326"/>
			<point x="155" y="413"/>
			<point x="257" y="413" type="curve" smooth="yes"/>
			<point x="325" y="413"/>
			<point x="381" y="352"/>
		</contour>
	</outline>
</glyph>
<glyph name="r" format="2">
	<advance width="600"/>
	<unicode hex="0072"/>
	<note>
		r
	</note>
	<outline>
		<contour>
			<point x="396" y="443" type="curve" smooth="yes"/>
			<point x="317" y="443"/>
			<point x="264" y="389"/>
			<point x="185" y="303" type="curve"/>
			<point x="185" y="363" type="line"/>
			<point x="184" y="425"/>
			<point x="159" y="443"/>
			<point x="130" y="443" type="curve" smooth="yes"/>
			<point x="86" y="443"/>
			<point x="65" y="386"/>
			<point x="37" y="323" type="curve"/>
			<point x="64" y="310" type="line"/>
			<point x="88" y="364"/>
			<point x="108" y="413"/>
			<point x="130" y="413" type="curve" smooth="yes"/>
			<point x="146" y="413"/>
			<point x="155" y="397"/>
			<point x="155" y="363" type="curve" smooth="yes"/>
			<point x="155" y="33" type="line"/>
			<point x="70" y="33" type="line"/>
			<point x="70" y="0" type="line"/>
			<point x="398" y="0" type="line"/>
			<point x="398" y="33" type="line"/>
			<point x="185" y="33" type="line"/>
			<point x="185" y="258" type="line"/>
			<point x="287" y="369"/>
			<point x="326" y="413"/>
			<point x="396" y="413" type="curve" smooth="yes"/>
			<point x="457" y="413"/>
			<point x="495" y="369"/>
			<point x="500" y="298" type="curve"/>
			<point x="490" y="314"/>
			<point x="478" y="315"/>
			<point x="461" y="315" type="curve" smooth="yes"/>
			<point x="437" y="315"/>
			<point x="412" y="294"/>
			<point x="412" y="267" type="curve" smooth="yes"/>
			<point x="412" y="232"/>
			<point x="440" y="213"/>
			<point x="473" y="213" type="curve" smooth="yes"/>
			<point x="509" y="213"/>
			<point x="535" y="248"/>
			<point x="535" y="297" type="curve" smooth="yes"/>
			<point x="535" y="393"/>
			<point x="480" y="443"/>
		</contour>
	</outline>
</glyph>
<glyph name="x" format="2">
	<advance width="600"/>
	<unicode hex="0078"/>
	<note>
		x
	</note>
	<outline>
		<contour>
			<point x="5" y="350" type="curve"/>
			<point x="23" y="325" type="line"/>
			<point x="42" y="340" type="line" smooth="yes"/>
			<point x="101" y="386"/>
			<point x="131" y="413"/>
			<point x="164" y="413" type="curve" smooth="yes"/>
			<point x="221" y="413"/>
			<point x="284" y="293"/>
			<point x="285" y="215" type="curve" smooth="yes"/>
			<point x="284" y="136"/>
			<point x="214" y="17"/>
			<point x="144" y="17" type="curve" smooth="yes"/>
			<point x="128" y="17"/>
			<point x="119" y="17"/>
			<point x="105" y="26" type="curve"/>
			<point x="132" y="20"/>
			<point x="157" y="37"/>
			<point x="157" y="69" type="curve" smooth="yes"/>
			<point x="157" y="90"/>
			<point x="134" y="108"/>
			<point x="107" y="108" type="curve" smooth="yes"/>
			<point x="82" y="108"/>
			<point x="58" y="85"/>
			<point x="58" y="49" type="curve" smooth="yes"/>
			<point x="58" y="14"/>
			<point x="99" y="-13"/>
			<point x="144" y="-13" type="curve" smooth="yes"/>
			<point x="200" y="-13"/>
			<point x="271" y="53"/>
			<point x="300" y="134" type="curve"/>
			<point x="327" y="53"/>
			<point x="381" y="-13"/>
			<point x="436" y="-13" type="curve" smooth="yes"/>
			<point x="478" y="-13"/>
			<point x="513" y="17"/>
			<point x="595" y="80" type="curve"/>
			<point x="577" y="105" type="line"/>
			<point x="548" y="82" type="line" smooth="yes"/>
			<point x="499" y="43"/>
			<point x="469" y="17"/>
			<point x="436" y="17" type="curve" smooth="yes"/>
			<point x="379" y="17"/>
			<point x="316" y="137"/>
			<point x="315" y="215" type="curve"/>
			<point x="316" y="294"/>
			<point x="386" y="413"/>
			<point x="456" y="413" type="curve" smooth="yes"/>
			<point x="472" y="413"/>
			<point x="481" y="413"/>
			<point x="495" y="404" type="curve"/>
			<point x="468" y="410"/>
			<point x="443" y="393"/>
			<point x="443" y="361" type="curve" smooth="yes"/>
			<point x="443" y="340"/>
			<point x="466" y="322"/>
			<point x="493" y="322" type="curve" smooth="yes"/>
			<point x="518" y="322"/>
			<point x="542" y="345"/>
			<point x="542" y="381" type="curve" smooth="yes"/>
			<point x="542" y="416"/>
			<point x="501" y="443"/>
			<point x="456" y="443" type="curve" smooth="yes"/>
			<point x="400" y="443"/>
			<point x="329" y="377"/>
			<point x="300" y="296" type="curve"/>
			<point x="273" y="377"/>
			<point x="219" y="443"/>
			<point x="164" y="443" type="curve" smooth="yes"/>
			<point x="122" y="443"/>
			<point x="87" y="413"/>
		</contour>
	</outline>
</glyph>
<glyph name="braceleft" format="2">
	<advance width="600"/>
	<unicode hex="007B"/>
	<note>
		braceleft
	</note>
	<outline>
		<contour>
			<point x="160" y="233" type="curve"/>
			<point x="160" y="203" type="line"/>
			<point x="214" y="182"/>
			<point x="264" y="152"/>
			<point x="254" y="98" type="curve" smooth="yes"/>
			<point x="240" y="22" type="line" smooth="yes"/>
			<point x="221" y="-83"/>
			<point x="285" y="-167"/>
			<point x="377" y="-167" type="curve" smooth="yes"/>
			<point x="444" y="-167"/>
			<point x="500" y="-120"/>
			<point x="500" y="-55" type="curve" smooth="yes"/>
			<point x="500" y="-25"/>
			<point x="481" y="1"/>
			<point x="453" y="1" type="curve" smooth="yes"/>
			<point x="427" y="1"/>
			<point x="404" y="-15"/>
			<point x="404" y="-43" type="curve" smooth="yes"/>
			<point x="404" y="-65"/>
			<point x="422" y="-86"/>
			<point x="444" y="-86" type="curve" smooth="yes"/>
			<point x="453" y="-86"/>
			<point x="464" y="-83"/>
			<point x="471" y="-75" type="curve"/>
			<point x="464" y="-115"/>
			<point x="418" y="-137"/>
			<point x="378" y="-137" type="curve" smooth="yes"/>
			<point x="303" y="-137"/>
			<point x="255" y="-72"/>
			<point x="270" y="18" type="curve" smooth="yes"/>
			<point x="283" y="96" type="line" smooth="yes"/>
			<point x="294" y="163"/>
			<point x="241" y="206"/>
			<point x="196" y="218" type="curve"/>
			<point x="241" y="230"/>
			<point x="294" y="273"/>
			<point x="283" y="340" type="curve" smooth="yes"/>
			<point x="270" y="418" type="line" smooth="yes"/>
			<point x="255" y="508"/>
			<point x="303" y="573"/>
			<point x="378" y="573" type="curve" smooth="yes"/>
			<point x="418" y="573"/>
			<point x="464" y="551"/>
			<point x="471" y="511" type="curve"/>
			<point x="464" y="519"/>
			<point x="453" y="522"/>
			<point x="444" y="522" type="curve" smooth="yes"/>
			<point x="422" y="522"/>
			<point x="404" y="501"/>
			<point x="404" y="479" type="curve" smooth="yes"/>
			<point x="404" y="451"/>
			<point x="427" y="435"/>
			<point x="453" y="435" type="curve" smooth="yes"/>
			<point x="481" y="435"/>
			<point x="500" y="461"/>
			<point x="500" y="491" type="curve" smooth="yes"/>
			<point x="500" y="556"/>
			<point x="444" y="603"/>
			<point x="377" y="603" type="curve" smooth="yes"/>
			<point x="285" y="603"/>
			<point x="221" y="519"/>
			<point x="240" y="414" type="curve" smooth="yes"/>
			<point x="254" y="338" type="line" smooth="yes"/>
			<point x="264" y="284"/>
			<point x="214" y="254"/>
		</contour>
	</outline>
</glyph>
<glyph name="bar" format="2">
	<advance width="600"/>
	<unicode hex="007C"/>
	<note>
		bar
	</note>
	<outline>
		<contour>
			<point x="285" y="-173" type="line"/>
			<point x="285" y="603" type="line"/>
			<point x="315" y="603" type="line"/>
			<point x="315" y="-173" type="line"/>
		</contour>
	</outline>
</glyph>
<glyph name="exclamdown" format="2">
	<advance width="600"/>
	<unicode hex="00A1"/>
	<note>
		exclamdown
	</note>
	<outline>
		<contour>
			<point x="290" y="291" type="line"/>
			<point x="270" y="-122" type="line"/>
			<point x="270" y="-150"/>
			<point x="275" y="-173"/>
			<point x="298" y="-173" type="curve" smooth="yes"/>
			<point x="320" y="-173"/>
			<point x="325" y="-150"/>
			<point x="324" y="-122" type="curve" smooth="yes"/>
			<point x="304" y="291" type="line"/>
		</contour>
		<contour>
			<point x="298" y="443" type="curve" smooth="yes"/>
			<point x="270" y="443"/>
			<point x="246" y="419"/>
			<point x="246" y="392" type="curve" smooth="yes"/>
			<point x="246" y="365"/>
			<point x="270" y="341"/>
			<point x="298" y="341" type="curve" smooth="yes"/>
			<point x="326" y="341"/>
			<point x="349" y="365"/>
			<point x="349" y="392" type="curve" smooth="yes"/>
			<point x="349" y="419"/>
			<point x="326" y="443"/>
		</contour>
	</outline>
</glyph>
<glyph name="cent" format="2">
	<advance width="600"/>
	<unicode hex="00A2"/>
	<note>
		cent
	</note>
	<outline>
		<contour>
			<point x="288" y="455" type="curve" smooth="yes"/>
			<point x="348" y="455"/>
			<point x="404" y="418"/>
			<point x="404" y="360" type="curve"/>
			<point x="388" y="375"/>
			<point x="374" y="374"/>
			<point x="367" y="374" type="curve" smooth="yes"/>
			<point x="348" y="374"/>
			<point x="330" y="354"/>
			<point x="330" y="335" type="curve" smooth="yes"/>
			<point x="330" y="306"/>
			<point x="352" y="288"/>
			<point x="381" y="288" type="curve" smooth="yes"/>
			<point x="410" y="288"/>
			<point x="434" y="315"/>
			<point x="434" y="354" type="curve" smooth="yes"/>
			<point x="434" y="424"/>
			<point x="377" y="478"/>
			<point x="300" y="485" type="curve"/>
			<point x="300" y="603" type="line"/>
			<point x="270" y="603" type="line"/>
			<point x="270" y="485" type="line"/>
			<point x="176" y="478"/>
			<point x="96" y="404"/>
			<point x="96" y="304" type="curve" smooth="yes"/>
			<point x="96" y="207"/>
			<point x="166" y="128"/>
			<point x="270" y="106" type="curve"/>
			<point x="270" y="-13" type="line"/>
			<point x="300" y="-13" type="line"/>
			<point x="300" y="106" type="line"/>
			<point x="385" y="113"/>
			<point x="469" y="162"/>
			<point x="505" y="245" type="curve"/>
			<point x="478" y="257" type="line"/>
			<point x="449" y="189"/>
			<point x="368" y="136"/>
			<point x="296" y="136" type="curve" smooth="yes"/>
			<point x="203" y="136"/>
			<point x="126" y="215"/>
			<point x="126" y="304" type="curve" smooth="yes"/>
			<point x="126" y="386"/>
			<point x="191" y="455"/>
		</contour>
	</outline>
</glyph>
<glyph name="brokenbar" format="2">
	<advance width="600"/>
	<unicode hex="00A6"/>
	<note>
		brokenbar
	</note>
	<outline>
		<contour>
			<point x="285" y="296" type="line"/>
			<point x="285" y="603" type="line"/>
			<point x="315" y="603" type="line"/>
			<point x="315" y="296" type="line"/>
		</contour>
		<contour>
			<point x="285" y="-172" type="line"/>
			<point x="285" y="135" type="line"/>
			<point x="315" y="135" type="line"/>
			<point x="315" y="-172" type="line"/>
		</contour>
	</outline>
</glyph>
<glyph name="registered" format="2">
	<advance width="600"/>
	<unicode hex="00AE"/>
	<note>
		registered
	</note>
	<outline>
		<contour>
			<point x="219" y="314" type="curve" smooth="yes"/>
			<point x="298" y="314"/>
			<point x="363" y="379"/>
			<point x="363" y="459" type="curve" smooth="yes"/>
			<point x="363" y="538"/>
			<point x="298" y="603"/>
			<point x="219" y="603" type="curve" smooth="yes"/>
			<point x="139" y="603"/>
			<point x="74" y="538"/>
			<point x="74" y="459" type="curve" smooth="yes"/>
			<point x="74" y="379"/>
			<point x="139" y="314"/>
		</contour>
		<contour>
			<point x="219" y="333" type="curve" smooth="yes"/>
			<point x="149" y="333"/>
			<point x="93" y="389"/>
			<point x="93" y="459" type="curve" smooth="yes"/>
			<point x="93" y="528"/>
			<point x="149" y="584"/>
			<point x="219" y="584" type="curve" smooth="yes"/>
			<point x="288" y="584"/>
			<point x="344" y="528"/>
			<point x="344" y="459" type="curve" smooth="yes"/>
			<point x="344" y="389"/>
			<point x="288" y="333"/>
		</contour>
		<contour>
			<point x="154" y="408" type="line"/>
			<point x="154" y="389" type="line"/>
			<point x="211" y="389" type="line"/>
			<point x="211" y="408" type="line"/>
			<point x="191" y="408" type="line"/>
			<point x="191" y="449" type="line"/>
			<point x="211" y="449" type="line" smooth="yes"/>
			<point x="223" y="449"/>
			<point x="230" y="443"/>
			<point x="233" y="430" type="curve" smooth="yes"/>
			<point x="240" y="400"/>
			<point x="250" y="388"/>
			<point x="268" y="388" type="curve" smooth="yes"/>
			<point x="284" y="388"/>
			<point x="297" y="399"/>
			<point x="297" y="428" type="curve" smooth="yes"/>
			<point x="297" y="439" type="line"/>
			<point x="278" y="439" type="line"/>
			<point x="278" y="428" type="line" smooth="yes"/>
			<point x="278" y="421"/>
			<point x="278" y="407"/>
			<point x="268" y="407" type="curve" smooth="yes"/>
			<point x="259" y="407"/>
			<point x="257" y="416"/>
			<point x="252" y="434" type="curve" smooth="yes"/>
			<point x="248" y="449"/>
			<point x="246" y="455"/>
			<point x="240" y="457" type="curve"/>
			<point x="249" y="457"/>
			<point x="270" y="466"/>
			<point x="270" y="493" type="curve" smooth="yes"/>
			<point x="270" y="518"/>
			<point x="252" y="533"/>
			<point x="225" y="533" type="curve" smooth="yes"/>
			<point x="154" y="533" type="line"/>
			<point x="154" y="514" type="line"/>
			<point x="172" y="514" type="line"/>
			<point x="172" y="408" type="line"/>
		</contour>
		<contour>
			<point x="216" y="468" type="curve" smooth="yes"/>
			<point x="191" y="468" type="line"/>
			<point x="191" y="514" type="line"/>
			<point x="225" y="514" type="line" smooth="yes"/>
			<point x="242" y="514"/>
			<point x="251" y="504"/>
			<point x="251" y="493" type="curve" smooth="yes"/>
			<point x="251" y="477"/>
			<point x="236" y="468"/>
		</contour>
	</outline>
</glyph>
<glyph name="degree" format="2">
	<advance width="600"/>
	<unicode hex="00B0"/>
	<note>
		degree
	</note>
	<outline>
		<contour>
			<point x="301" y="356" type="curve" smooth="yes"/>
			<point x="369" y="356"/>
			<point x="424" y="411"/>
			<point x="424" y="480" type="curve" smooth="yes"/>
			<point x="424" y="548"/>
			<point x="369" y="603"/>
			<point x="301" y="603" type="curve" smooth="yes"/>
			<point x="232" y="603"/>
			<point x="177" y="548"/>
			<point x="177" y="480" type="curve" smooth="yes"/>
			<point x="177" y="411"/>
			<point x="232" y="356"/>
		</contour>
		<contour>
			<point x="301" y="385" type="curve" smooth="yes"/>
			<point x="248" y="385"/>
			<point x="206" y="427"/>
			<point x="206" y="480" type="curve" smooth="yes"/>
			<point x="206" y="532"/>
			<point x="248" y="574"/>
			<point x="301" y="574" type="curve" smooth="yes"/>
			<point x="353" y="574"/>
			<point x="395" y="532"/>
			<point x="395" y="480" type="curve" smooth="yes"/>
			<point x="395" y="427"/>
			<point x="353" y="385"/>
		</contour>
	</outline>
</glyph>
<glyph name="acute" format="2">
	<advance width="600"/>
	<unicode hex="00B4"/>
	<note>
		acute
	</note>
	<outline>
		<contour>
			<point x="128" y="479" type="line"/>
			<point x="124" y="499" type="line"/>
			<point x="433" y="580" type="line"/>
			<point x="442" y="542" type="line"/>
		</contour>
	</outline>
</glyph>
<glyph name="uni00B5" format="2">
	<advance width="600"/>
	<unicode hex="00B5"/>
	<note>
		uni00B5
	</note>
	<outline>
		<contour>
			<point x="558" y="34" type="line"/>
			<point x="473" y="34" type="line"/>
			<point x="473" y="363" type="line"/>
			<point x="472" y="425"/>
			<point x="447" y="443"/>
			<point x="418" y="443" type="curve" smooth="yes"/>
			<point x="387" y="443"/>
			<point x="366" y="412"/>
			<point x="346" y="370" type="curve"/>
			<point x="373" y="355" type="line"/>
			<point x="389" y="389"/>
			<point x="404" y="413"/>
			<point x="418" y="413" type="curve" smooth="yes"/>
			<point x="434" y="413"/>
			<point x="443" y="397"/>
			<point x="443" y="363" type="curve" smooth="yes"/>
			<point x="443" y="173" type="line"/>
			<point x="345" y="66"/>
			<point x="313" y="17"/>
			<point x="255" y="17" type="curve" smooth="yes"/>
			<point x="201" y="17"/>
			<point x="158" y="50"/>
			<point x="158" y="110" type="curve" smooth="yes"/>
			<point x="158" y="363" type="line"/>
			<point x="157" y="425"/>
			<point x="132" y="443"/>
			<point x="103" y="443" type="curve" smooth="yes"/>
			<point x="72" y="443"/>
			<point x="51" y="412"/>
			<point x="31" y="370" type="curve"/>
			<point x="58" y="355" type="line"/>
			<point x="74" y="389"/>
			<point x="89" y="413"/>
			<point x="103" y="413" type="curve" smooth="yes"/>
			<point x="119" y="413"/>
			<point x="128" y="397"/>
			<point x="128" y="363" type="curve" smooth="yes"/>
			<point x="128" y="-160" type="line"/>
			<point x="158" y="-160" type="line"/>
			<point x="158" y="28" type="line"/>
			<point x="179" y="4"/>
			<point x="211" y="-13"/>
			<point x="255" y="-13" type="curve" smooth="yes"/>
			<point x="326" y="-13"/>
			<point x="368" y="44"/>
			<point x="443" y="129" type="curve"/>
			<point x="443" y="0" type="line"/>
			<point x="558" y="1" type="line"/>
		</contour>
	</outline>
</glyph>
<glyph name="paragraph" format="2">
	<advance width="600"/>
	<unicode hex="00B6"/>
	<note>
		paragraph
	</note>
	<outline>
		<contour>
			<point x="576" y="579" type="curve"/>
			<point x="569" y="608" type="line"/>
			<point x="527" y="601"/>
			<point x="491" y="597"/>
			<point x="462" y="597" type="curve" smooth="yes"/>
			<point x="281" y="600" type="line" smooth="yes"/>
			<point x="153" y="603"/>
			<point x="66" y="535"/>
			<point x="66" y="415" type="curve" smooth="yes"/>
			<point x="66" y="295"/>
			<point x="151" y="228"/>
			<point x="300" y="230" type="curve" smooth="yes"/>
			<point x="351" y="231" type="line"/>
			<point x="351" y="0" type="line"/>
			<point x="381" y="0" type="line"/>
			<point x="381" y="568" type="line"/>
			<point x="443" y="567" type="line"/>
			<point x="443" y="95" type="line" smooth="yes"/>
			<point x="443" y="-26"/>
			<point x="403" y="-95"/>
			<point x="303" y="-95" type="curve" smooth="yes"/>
			<point x="222" y="-95"/>
			<point x="168" y="-34"/>
			<point x="168" y="35" type="curve"/>
			<point x="175" y="21"/>
			<point x="186" y="2"/>
			<point x="217" y="2" type="curve" smooth="yes"/>
			<point x="251" y="2"/>
			<point x="273" y="25"/>
			<point x="273" y="56" type="curve" smooth="yes"/>
			<point x="273" y="94"/>
			<point x="244" y="114"/>
			<point x="208" y="114" type="curve" smooth="yes"/>
			<point x="175" y="114"/>
			<point x="138" y="82"/>
			<point x="137" y="34" type="curve" smooth="yes"/>
			<point x="135" y="-62"/>
			<point x="218" y="-125"/>
			<point x="303" y="-125" type="curve" smooth="yes"/>
			<point x="421" y="-125"/>
			<point x="473" y="-46"/>
			<point x="473" y="85" type="curve" smooth="yes"/>
			<point x="473" y="566" type="line"/>
			<point x="503" y="567"/>
			<point x="537" y="572"/>
		</contour>
		<contour>
			<point x="351" y="569" type="line"/>
			<point x="351" y="261" type="line"/>
			<point x="300" y="260" type="line" smooth="yes"/>
			<point x="175" y="258"/>
			<point x="96" y="312"/>
			<point x="96" y="415" type="curve" smooth="yes"/>
			<point x="96" y="518"/>
			<point x="180" y="572"/>
			<point x="281" y="570" type="curve" smooth="yes"/>
		</contour>
	</outline>
</glyph>
<glyph name="uni00B9" format="2">
	<advance width="600"/>
	<unicode hex="00B9"/>
	<note>
		uni00B9
	</note>
	<outline>
		<contour>
			<point x="25" y="455" type="curve"/>
			<point x="39" y="436" type="line"/>
			<point x="94" y="479"/>
			<point x="107" y="493"/>
			<point x="144" y="551" type="curve"/>
			<point x="144" y="347" type="line"/>
			<point x="43" y="347" type="line"/>
			<point x="43" y="323" type="line"/>
			<point x="247" y="323" type="line"/>
			<point x="247" y="347" type="line"/>
			<point x="168" y="347" type="line"/>
			<point x="168" y="590" type="line"/>
			<point x="136" y="590" type="line"/>
			<point x="108" y="531"/>
			<point x="72" y="492"/>
		</contour>
	</outline>
</glyph>
<glyph name="guillemotright" format="2">
	<advance width="600"/>
	<unicode hex="00BB"/>
	<note>
		guillemotright
	</note>
	<outline>
		<contour>
			<point x="326" y="253" type="curve"/>
			<point x="274" y="298"/>
			<point x="183" y="362"/>
			<point x="122" y="443" type="curve"/>
			<point x="99" y="419" type="line"/>
			<point x="164" y="338"/>
			<point x="224" y="293"/>
			<point x="275" y="253" type="curve"/>
			<point x="224" y="213"/>
			<point x="164" y="168"/>
			<point x="99" y="87" type="curve"/>
			<point x="122" y="63" type="line"/>
			<point x="183" y="144"/>
			<point x="274" y="208"/>
		</contour>
		<contour>
			<point x="514" y="253" type="curve"/>
			<point x="462" y="298"/>
			<point x="371" y="362"/>
			<point x="310" y="443" type="curve"/>
			<point x="287" y="419" type="line"/>
			<point x="352" y="338"/>
			<point x="412" y="293"/>
			<point x="463" y="253" type="curve"/>
			<point x="412" y="213"/>
			<point x="352" y="168"/>
			<point x="287" y="87" type="curve"/>
			<point x="310" y="63" type="line"/>
			<point x="371" y="144"/>
			<point x="462" y="208"/>
		</contour>
	</outline>
</glyph>
<glyph name="Aacute" format="2">
	<advance width="600"/>
	<unicode hex="00C1"/>
	<note>
		Aacute
	</note>
	<outline>
		<contour>
			<point x="138" y="633" type="line"/>
			<point x="134" y="655" type="line"/>
			<point x="443" y="736" type="line"/>
			<point x="452" y="696" type="line"/>
		</contour>
		<contour>
			<point x="24" y="30" type="line"/>
			<point x="24" y="0" type="line"/>
			<point x="212" y="0" type="line"/>
			<point x="212" y="30" type="line"/>
			<point x="123" y="30" type="line"/>
			<point x="190" y="226" type="line"/>
			<point x="409" y="226" type="line"/>
			<point x="476" y="30" type="line"/>
			<point x="387" y="30" type="line"/>
			<point x="387" y="0" type="line"/>
			<point x="575" y="0" type="line"/>
			<point x="575" y="30" type="line"/>
			<point x="508" y="30" type="line"/>
			<point x="321" y="590" type="line"/>
			<point x="319" y="590" type="line" smooth="yes"/>
			<point x="268" y="590"/>
			<point x="227" y="592"/>
			<point x="177" y="603" type="curve"/>
			<point x="170" y="575" type="line"/>
			<point x="202" y="568"/>
			<point x="234" y="565"/>
			<point x="269" y="562" type="curve"/>
			<point x="91" y="30" type="line"/>
		</contour>
		<contour>
			<point x="399" y="256" type="line"/>
			<point x="200" y="256" type="line"/>
			<point x="300" y="559" type="line"/>
		</contour>
	</outline>
</glyph>
<glyph name="Atilde" format="2">
	<advance width="600"/>
	<unicode hex="00C3"/>
	<note>
		Atilde
	</note>
	<outline>
		<contour>
			<point x="369" y="681" type="curve" smooth="yes"/>
			<point x="316" y="681"/>
			<point x="299" y="754"/>
			<point x="227" y="754" type="curve" smooth="yes"/>
			<point x="198" y="754"/>
			<point x="161" y="731"/>
			<point x="113" y="676" type="curve"/>
			<point x="134" y="656" type="line"/>
			<point x="174" y="703"/>
			<point x="200" y="724"/>
			<point x="227" y="724" type="curve" smooth="yes"/>
			<point x="280" y="724"/>
			<point x="297" y="651"/>
			<point x="369" y="651" type="curve" smooth="yes"/>
			<point x="398" y="651"/>
			<point x="435" y="672"/>
			<point x="482" y="728" type="curve"/>
			<point x="461" y="748" type="line"/>
			<point x="422" y="700"/>
			<point x="396" y="681"/>
		</contour>
		<contour>
			<point x="24" y="30" type="line"/>
			<point x="24" y="0" type="line"/>
			<point x="212" y="0" type="line"/>
			<point x="212" y="30" type="line"/>
			<point x="123" y="30" type="line"/>
			<point x="190" y="226" type="line"/>
			<point x="409" y="226" type="line"/>
			<point x="476" y="30" type="line"/>
			<point x="387" y="30" type="line"/>
			<point x="387" y="0" type="line"/>
			<point x="575" y="0" type="line"/>
			<point x="575" y="30" type="line"/>
			<point x="508" y="30" type="line"/>
			<point x="321" y="590" type="line"/>
			<point x="319" y="590" type="line" smooth="yes"/>
			<point x="268" y="590"/>
			<point x="227" y="592"/>
			<point x="177" y="603" type="curve"/>
			<point x="170" y="575" type="line"/>
			<point x="202" y="568"/>
			<point x="234" y="565"/>
			<point x="269" y="562" type="curve"/>
			<point x="91" y="30" type="line"/>
		</contour>
		<contour>
			<point x="399" y="256" type="line"/>
			<point x="200" y="256" type="line"/>
			<point x="300" y="559" type="line"/>
		</contour>
	</outline>
</glyph>
<glyph name="AE" format="2">
	<advance width="600"/>
	<unicode hex="00C6"/>
	<note>
		AE
	</note>
	<outline>
		<contour>
			<point x="209" y="0" type="line"/>
			<point x="21" y="0" type="line"/>
			<point x="21" y="30" type="line"/>
			<point x="88" y="30" type="line"/>
			<point x="269" y="562" type="line"/>
			<point x="234" y="565"/>
			<point x="202" y="568"/>
			<point x="170" y="575" type="curve"/>
			<point x="177" y="603" type="line"/>
			<point x="227" y="592"/>
			<point x="268" y="590"/>
			<point x="319" y="590" type="curve" smooth="yes"/>
			<point x="580" y="590" type="line"/>
			<point x="588" y="494" type="line"/>
			<point x="558" y="491" type="line"/>
			<point x="553" y="560" type="line"/>
			<point x="330" y="560" type="line"/>
			<point x="330" y="280" type="line"/>
			<point x="459" y="280" type="line"/>
			<point x="459" y="400" type="line"/>
			<point x="489" y="400" type="line"/>
			<point x="489" y="135" type="line"/>
			<point x="459" y="135" type="line"/>
			<point x="459" y="250" type="line"/>
			<point x="330" y="250" type="line"/>
			<point x="330" y="30" type="line"/>
			<point x="553" y="30" type="line"/>
			<point x="558" y="96" type="line"/>
			<point x="588" y="93" type="line"/>
			<point x="580" y="0" type="line"/>
			<point x="300" y="0" type="line"/>
			<point x="300" y="250" type="line"/>
			<point x="195" y="250" type="line"/>
			<point x="120" y="30" type="line"/>
			<point x="209" y="30" type="line"/>
		</contour>
		<contour>
			<point x="300" y="559" type="line"/>
			<point x="205" y="280" type="line"/>
			<point x="300" y="280" type="line"/>
		</contour>
	</outline>
</glyph>
<glyph name="Icircumflex" format="2">
	<advance width="600"/>
	<unicode hex="00CE"/>
	<note>
		Icircumflex
	</note>
	<outline>
		<contour>
			<point x="94" y="641" type="line"/>
			<point x="299" y="747" type="line"/>
			<point x="505" y="641" type="line"/>
			<point x="499" y="624" type="line"/>
			<point x="299" y="709" type="line"/>
			<point x="99" y="624" type="line"/>
		</contour>
		<contour>
			<point x="498" y="560" type="line"/>
			<point x="315" y="560" type="line"/>
			<point x="315" y="30" type="line"/>
			<point x="498" y="30" type="line"/>
			<point x="498" y="0" type="line"/>
			<point x="102" y="0" type="line"/>
			<point x="102" y="30" type="line"/>
			<point x="285" y="30" type="line"/>
			<point x="285" y="560" type="line"/>
			<point x="102" y="560" type="line"/>
			<point x="102" y="590" type="line"/>
			<point x="498" y="590" type="line"/>
		</contour>
	</outline>
</glyph>
<glyph name="Oacute" format="2">
	<advance width="600"/>
	<unicode hex="00D3"/>
	<note>
		Oacute
	</note>
	<outline>
		<contour>
			<point x="138" y="634" type="line"/>
			<point x="134" y="656" type="line"/>
			<point x="443" y="737" type="line"/>
			<point x="452" y="697" type="line"/>
		</contour>
		<contour>
			<point x="300" y="603" type="curve" smooth="yes"/>
			<point x="134" y="603"/>
			<point x="21" y="458"/>
			<point x="23" y="296" type="curve" smooth="yes"/>
			<point x="25" y="120"/>
			<point x="142" y="-13"/>
			<point x="300" y="-13" type="curve" smooth="yes"/>
			<point x="458" y="-13"/>
			<point x="577" y="120"/>
			<point x="577" y="296" type="curve" smooth="yes"/>
			<point x="577" y="458"/>
			<point x="466" y="603"/>
		</contour>
		<contour>
			<point x="300" y="17" type="curve" smooth="yes"/>
			<point x="165" y="16"/>
			<point x="51" y="128"/>
			<point x="53" y="296" type="curve" smooth="yes"/>
			<point x="55" y="463"/>
			<point x="166" y="572"/>
			<point x="300" y="573" type="curve" smooth="yes"/>
			<point x="434" y="574"/>
			<point x="545" y="463"/>
			<point x="547" y="296" type="curve" smooth="yes"/>
			<point x="549" y="128"/>
			<point x="435" y="18"/>
		</contour>
	</outline>
</glyph>
<glyph name="Otilde" format="2">
	<advance width="600"/>
	<unicode hex="00D5"/>
	<note>
		Otilde
	</note>
	<outline>
		<contour>
			<point x="369" y="682" type="curve" smooth="yes"/>
			<point x="316" y="682"/>
			<point x="299" y="755"/>
			<point x="227" y="755" type="curve" smooth="yes"/>
			<point x="198" y="755"/>
			<point x="161" y="732"/>
			<point x="113" y="677" type="curve"/>
			<point x="134" y="657" type="line"/>
			<point x="174" y="704"/>
			<point x="200" y="725"/>
			<point x="227" y="725" type="curve" smooth="yes"/>
			<point x="280" y="725"/>
			<point x="297" y="652"/>
			<point x="369" y="652" type="curve" smooth="yes"/>
			<point x="398" y="652"/>
			<point x="435" y="673"/>
			<point x="482" y="729" type="curve"/>
			<point x="461" y="749" type="line"/>
			<point x="422" y="701"/>
			<point x="396" y="682"/>
		</contour>
		<contour>
			<point x="300" y="603" type="curve" smooth="yes"/>
			<point x="134" y="603"/>
			<point x="21" y="458"/>
			<point x="23" y="296" type="curve" smooth="yes"/>
			<point x="25" y="120"/>
			<point x="142" y="-13"/>
			<point x="300" y="-13" type="curve" smooth="yes"/>
			<point x="458" y="-13"/>
			<point x="577" y="120"/>
			<point x="577" y="296" type="curve" smooth="yes"/>
			<point x="577" y="458"/>
			<point x="466" y="603"/>
		</contour>
		<contour>
			<point x="300" y="17" type="curve" smooth="yes"/>
			<point x="165" y="16"/>
			<point x="51" y="128"/>
			<point x="53" y="296" type="curve" smooth="yes"/>
			<point x="55" y="463"/>
			<point x="166" y="572"/>
			<point x="300" y="573" type="curve" smooth="yes"/>
			<point x="434" y="574"/>
			<point x="545" y="463"/>
			<point x="547" y="296" type="curve" smooth="yes"/>
			<point x="549" y="128"/>
			<point x="435" y="18"/>
		</contour>
	</outline>
</glyph>
<glyph name="multiply" format="2">
	<advance width="600"/>
	<unicode hex="00D7"/>
	<note>
		multiply
	</note>
	<outline>
		<contour>
			<point x="279" y="215" type="line"/>
			<point x="137" y="356" type="line"/>
			<point x="159" y="378" type="line"/>
			<point x="300" y="236" type="line"/>
			<point x="441" y="378" type="line"/>
			<point x="463" y="356" type="line"/>
			<point x="321" y="215" type="line"/>
			<point x="463" y="74" type="line"/>
			<point x="441" y="52" type="line"/>
			<point x="300" y="194" type="line"/>
			<point x="159" y="52" type="line"/>
			<point x="137" y="74" type="line"/>
		</contour>
	</outline>
</glyph>
<glyph name="aring" format="2">
	<advance width="600"/>
	<unicode hex="00E5"/>
	<note>
		aring
	</note>
	<outline>
		<contour>
			<point x="287" y="495" type="curve" smooth="yes"/>
			<point x="322" y="495"/>
			<point x="354" y="524"/>
			<point x="354" y="559" type="curve" smooth="yes"/>
			<point x="354" y="595"/>
			<point x="322" y="623"/>
			<point x="287" y="623" type="curve" smooth="yes"/>
			<point x="252" y="623"/>
			<point x="221" y="595"/>
			<point x="221" y="559" type="curve" smooth="yes"/>
			<point x="221" y="524"/>
			<point x="252" y="495"/>
		</contour>
		<contour>
			<point x="287" y="515" type="curve" smooth="yes"/>
			<point x="262" y="515"/>
			<point x="243" y="534"/>
			<point x="243" y="559" type="curve" smooth="yes"/>
			<point x="243" y="583"/>
			<point x="262" y="602"/>
			<point x="287" y="602" type="curve" smooth="yes"/>
			<point x="311" y="602"/>
			<point x="330" y="583"/>
			<point x="330" y="559" type="curve" smooth="yes"/>
			<point x="330" y="534"/>
			<point x="311" y="515"/>
		</contour>
		<contour>
			<point x="421" y="91" type="curve"/>
			<point x="421" y="67" type="line" smooth="yes"/>
			<point x="422" y="5"/>
			<point x="447" y="-13"/>
			<point x="476" y="-13" type="curve" smooth="yes"/>
			<point x="520" y="-13"/>
			<point x="541" y="44"/>
			<point x="569" y="107" type="curve"/>
			<point x="542" y="120" type="line"/>
			<point x="518" y="66"/>
			<point x="498" y="17"/>
			<point x="476" y="17" type="curve" smooth="yes"/>
			<point x="460" y="17"/>
			<point x="451" y="33"/>
			<point x="451" y="67" type="curve" smooth="yes"/>
			<point x="451" y="317" type="line" smooth="yes"/>
			<point x="451" y="404"/>
			<point x="351" y="443"/>
			<point x="255" y="443" type="curve" smooth="yes"/>
			<point x="171" y="443"/>
			<point x="80" y="396"/>
			<point x="80" y="330" type="curve" smooth="yes"/>
			<point x="80" y="298"/>
			<point x="96" y="271"/>
			<point x="129" y="271" type="curve" smooth="yes"/>
			<point x="160" y="271"/>
			<point x="184" y="285"/>
			<point x="184" y="321" type="curve" smooth="yes"/>
			<point x="184" y="348"/>
			<point x="159" y="360"/>
			<point x="140" y="360" type="curve" smooth="yes"/>
			<point x="134" y="360"/>
			<point x="120" y="357"/>
			<point x="112" y="352" type="curve"/>
			<point x="138" y="392"/>
			<point x="196" y="413"/>
			<point x="255" y="413" type="curve" smooth="yes"/>
			<point x="330" y="413"/>
			<point x="421" y="386"/>
			<point x="421" y="317" type="curve" smooth="yes"/>
			<point x="421" y="251"/>
			<point x="358" y="248"/>
			<point x="253" y="243" type="curve" smooth="yes"/>
			<point x="147" y="238"/>
			<point x="45" y="204"/>
			<point x="43" y="112" type="curve" smooth="yes"/>
			<point x="41" y="33"/>
			<point x="102" y="-13"/>
			<point x="184" y="-13" type="curve" smooth="yes"/>
			<point x="270" y="-13"/>
			<point x="336" y="22"/>
		</contour>
		<contour>
			<point x="73" y="112" type="curve" smooth="yes"/>
			<point x="73" y="181"/>
			<point x="164" y="213"/>
			<point x="253" y="213" type="curve" smooth="yes"/>
			<point x="313" y="213"/>
			<point x="391" y="219"/>
			<point x="421" y="251" type="curve"/>
			<point x="421" y="131" type="line"/>
			<point x="339" y="62"/>
			<point x="275" y="17"/>
			<point x="185" y="17" type="curve" smooth="yes"/>
			<point x="116" y="17"/>
			<point x="73" y="49"/>
		</contour>
	</outline>
</glyph>
<glyph name="ccedilla" format="2">
	<advance width="600"/>
	<unicode hex="00E7"/>
	<note>
		ccedilla
	</note>
	<outline>
		<contour>
			<point x="554" y="201" type="curve"/>
			<point x="524" y="205" type="line"/>
			<point x="506" y="91"/>
			<point x="422" y="17"/>
			<point x="305" y="17" type="curve" smooth="yes"/>
			<point x="178" y="17"/>
			<point x="89" y="101"/>
			<point x="89" y="219" type="curve" smooth="yes"/>
			<point x="89" y="339"/>
			<point x="164" y="413"/>
			<point x="281" y="413" type="curve" smooth="yes"/>
			<point x="357" y="413"/>
			<point x="439" y="370"/>
			<point x="443" y="310" type="curve"/>
			<point x="433" y="326"/>
			<point x="417" y="331"/>
			<point x="401" y="331" type="curve" smooth="yes"/>
			<point x="377" y="331"/>
			<point x="354" y="304"/>
			<point x="354" y="279" type="curve" smooth="yes"/>
			<point x="354" y="247"/>
			<point x="380" y="229"/>
			<point x="411" y="229" type="curve" smooth="yes"/>
			<point x="445" y="229"/>
			<point x="471" y="260"/>
			<point x="471" y="309" type="curve" smooth="yes"/>
			<point x="471" y="384"/>
			<point x="379" y="443"/>
			<point x="282" y="443" type="curve" smooth="yes"/>
			<point x="147" y="443"/>
			<point x="59" y="358"/>
			<point x="59" y="219" type="curve" smooth="yes"/>
			<point x="59" y="86"/>
			<point x="156" y="-9"/>
			<point x="297" y="-13" type="curve"/>
			<point x="297" y="-67" type="line"/>
			<point x="347" y="-70"/>
			<point x="379" y="-80"/>
			<point x="379" y="-108" type="curve" smooth="yes"/>
			<point x="379" y="-137"/>
			<point x="325" y="-150"/>
			<point x="277" y="-150" type="curve" smooth="yes"/>
			<point x="230" y="-150"/>
			<point x="164" y="-129"/>
			<point x="164" y="-83" type="curve"/>
			<point x="172" y="-92"/>
			<point x="180" y="-93"/>
			<point x="186" y="-93" type="curve" smooth="yes"/>
			<point x="198" y="-93"/>
			<point x="210" y="-82"/>
			<point x="210" y="-66" type="curve" smooth="yes"/>
			<point x="210" y="-50"/>
			<point x="194" y="-39"/>
			<point x="180" y="-39" type="curve" smooth="yes"/>
			<point x="158" y="-39"/>
			<point x="143" y="-56"/>
			<point x="143" y="-84" type="curve" smooth="yes"/>
			<point x="143" y="-138"/>
			<point x="208" y="-173"/>
			<point x="277" y="-173" type="curve" smooth="yes"/>
			<point x="332" y="-173"/>
			<point x="403" y="-156"/>
			<point x="403" y="-108" type="curve" smooth="yes"/>
			<point x="403" y="-68"/>
			<point x="365" y="-52"/>
			<point x="321" y="-47" type="curve"/>
			<point x="321" y="-13" type="line"/>
			<point x="444" y="-6"/>
			<point x="537" y="79"/>
		</contour>
	</outline>
</glyph>
<glyph name="iacute" format="2">
	<advance width="600"/>
	<unicode hex="00ED"/>
	<note>
		iacute
	</note>
	<outline>
		<contour>
			<point x="141" y="487" type="line"/>
			<point x="137" y="509" type="line"/>
			<point x="446" y="590" type="line"/>
			<point x="455" y="550" type="line"/>
		</contour>
		<contour>
			<point x="320" y="430" type="line"/>
			<point x="320" y="30" type="line"/>
			<point x="509" y="30" type="line"/>
			<point x="509" y="0" type="line"/>
			<point x="90" y="0" type="line"/>
			<point x="90" y="30" type="line"/>
			<point x="290" y="30" type="line"/>
			<point x="290" y="430" type="line"/>
		</contour>
	</outline>
</glyph>
<glyph name="eth" format="2">
	<advance width="600"/>
	<unicode hex="00F0"/>
	<note>
		eth
	</note>
	<outline>
		<contour>
			<point x="38" y="195" type="curve" smooth="yes"/>
			<point x="38" y="70"/>
			<point x="124" y="-13"/>
			<point x="244" y="-13" type="curve" smooth="yes"/>
			<point x="312" y="-13"/>
			<point x="382" y="44"/>
			<point x="433" y="109" type="curve"/>
			<point x="432" y="67" type="line"/>
			<point x="433" y="5"/>
			<point x="458" y="-13"/>
			<point x="487" y="-13" type="curve" smooth="yes"/>
			<point x="529" y="-13"/>
			<point x="552" y="44"/>
			<point x="580" y="107" type="curve"/>
			<point x="553" y="120" type="line"/>
			<point x="529" y="66"/>
			<point x="507" y="17"/>
			<point x="487" y="17" type="curve" smooth="yes"/>
			<point x="471" y="17"/>
			<point x="462" y="33"/>
			<point x="462" y="67" type="curve" smooth="yes"/>
			<point x="463" y="476" type="line"/>
			<point x="520" y="476" type="line"/>
			<point x="520" y="506" type="line"/>
			<point x="463" y="506" type="line"/>
			<point x="463" y="590" type="line"/>
			<point x="310" y="590" type="line"/>
			<point x="310" y="560" type="line"/>
			<point x="433" y="560" type="line"/>
			<point x="433" y="506" type="line"/>
			<point x="249" y="506" type="line"/>
			<point x="249" y="476" type="line"/>
			<point x="433" y="476" type="line"/>
			<point x="433" y="280" type="line"/>
			<point x="383" y="350"/>
			<point x="312" y="403"/>
			<point x="244" y="403" type="curve" smooth="yes"/>
			<point x="124" y="403"/>
			<point x="38" y="306"/>
		</contour>
		<contour>
			<point x="68" y="195" type="curve" smooth="yes"/>
			<point x="68" y="289"/>
			<point x="142" y="373"/>
			<point x="244" y="373" type="curve" smooth="yes"/>
			<point x="312" y="373"/>
			<point x="366" y="316"/>
			<point x="432" y="238" type="curve"/>
			<point x="432" y="152" type="line"/>
			<point x="368" y="78"/>
			<point x="312" y="17"/>
			<point x="244" y="17" type="curve" smooth="yes"/>
			<point x="142" y="17"/>
			<point x="68" y="84"/>
		</contour>
	</outline>
</glyph>
<glyph name="ntilde" format="2">
	<advance width="600"/>
	<unicode hex="00F1"/>
	<note>
		ntilde
	</note>
	<outline>
		<contour>
			<point x="366" y="510" type="curve" smooth="yes"/>
			<point x="313" y="510"/>
			<point x="296" y="583"/>
			<point x="224" y="583" type="curve" smooth="yes"/>
			<point x="195" y="583"/>
			<point x="158" y="560"/>
			<point x="110" y="505" type="curve"/>
			<point x="131" y="485" type="line"/>
			<point x="171" y="532"/>
			<point x="197" y="553"/>
			<point x="224" y="553" type="curve" smooth="yes"/>
			<point x="277" y="553"/>
			<point x="294" y="480"/>
			<point x="366" y="480" type="curve" smooth="yes"/>
			<point x="395" y="480"/>
			<point x="432" y="501"/>
			<point x="479" y="557" type="curve"/>
			<point x="458" y="577" type="line"/>
			<point x="419" y="529"/>
			<point x="393" y="510"/>
		</contour>
		<contour>
			<point x="132" y="363" type="curve" smooth="yes"/>
			<point x="132" y="30" type="line"/>
			<point x="44" y="30" type="line"/>
			<point x="44" y="0" type="line"/>
			<point x="246" y="0" type="line"/>
			<point x="246" y="30" type="line"/>
			<point x="162" y="30" type="line"/>
			<point x="162" y="261" type="line"/>
			<point x="270" y="369"/>
			<point x="300" y="413"/>
			<point x="354" y="413" type="curve" smooth="yes"/>
			<point x="413" y="413"/>
			<point x="450" y="377"/>
			<point x="450" y="310" type="curve" smooth="yes"/>
			<point x="450" y="30" type="line"/>
			<point x="366" y="30" type="line"/>
			<point x="366" y="0" type="line"/>
			<point x="567" y="0" type="line"/>
			<point x="567" y="30" type="line"/>
			<point x="480" y="30" type="line"/>
			<point x="480" y="310" type="line" smooth="yes"/>
			<point x="480" y="394"/>
			<point x="432" y="443"/>
			<point x="354" y="443" type="curve" smooth="yes"/>
			<point x="287" y="443"/>
			<point x="245" y="386"/>
			<point x="162" y="303" type="curve"/>
			<point x="162" y="363" type="line"/>
			<point x="161" y="425"/>
			<point x="136" y="443"/>
			<point x="107" y="443" type="curve" smooth="yes"/>
			<point x="63" y="443"/>
			<point x="42" y="386"/>
			<point x="14" y="323" type="curve"/>
			<point x="41" y="310" type="line"/>
			<point x="65" y="364"/>
			<point x="85" y="413"/>
			<point x="107" y="413" type="curve" smooth="yes"/>
			<point x="123" y="413"/>
			<point x="132" y="397"/>
		</contour>
	</outline>
</glyph>
<glyph name="oacute" format="2">
	<advance width="600"/>
	<unicode hex="00F3"/>
	<note>
		oacute
	</note>
	<outline>
		<contour>
			<point x="139" y="487" type="line"/>
			<point x="135" y="509" type="line"/>
			<point x="444" y="590" type="line"/>
			<point x="453" y="550" type="line"/>
		</contour>
		<contour>
			<point x="301" y="-13" type="curve" smooth="yes"/>
			<point x="427" y="-13"/>
			<point x="529" y="88"/>
			<point x="529" y="216" type="curve" smooth="yes"/>
			<point x="529" y="342"/>
			<point x="427" y="443"/>
			<point x="301" y="443" type="curve" smooth="yes"/>
			<point x="174" y="443"/>
			<point x="72" y="342"/>
			<point x="72" y="216" type="curve" smooth="yes"/>
			<point x="72" y="88"/>
			<point x="174" y="-13"/>
		</contour>
		<contour>
			<point x="301" y="17" type="curve" smooth="yes"/>
			<point x="191" y="17"/>
			<point x="102" y="105"/>
			<point x="102" y="216" type="curve" smooth="yes"/>
			<point x="102" y="325"/>
			<point x="191" y="413"/>
			<point x="301" y="413" type="curve" smooth="yes"/>
			<point x="410" y="413"/>
			<point x="499" y="325"/>
			<point x="499" y="216" type="curve" smooth="yes"/>
			<point x="499" y="105"/>
			<point x="410" y="17"/>
		</contour>
	</outline>
</glyph>
<glyph name="otilde" format="2">
	<advance width="600"/>
	<unicode hex="00F5"/>
	<note>
		otilde
	</note>
	<outline>
		<contour>
			<point x="370" y="535" type="curve" smooth="yes"/>
			<point x="317" y="535"/>
			<point x="300" y="608"/>
			<point x="228" y="608" type="curve" smooth="yes"/>
			<point x="199" y="608"/>
			<point x="162" y="585"/>
			<point x="114" y="530" type="curve"/>
			<point x="135" y="510" type="line"/>
			<point x="175" y="557"/>
			<point x="201" y="578"/>
			<point x="228" y="578" type="curve" smooth="yes"/>
			<point x="281" y="578"/>
			<point x="298" y="505"/>
			<point x="370" y="505" type="curve" smooth="yes"/>
			<point x="399" y="505"/>
			<point x="436" y="526"/>
			<point x="483" y="582" type="curve"/>
			<point x="462" y="602" type="line"/>
			<point x="423" y="554"/>
			<point x="397" y="535"/>
		</contour>
		<contour>
			<point x="301" y="-13" type="curve" smooth="yes"/>
			<point x="427" y="-13"/>
			<point x="529" y="88"/>
			<point x="529" y="216" type="curve" smooth="yes"/>
			<point x="529" y="342"/>
			<point x="427" y="443"/>
			<point x="301" y="443" type="curve" smooth="yes"/>
			<point x="174" y="443"/>
			<point x="72" y="342"/>
			<point x="72" y="216" type="curve" smooth="yes"/>
			<point x="72" y="88"/>
			<point x="174" y="-13"/>
		</contour>
		<contour>
			<point x="301" y="17" type="curve" smooth="yes"/>
			<point x="191" y="17"/>
			<point x="102" y="105"/>
			<point x="102" y="216" type="curve" smooth="yes"/>
			<point x="102" y="325"/>
			<point x="191" y="413"/>
			<point x="301" y="413" type="curve" smooth="yes"/>
			<point x="410" y="413"/>
			<point x="499" y="325"/>
			<point x="499" y="216" type="curve" smooth="yes"/>
			<point x="499" y="105"/>
			<point x="410" y="17"/>
		</contour>
	</outline>
</glyph>
<glyph name="yacute" format="2">
	<advance width="600"/>
	<unicode hex="00FD"/>
	<note>
		yacute
	</note>
	<outline>
		<contour>
			<point x="152" y="487" type="line"/>
			<point x="148" y="509" type="line"/>
			<point x="457" y="590" type="line"/>
			<point x="466" y="550" type="line"/>
		</contour>
		<contour>
			<point x="46" y="-40" type="curve" smooth="yes"/>
			<point x="48" y="-134"/>
			<point x="109" y="-173"/>
			<point x="169" y="-173" type="curve" smooth="yes"/>
			<point x="250" y="-173"/>
			<point x="290" y="-113"/>
			<point x="340" y="11" type="curve" smooth="yes"/>
			<point x="498" y="400" type="line"/>
			<point x="575" y="400" type="line"/>
			<point x="575" y="430" type="line"/>
			<point x="378" y="430" type="line"/>
			<point x="378" y="400" type="line"/>
			<point x="465" y="400" type="line"/>
			<point x="315" y="27" type="line"/>
			<point x="163" y="400" type="line"/>
			<point x="250" y="400" type="line"/>
			<point x="250" y="430" type="line"/>
			<point x="54" y="430" type="line"/>
			<point x="54" y="400" type="line"/>
			<point x="131" y="400" type="line"/>
			<point x="298" y="-9" type="line"/>
			<point x="276" y="-55" type="line" smooth="yes"/>
			<point x="244" y="-121"/>
			<point x="211" y="-143"/>
			<point x="169" y="-143" type="curve" smooth="yes"/>
			<point x="109" y="-143"/>
			<point x="77" y="-99"/>
			<point x="77" y="-43" type="curve"/>
			<point x="87" y="-60"/>
			<point x="109" y="-69"/>
			<point x="133" y="-69" type="curve" smooth="yes"/>
			<point x="158" y="-69"/>
			<point x="181" y="-44"/>
			<point x="181" y="-17" type="curve" smooth="yes"/>
			<point x="181" y="22"/>
			<point x="155" y="41"/>
			<point x="116" y="41" type="curve" smooth="yes"/>
			<point x="85" y="41"/>
			<point x="45" y="6"/>
		</contour>
	</outline>
</glyph>
<glyph name="ydieresis" format="2">
	<advance width="600"/>
	<unicode hex="00FF"/>
	<outline>
		<contour>
			<point x="46" y="-40" type="curve" smooth="yes"/>
			<point x="48" y="-134"/>
			<point x="109" y="-173"/>
			<point x="169" y="-173" type="curve" smooth="yes"/>
			<point x="250" y="-173"/>
			<point x="290" y="-113"/>
			<point x="340" y="11" type="curve" smooth="yes"/>
			<point x="498" y="400" type="line"/>
			<point x="575" y="400" type="line"/>
			<point x="575" y="430" type="line"/>
			<point x="378" y="430" type="line"/>
			<point x="378" y="400" type="line"/>
			<point x="465" y="400" type="line"/>
			<point x="315" y="27" type="line"/>
			<point x="163" y="400" type="line"/>
			<point x="250" y="400" type="line"/>
			<point x="250" y="430" type="line"/>
			<point x="54" y="430" type="line"/>
			<point x="54" y="400" type="line"/>
			<point x="131" y="400" type="line"/>
			<point x="298" y="-9" type="line"/>
			<point x="276" y="-55" type="line" smooth="yes"/>
			<point x="244" y="-121"/>
			<point x="211" y="-143"/>
			<point x="169" y="-143" type="curve" smooth="yes"/>
			<point x="109" y="-143"/>
			<point x="77" y="-99"/>
			<point x="77" y="-43" type="curve"/>
			<point x="87" y="-60"/>
			<point x="109" y="-69"/>
			<point x="133" y="-69" type="curve" smooth="yes"/>
			<point x="158" y="-69"/>
			<point x="181" y="-44"/>
			<point x="181" y="-17" type="curve" smooth="yes"/>
			<point x="181" y="22"/>
			<point x="155" y="41"/>
			<point x="116" y="41" type="curve" smooth="yes"/>
			<point x="85" y="41"/>
			<point x="45" y="6"/>
		</contour>
		<contour>
			<point x="230" y="488" type="curve" smooth="yes"/>
			<point x="258" y="488"/>
			<point x="281" y="512"/>
			<point x="281" y="539" type="curve" smooth="yes"/>
			<point x="281" y="566"/>
			<point x="258" y="590"/>
			<point x="230" y="590" type="curve" smooth="yes"/>
			<point x="202" y="590"/>
			<point x="178" y="566"/>
			<point x="178" y="539" type="curve" smooth="yes"/>
			<point x="178" y="512"/>
			<point x="202" y="488"/>
		</contour>
		<contour>
			<point x="411" y="488" type="curve" smooth="yes"/>
			<point x="439" y="488"/>
			<point x="462" y="512"/>
			<point x="462" y="539" type="curve" smooth="yes"/>
			<point x="462" y="566"/>
			<point x="439" y="590"/>
			<point x="411" y="590" type="curve" smooth="yes"/>
			<point x="383" y="590"/>
			<point x="359" y="566"/>
			<point x="359" y="539" type="curve" smooth="yes"/>
			<point x="359" y="512"/>
			<point x="383" y="488"/>
		</contour>
	</outline>
</glyph>
<glyph name="Eng" format="2">
	<advance width="600"/>
	<unicode hex="014A"/>
	<note>
		Eng
	</note>
	<outline>
		<contour>
			<point x="577" y="590" type="line"/>
			<point x="373" y="590" type="line"/>
			<point x="373" y="560" type="line"/>
			<point x="455" y="560" type="line"/>
			<point x="455" y="70" type="line"/>
			<point x="168" y="590" type="line"/>
			<point x="165" y="590" type="line" smooth="yes"/>
			<point x="117" y="590"/>
			<point x="78" y="593"/>
			<point x="30" y="603" type="curve"/>
			<point x="23" y="575" type="line"/>
			<point x="51" y="569"/>
			<point x="92" y="562"/>
			<point x="122" y="560" type="curve"/>
			<point x="122" y="30" type="line"/>
			<point x="30" y="30" type="line"/>
			<point x="30" y="0" type="line"/>
			<point x="234" y="0" type="line"/>
			<point x="234" y="30" type="line"/>
			<point x="152" y="30" type="line"/>
			<point x="153" y="554" type="line"/>
			<point x="454" y="16" type="line"/>
			<point x="451" y="-101"/>
			<point x="431" y="-143"/>
			<point x="376" y="-143" type="curve"/>
			<point x="393" y="-135"/>
			<point x="396" y="-121"/>
			<point x="396" y="-107" type="curve" smooth="yes"/>
			<point x="396" y="-84"/>
			<point x="374" y="-71"/>
			<point x="354" y="-71" type="curve" smooth="yes"/>
			<point x="326" y="-71"/>
			<point x="309" y="-92"/>
			<point x="309" y="-123" type="curve" smooth="yes"/>
			<point x="309" y="-148"/>
			<point x="338" y="-173"/>
			<point x="374" y="-173" type="curve" smooth="yes"/>
			<point x="453" y="-173"/>
			<point x="484" y="-114"/>
			<point x="485" y="33" type="curve" smooth="yes"/>
			<point x="485" y="560" type="line"/>
			<point x="577" y="560" type="line"/>
		</contour>
	</outline>
</glyph>
<glyph name="OE" format="2">
	<advance width="600"/>
	<unicode hex="0152"/>
	<note>
		OE
	</note>
	<outline>
		<contour>
			<point x="558" y="83" type="line"/>
			<point x="553" y="17" type="line"/>
			<point x="310" y="17" type="line"/>
			<point x="310" y="277" type="line"/>
			<point x="449" y="277" type="line"/>
			<point x="449" y="162" type="line"/>
			<point x="479" y="162" type="line"/>
			<point x="479" y="427" type="line"/>
			<point x="449" y="427" type="line"/>
			<point x="449" y="307" type="line"/>
			<point x="310" y="307" type="line"/>
			<point x="310" y="573" type="line"/>
			<point x="553" y="573" type="line"/>
			<point x="558" y="504" type="line"/>
			<point x="588" y="507" type="line"/>
			<point x="580" y="603" type="line"/>
			<point x="280" y="603" type="line" smooth="yes"/>
			<point x="120" y="603"/>
			<point x="9" y="465"/>
			<point x="9" y="295" type="curve" smooth="yes"/>
			<point x="9" y="125"/>
			<point x="120" y="-13"/>
			<point x="280" y="-13" type="curve" smooth="yes"/>
			<point x="580" y="-13" type="line"/>
			<point x="588" y="80" type="line"/>
		</contour>
		<contour>
			<point x="280" y="573" type="curve"/>
			<point x="280" y="17" type="line"/>
			<point x="142" y="17"/>
			<point x="39" y="140"/>
			<point x="39" y="295" type="curve" smooth="yes"/>
			<point x="39" y="450"/>
			<point x="142" y="573"/>
		</contour>
	</outline>
</glyph>
<glyph name="oe" format="2">
	<advance width="600"/>
	<unicode hex="0153"/>
	<note>
		oe
	</note>
	<outline>
		<contour>
			<point x="3" y="216" type="curve" smooth="yes"/>
			<point x="3" y="88"/>
			<point x="70" y="-13"/>
			<point x="162" y="-13" type="curve" smooth="yes"/>
			<point x="229" y="-13"/>
			<point x="284" y="41"/>
			<point x="307" y="120" type="curve"/>
			<point x="325" y="46"/>
			<point x="374" y="-13"/>
			<point x="443" y="-13" type="curve" smooth="yes"/>
			<point x="523" y="-13"/>
			<point x="549" y="43"/>
			<point x="603" y="136" type="curve"/>
			<point x="577" y="151" type="line"/>
			<point x="529" y="66"/>
			<point x="506" y="17"/>
			<point x="443" y="17" type="curve" smooth="yes"/>
			<point x="366" y="17"/>
			<point x="322" y="122"/>
			<point x="322" y="227" type="curve"/>
			<point x="585" y="227" type="line"/>
			<point x="585" y="238" type="line" smooth="yes"/>
			<point x="585" y="356"/>
			<point x="532" y="443"/>
			<point x="443" y="443" type="curve" smooth="yes"/>
			<point x="373" y="443"/>
			<point x="326" y="393"/>
			<point x="304" y="320" type="curve"/>
			<point x="279" y="393"/>
			<point x="227" y="443"/>
			<point x="162" y="443" type="curve" smooth="yes"/>
			<point x="70" y="443"/>
			<point x="3" y="342"/>
		</contour>
		<contour>
			<point x="33" y="216" type="curve" smooth="yes"/>
			<point x="33" y="325"/>
			<point x="87" y="413"/>
			<point x="162" y="413" type="curve" smooth="yes"/>
			<point x="237" y="413"/>
			<point x="290" y="325"/>
			<point x="290" y="216" type="curve" smooth="yes"/>
			<point x="290" y="105"/>
			<point x="237" y="17"/>
			<point x="162" y="17" type="curve" smooth="yes"/>
			<point x="87" y="17"/>
			<point x="33" y="105"/>
		</contour>
		<contour>
			<point x="555" y="257" type="curve"/>
			<point x="324" y="257" type="line"/>
			<point x="339" y="357"/>
			<point x="375" y="413"/>
			<point x="443" y="413" type="curve" smooth="yes"/>
			<point x="510" y="413"/>
			<point x="548" y="348"/>
		</contour>
	</outline>
</glyph>
<glyph name="scaron" format="2">
	<advance width="600"/>
	<unicode hex="0161"/>
	<note>
		scaron
	</note>
	<outline>
		<contour>
			<point x="502" y="592" type="line"/>
			<point x="296" y="486" type="line"/>
			<point x="91" y="592" type="line"/>
			<point x="96" y="609" type="line"/>
			<point x="296" y="524" type="line"/>
			<point x="496" y="609" type="line"/>
		</contour>
		<contour>
			<point x="287" y="-13" type="curve" smooth="yes"/>
			<point x="397" y="-13"/>
			<point x="504" y="26"/>
			<point x="504" y="111" type="curve" smooth="yes"/>
			<point x="504" y="182"/>
			<point x="447" y="219"/>
			<point x="332" y="226" type="curve" smooth="yes"/>
			<point x="266" y="230" type="line" smooth="yes"/>
			<point x="160" y="236"/>
			<point x="120" y="258"/>
			<point x="120" y="317" type="curve" smooth="yes"/>
			<point x="120" y="372"/>
			<point x="201" y="413"/>
			<point x="297" y="413" type="curve" smooth="yes"/>
			<point x="369" y="413"/>
			<point x="426" y="392"/>
			<point x="454" y="358" type="curve"/>
			<point x="416" y="368"/>
			<point x="388" y="343"/>
			<point x="388" y="318" type="curve" smooth="yes"/>
			<point x="388" y="284"/>
			<point x="416" y="271"/>
			<point x="439" y="271" type="curve" smooth="yes"/>
			<point x="475" y="271"/>
			<point x="490" y="298"/>
			<point x="490" y="333" type="curve" smooth="yes"/>
			<point x="490" y="395"/>
			<point x="400" y="443"/>
			<point x="298" y="443" type="curve" smooth="yes"/>
			<point x="189" y="443"/>
			<point x="90" y="394"/>
			<point x="90" y="316" type="curve" smooth="yes"/>
			<point x="90" y="231"/>
			<point x="156" y="207"/>
			<point x="265" y="200" type="curve" smooth="yes"/>
			<point x="327" y="196" type="line" smooth="yes"/>
			<point x="415" y="190"/>
			<point x="474" y="172"/>
			<point x="474" y="108" type="curve" smooth="yes"/>
			<point x="474" y="54"/>
			<point x="392" y="17"/>
			<point x="287" y="17" type="curve" smooth="yes"/>
			<point x="221" y="17"/>
			<point x="165" y="28"/>
			<point x="118" y="76" type="curve"/>
			<point x="148" y="64"/>
			<point x="182" y="83"/>
			<point x="182" y="116" type="curve" smooth="yes"/>
			<point x="182" y="144"/>
			<point x="162" y="163"/>
			<point x="130" y="163" type="curve" smooth="yes"/>
			<point x="106" y="163"/>
			<point x="80" y="143"/>
			<point x="80" y="110" type="curve" smooth="yes"/>
			<point x="81" y="26"/>
			<point x="186" y="-13"/>
		</contour>
	</outline>
</glyph>
<glyph name="florin" format="2">
	<advance width="600"/>
	<unicode hex="0192"/>
	<note>
		florin
	</note>
	<outline>
		<contour>
			<point x="294" y="280" type="line"/>
			<point x="267" y="98" type="line" smooth="yes"/>
			<point x="248" y="-31"/>
			<point x="208" y="-143"/>
			<point x="132" y="-143" type="curve" smooth="yes"/>
			<point x="69" y="-143"/>
			<point x="37" y="-83"/>
			<point x="40" y="-27" type="curve"/>
			<point x="48" y="-45"/>
			<point x="60" y="-56"/>
			<point x="85" y="-56" type="curve" smooth="yes"/>
			<point x="110" y="-56"/>
			<point x="132" y="-32"/>
			<point x="132" y="-10" type="curve" smooth="yes"/>
			<point x="132" y="23"/>
			<point x="109" y="44"/>
			<point x="76" y="44" type="curve" smooth="yes"/>
			<point x="44" y="44"/>
			<point x="14" y="7"/>
			<point x="14" y="-34" type="curve" smooth="yes"/>
			<point x="14" y="-104"/>
			<point x="53" y="-173"/>
			<point x="131" y="-173" type="curve" smooth="yes"/>
			<point x="233" y="-173"/>
			<point x="276" y="-33"/>
			<point x="296" y="98" type="curve" smooth="yes"/>
			<point x="324" y="280" type="line"/>
			<point x="449" y="280" type="line"/>
			<point x="449" y="310" type="line"/>
			<point x="329" y="310" type="line"/>
			<point x="354" y="460"/>
			<point x="387" y="573"/>
			<point x="463" y="573" type="curve" smooth="yes"/>
			<point x="526" y="573"/>
			<point x="558" y="513"/>
			<point x="555" y="457" type="curve"/>
			<point x="547" y="475"/>
			<point x="535" y="486"/>
			<point x="510" y="486" type="curve" smooth="yes"/>
			<point x="485" y="486"/>
			<point x="463" y="462"/>
			<point x="463" y="440" type="curve" smooth="yes"/>
			<point x="463" y="407"/>
			<point x="488" y="386"/>
			<point x="521" y="386" type="curve" smooth="yes"/>
			<point x="555" y="386"/>
			<point x="581" y="420"/>
			<point x="581" y="464" type="curve" smooth="yes"/>
			<point x="581" y="534"/>
			<point x="542" y="603"/>
			<point x="464" y="603" type="curve" smooth="yes"/>
			<point x="362" y="603"/>
			<point x="323" y="462"/>
			<point x="299" y="310" type="curve"/>
			<point x="189" y="310" type="line"/>
			<point x="189" y="280" type="line"/>
		</contour>
	</outline>
</glyph>
<glyph name="circumflex" format="2">
	<advance width="600"/>
	<unicode hex="02C6"/>
	<note>
		circumflex
	</note>
	<outline>
		<contour>
			<point x="94" y="485" type="line"/>
			<point x="299" y="591" type="line"/>
			<point x="505" y="485" type="line"/>
			<point x="499" y="472" type="line"/>
			<point x="299" y="555" type="line"/>
			<point x="99" y="472" type="line"/>
		</contour>
	</outline>
</glyph>
<glyph name="caron" format="2">
	<advance width="600"/>
	<unicode hex="02C7"/>
	<note>
		caron
	</note>
	<outline>
		<contour>
			<point x="505" y="577" type="line"/>
			<point x="299" y="471" type="line"/>
			<point x="94" y="577" type="line"/>
			<point x="99" y="590" type="line"/>
			<point x="299" y="507" type="line"/>
			<point x="499" y="590" type="line"/>
		</contour>
	</outline>
</glyph>
<glyph name="ring" format="2">
	<advance width="600"/>
	<unicode hex="02DA"/>
	<note>
		ring
	</note>
	<outline>
		<contour>
			<point x="299" y="485" type="curve" smooth="yes"/>
			<point x="334" y="485"/>
			<point x="366" y="514"/>
			<point x="366" y="549" type="curve" smooth="yes"/>
			<point x="366" y="585"/>
			<point x="334" y="613"/>
			<point x="299" y="613" type="curve" smooth="yes"/>
			<point x="264" y="613"/>
			<point x="233" y="585"/>
			<point x="233" y="549" type="curve" smooth="yes"/>
			<point x="233" y="514"/>
			<point x="264" y="485"/>
		</contour>
		<contour>
			<point x="299" y="505" type="curve" smooth="yes"/>
			<point x="274" y="505"/>
			<point x="255" y="524"/>
			<point x="255" y="549" type="curve" smooth="yes"/>
			<point x="255" y="573"/>
			<point x="274" y="592"/>
			<point x="299" y="592" type="curve" smooth="yes"/>
			<point x="323" y="592"/>
			<point x="342" y="573"/>
			<point x="342" y="549" type="curve" smooth="yes"/>
			<point x="342" y="524"/>
			<point x="323" y="505"/>
		</contour>
	</outline>
</glyph>
<glyph name="tilde" format="2">
	<advance width="600"/>
	<unicode hex="02DC"/>
	<note>
		tilde
	</note>
	<outline>
		<contour>
			<point x="369" y="525" type="curve" smooth="yes"/>
			<point x="316" y="525"/>
			<point x="299" y="598"/>
			<point x="227" y="598" type="curve" smooth="yes"/>
			<point x="198" y="598"/>
			<point x="161" y="575"/>
			<point x="113" y="520" type="curve"/>
			<point x="134" y="500" type="line"/>
			<point x="174" y="547"/>
			<point x="200" y="568"/>
			<point x="227" y="568" type="curve" smooth="yes"/>
			<point x="280" y="568"/>
			<point x="297" y="495"/>
			<point x="369" y="495" type="curve" smooth="yes"/>
			<point x="398" y="495"/>
			<point x="435" y="516"/>
			<point x="482" y="572" type="curve"/>
			<point x="461" y="592" type="line"/>
			<point x="422" y="544"/>
			<point x="396" y="525"/>
		</contour>
	</outline>
</glyph>
<glyph name="hungarumlaut" format="2">
	<advance width="600"/>
	<unicode hex="02DD"/>
	<note>
		hungarumlaut
	</note>
	<outline>
		<contour>
			<point x="90" y="482" type="line"/>
			<point x="86" y="492" type="line"/>
			<point x="307" y="580" type="line"/>
			<point x="315" y="556" type="line"/>
		</contour>
		<contour>
			<point x="297" y="482" type="line"/>
			<point x="293" y="492" type="line"/>
			<point x="514" y="580" type="line"/>
			<point x="522" y="556" type="line"/>
		</contour>
	</outline>
</glyph>
<glyph name="uni0394" format="2">
	<advance width="600"/>
	<unicode hex="0394"/>
	<note>
		uni0394
	</note>
	<outline>
		<contour>
			<point x="66" y="0" type="line"/>
			<point x="66" y="42" type="line"/>
			<point x="276" y="590" type="line"/>
			<point x="318" y="590" type="line"/>
			<point x="527" y="42" type="line"/>
			<point x="527" y="0" type="line"/>
		</contour>
		<contour>
			<point x="297" y="562" type="line"/>
			<point x="94" y="30" type="line"/>
			<point x="500" y="30" type="line"/>
		</contour>
	</outline>
</glyph>
<glyph name="uni03A9" format="2">
	<advance width="600"/>
	<unicode hex="03A9"/>
	<note>
		uni03A9
	</note>
	<outline>
		<contour>
			<point x="42" y="30" type="line"/>
			<point x="42" y="0" type="line"/>
			<point x="241" y="0" type="line"/>
			<point x="241" y="32" type="line"/>
			<point x="164" y="157"/>
			<point x="77" y="264"/>
			<point x="77" y="366" type="curve" smooth="yes"/>
			<point x="77" y="480"/>
			<point x="173" y="573"/>
			<point x="298" y="573" type="curve" smooth="yes"/>
			<point x="423" y="573"/>
			<point x="519" y="480"/>
			<point x="519" y="366" type="curve" smooth="yes"/>
			<point x="519" y="264"/>
			<point x="432" y="157"/>
			<point x="355" y="32" type="curve"/>
			<point x="355" y="0" type="line"/>
			<point x="554" y="0" type="line"/>
			<point x="554" y="30" type="line"/>
			<point x="390" y="30" type="line"/>
			<point x="486" y="184"/>
			<point x="549" y="263"/>
			<point x="549" y="365" type="curve" smooth="yes"/>
			<point x="549" y="500"/>
			<point x="439" y="603"/>
			<point x="298" y="603" type="curve" smooth="yes"/>
			<point x="157" y="603"/>
			<point x="47" y="500"/>
			<point x="47" y="365" type="curve" smooth="yes"/>
			<point x="47" y="263"/>
			<point x="110" y="184"/>
			<point x="206" y="30" type="curve"/>
		</contour>
	</outline>
</glyph>
<glyph name="quoteleft" format="2">
	<advance width="600"/>
	<unicode hex="2018"/>
	<note>
		quoteleft
	</note>
	<outline>
		<contour>
			<point x="186" y="447" type="curve" smooth="yes"/>
			<point x="153" y="447"/>
			<point x="126" y="419"/>
			<point x="126" y="391" type="curve" smooth="yes"/>
			<point x="126" y="372"/>
			<point x="132" y="355"/>
			<point x="143" y="346" type="curve"/>
			<point x="114" y="355"/>
			<point x="91" y="398"/>
			<point x="91" y="440" type="curve" smooth="yes"/>
			<point x="91" y="505"/>
			<point x="149" y="571"/>
			<point x="216" y="578" type="curve"/>
			<point x="212" y="603" type="line"/>
			<point x="140" y="596"/>
			<point x="66" y="525"/>
			<point x="66" y="440" type="curve" smooth="yes"/>
			<point x="66" y="365"/>
			<point x="113" y="310"/>
			<point x="174" y="310" type="curve" smooth="yes"/>
			<point x="214" y="310"/>
			<point x="252" y="338"/>
			<point x="252" y="379" type="curve" smooth="yes"/>
			<point x="252" y="418"/>
			<point x="223" y="447"/>
		</contour>
	</outline>
</glyph>
<glyph name="quotedblbase" format="2">
	<advance width="600"/>
	<unicode hex="201E"/>
	<note>
		quotedblbase
	</note>
	<outline>
		<contour>
			<point x="294" y="125" type="curve" smooth="yes"/>
			<point x="254" y="125"/>
			<point x="216" y="97"/>
			<point x="216" y="56" type="curve" smooth="yes"/>
			<point x="216" y="17"/>
			<point x="245" y="-12"/>
			<point x="282" y="-12" type="curve" smooth="yes"/>
			<point x="315" y="-12"/>
			<point x="342" y="16"/>
			<point x="342" y="44" type="curve" smooth="yes"/>
			<point x="342" y="63"/>
			<point x="336" y="80"/>
			<point x="325" y="89" type="curve"/>
			<point x="354" y="80"/>
			<point x="377" y="37"/>
			<point x="377" y="-5" type="curve" smooth="yes"/>
			<point x="377" y="-70"/>
			<point x="319" y="-136"/>
			<point x="252" y="-143" type="curve"/>
			<point x="256" y="-168" type="line"/>
			<point x="328" y="-161"/>
			<point x="402" y="-90"/>
			<point x="402" y="-5" type="curve" smooth="yes"/>
			<point x="402" y="70"/>
			<point x="355" y="125"/>
		</contour>
	</outline>
</glyph>
<glyph name="daggerdbl" format="2">
	<advance width="600"/>
	<unicode hex="2021"/>
	<note>
		daggerdbl
	</note>
	<outline>
		<contour>
			<point x="525" y="118" type="curve" smooth="yes"/>
			<point x="498" y="137"/>
			<point x="463" y="134"/>
			<point x="445" y="112" type="curve" smooth="yes"/>
			<point x="427" y="89"/>
			<point x="440" y="54"/>
			<point x="456" y="42" type="curve" smooth="yes"/>
			<point x="468" y="33"/>
			<point x="483" y="32"/>
			<point x="499" y="38" type="curve"/>
			<point x="454" y="-15"/>
			<point x="389" y="9"/>
			<point x="331" y="47" type="curve"/>
			<point x="318" y="215" type="line"/>
			<point x="328" y="344" type="line"/>
			<point x="397" y="303"/>
			<point x="475" y="285"/>
			<point x="528" y="353" type="curve" smooth="yes"/>
			<point x="553" y="385"/>
			<point x="549" y="430"/>
			<point x="525" y="447" type="curve" smooth="yes"/>
			<point x="498" y="466"/>
			<point x="463" y="463"/>
			<point x="445" y="441" type="curve" smooth="yes"/>
			<point x="427" y="418"/>
			<point x="440" y="383"/>
			<point x="456" y="371" type="curve" smooth="yes"/>
			<point x="468" y="362"/>
			<point x="483" y="361"/>
			<point x="499" y="367" type="curve"/>
			<point x="454" y="314"/>
			<point x="389" y="338"/>
			<point x="331" y="377" type="curve"/>
			<point x="332" y="395" type="line"/>
			<point x="335" y="428" type="line" smooth="yes"/>
			<point x="337" y="453"/>
			<point x="337" y="480"/>
			<point x="328" y="496" type="curve"/>
			<point x="346" y="506"/>
			<point x="358" y="525"/>
			<point x="358" y="546" type="curve" smooth="yes"/>
			<point x="358" y="577"/>
			<point x="333" y="603"/>
			<point x="301" y="603" type="curve" smooth="yes"/>
			<point x="269" y="603"/>
			<point x="243" y="577"/>
			<point x="243" y="546" type="curve" smooth="yes"/>
			<point x="243" y="526"/>
			<point x="255" y="506"/>
			<point x="273" y="496" type="curve"/>
			<point x="264" y="480"/>
			<point x="263" y="454"/>
			<point x="265" y="428" type="curve"/>
			<point x="266" y="420" type="line"/>
			<point x="199" y="457"/>
			<point x="124" y="471"/>
			<point x="73" y="406" type="curve" smooth="yes"/>
			<point x="48" y="374"/>
			<point x="52" y="329"/>
			<point x="76" y="312" type="curve" smooth="yes"/>
			<point x="103" y="293"/>
			<point x="138" y="296"/>
			<point x="156" y="318" type="curve" smooth="yes"/>
			<point x="174" y="341"/>
			<point x="161" y="376"/>
			<point x="145" y="388" type="curve" smooth="yes"/>
			<point x="133" y="397"/>
			<point x="118" y="398"/>
			<point x="102" y="392" type="curve"/>
			<point x="147" y="444"/>
			<point x="210" y="422"/>
			<point x="268" y="384" type="curve"/>
			<point x="282" y="215" type="line"/>
			<point x="272" y="87" type="line"/>
			<point x="203" y="127"/>
			<point x="126" y="144"/>
			<point x="73" y="77" type="curve" smooth="yes"/>
			<point x="48" y="45"/>
			<point x="52" y="0"/>
			<point x="76" y="-17" type="curve" smooth="yes"/>
			<point x="103" y="-36"/>
			<point x="138" y="-33"/>
			<point x="156" y="-11" type="curve" smooth="yes"/>
			<point x="174" y="12"/>
			<point x="161" y="47"/>
			<point x="145" y="59" type="curve" smooth="yes"/>
			<point x="133" y="68"/>
			<point x="118" y="69"/>
			<point x="102" y="63" type="curve"/>
			<point x="147" y="115"/>
			<point x="211" y="93"/>
			<point x="269" y="54" type="curve"/>
			<point x="265" y="2" type="line" smooth="yes"/>
			<point x="263" y="-24"/>
			<point x="264" y="-50"/>
			<point x="273" y="-66" type="curve"/>
			<point x="255" y="-76"/>
			<point x="243" y="-96"/>
			<point x="243" y="-116" type="curve" smooth="yes"/>
			<point x="243" y="-147"/>
			<point x="269" y="-173"/>
			<point x="301" y="-173" type="curve" smooth="yes"/>
			<point x="333" y="-173"/>
			<point x="358" y="-147"/>
			<point x="358" y="-116" type="curve" smooth="yes"/>
			<point x="358" y="-95"/>
			<point x="346" y="-76"/>
			<point x="328" y="-66" type="curve"/>
			<point x="337" y="-50"/>
			<point x="337" y="-23"/>
			<point x="335" y="2" type="curve" smooth="yes"/>
			<point x="334" y="11" type="line"/>
			<point x="401" y="-27"/>
			<point x="476" y="-42"/>
			<point x="528" y="24" type="curve" smooth="yes"/>
			<point x="553" y="56"/>
			<point x="549" y="101"/>
		</contour>
	</outline>
</glyph>
<glyph name="guilsinglright" format="2">
	<advance width="600"/>
	<unicode hex="203A"/>
	<note>
		guilsinglright
	</note>
	<outline>
		<contour>
			<point x="414" y="253" type="curve"/>
			<point x="362" y="298"/>
			<point x="271" y="362"/>
			<point x="210" y="443" type="curve"/>
			<point x="187" y="419" type="line"/>
			<point x="252" y="338"/>
			<point x="312" y="293"/>
			<point x="363" y="253" type="curve"/>
			<point x="312" y="213"/>
			<point x="252" y="168"/>
			<point x="187" y="87" type="curve"/>
			<point x="210" y="63" type="line"/>
			<point x="271" y="144"/>
			<point x="362" y="208"/>
		</contour>
	</outline>
</glyph>
<glyph name="seveneighths" format="2">
	<advance width="600"/>
	<unicode hex="215E"/>
	<note>
		seveneighths
	</note>
	<outline>
		<contour>
			<point x="62" y="516" type="line"/>
			<point x="86" y="518" type="line"/>
			<point x="84" y="537" type="line"/>
			<point x="101" y="565"/>
			<point x="119" y="579"/>
			<point x="138" y="579" type="curve" smooth="yes"/>
			<point x="167" y="579"/>
			<point x="188" y="553"/>
			<point x="220" y="553" type="curve" smooth="yes"/>
			<point x="233" y="553"/>
			<point x="244" y="554"/>
			<point x="257" y="565" type="curve"/>
			<point x="223" y="496"/>
			<point x="160" y="432"/>
			<point x="160" y="352" type="curve" smooth="yes"/>
			<point x="160" y="327" type="line"/>
			<point x="184" y="327" type="line"/>
			<point x="184" y="352" type="line" smooth="yes"/>
			<point x="184" y="432"/>
			<point x="256" y="496"/>
			<point x="284" y="566" type="curve"/>
			<point x="293" y="585" type="line"/>
			<point x="268" y="597" type="line"/>
			<point x="257" y="586"/>
			<point x="239" y="577"/>
			<point x="220" y="577" type="curve" smooth="yes"/>
			<point x="189" y="577"/>
			<point x="171" y="603"/>
			<point x="138" y="603" type="curve" smooth="yes"/>
			<point x="118" y="603"/>
			<point x="99" y="596"/>
			<point x="82" y="570" type="curve"/>
			<point x="79" y="598" type="line"/>
			<point x="55" y="596" type="line"/>
		</contour>
		<contour>
			<point x="532" y="590" type="line"/>
			<point x="512" y="603" type="line"/>
			<point x="81" y="1" type="line"/>
			<point x="101" y="-13" type="line"/>
		</contour>
		<contour>
			<point x="459" y="273" type="curve" smooth="yes"/>
			<point x="516" y="273"/>
			<point x="548" y="237"/>
			<point x="548" y="202" type="curve" smooth="yes"/>
			<point x="548" y="161"/>
			<point x="517" y="143"/>
			<point x="500" y="142" type="curve"/>
			<point x="521" y="142"/>
			<point x="562" y="112"/>
			<point x="562" y="71" type="curve" smooth="yes"/>
			<point x="562" y="17"/>
			<point x="516" y="-13"/>
			<point x="459" y="-13" type="curve" smooth="yes"/>
			<point x="402" y="-13"/>
			<point x="356" y="17"/>
			<point x="356" y="71" type="curve" smooth="yes"/>
			<point x="356" y="112"/>
			<point x="397" y="142"/>
			<point x="418" y="142" type="curve"/>
			<point x="401" y="143"/>
			<point x="370" y="161"/>
			<point x="370" y="202" type="curve" smooth="yes"/>
			<point x="370" y="237"/>
			<point x="402" y="273"/>
		</contour>
		<contour>
			<point x="459" y="153" type="curve" smooth="yes"/>
			<point x="501" y="153"/>
			<point x="524" y="174"/>
			<point x="524" y="202" type="curve" smooth="yes"/>
			<point x="524" y="229"/>
			<point x="497" y="249"/>
			<point x="459" y="249" type="curve" smooth="yes"/>
			<point x="421" y="249"/>
			<point x="394" y="229"/>
			<point x="394" y="202" type="curve" smooth="yes"/>
			<point x="394" y="174"/>
			<point x="417" y="153"/>
		</contour>
		<contour>
			<point x="459" y="11" type="curve" smooth="yes"/>
			<point x="507" y="11"/>
			<point x="538" y="32"/>
			<point x="538" y="71" type="curve" smooth="yes"/>
			<point x="538" y="106"/>
			<point x="502" y="132"/>
			<point x="459" y="132" type="curve" smooth="yes"/>
			<point x="416" y="132"/>
			<point x="380" y="106"/>
			<point x="380" y="71" type="curve" smooth="yes"/>
			<point x="380" y="32"/>
			<point x="411" y="11"/>
		</contour>
	</outline>
</glyph>
<glyph name="arrowup" format="2">
	<advance width="600"/>
	<unicode hex="2191"/>
	<note>
		arrowup
	</note>
	<outline>
		<contour>
			<point x="310" y="572" type="curve"/>
			<point x="290" y="572" type="line"/>
			<point x="250" y="489"/>
			<point x="194" y="413"/>
			<point x="118" y="371" type="curve"/>
			<point x="135" y="349" type="line"/>
			<point x="201" y="385"/>
			<point x="265" y="459"/>
			<point x="285" y="512" type="curve"/>
			<point x="284" y="0" type="line"/>
			<point x="314" y="0" type="line"/>
			<point x="315" y="512" type="line"/>
			<point x="335" y="459"/>
			<point x="399" y="385"/>
			<point x="465" y="349" type="curve"/>
			<point x="482" y="371" type="line"/>
			<point x="406" y="413"/>
			<point x="350" y="489"/>
		</contour>
	</outline>
</glyph>
<glyph name="arrowright" format="2">
	<advance width="600"/>
	<unicode hex="2192"/>
	<note>
		arrowright
	</note>
	<outline>
		<contour>
			<point x="586" y="204" type="curve"/>
			<point x="586" y="224" type="line"/>
			<point x="503" y="264"/>
			<point x="427" y="320"/>
			<point x="385" y="396" type="curve"/>
			<point x="363" y="379" type="line"/>
			<point x="399" y="313"/>
			<point x="473" y="249"/>
			<point x="526" y="229" type="curve"/>
			<point x="14" y="228" type="line"/>
			<point x="14" y="198" type="line"/>
			<point x="526" y="199" type="line"/>
			<point x="473" y="179"/>
			<point x="399" y="115"/>
			<point x="363" y="49" type="curve"/>
			<point x="385" y="32" type="line"/>
			<point x="427" y="108"/>
			<point x="503" y="164"/>
		</contour>
	</outline>
</glyph>
<glyph name="uni2196" format="2">
	<advance width="600"/>
	<unicode hex="2196"/>
	<note>
		uni2196
	</note>
	<outline>
		<contour>
			<point x="113" y="416" type="curve"/>
			<point x="99" y="402" type="line"/>
			<point x="129" y="315"/>
			<point x="143" y="221"/>
			<point x="119" y="138" type="curve"/>
			<point x="147" y="134" type="line"/>
			<point x="168" y="206"/>
			<point x="161" y="304"/>
			<point x="138" y="356" type="curve"/>
			<point x="499" y="-7" type="line"/>
			<point x="520" y="14" type="line"/>
			<point x="159" y="377" type="line"/>
			<point x="210" y="354"/>
			<point x="308" y="346"/>
			<point x="380" y="368" type="curve"/>
			<point x="377" y="395" type="line"/>
			<point x="293" y="371"/>
			<point x="200" y="385"/>
		</contour>
	</outline>
</glyph>
<glyph name="uni2197" format="2">
	<advance width="600"/>
	<unicode hex="2197"/>
	<note>
		uni2197
	</note>
	<outline>
		<contour>
			<point x="501" y="403" type="curve"/>
			<point x="487" y="417" type="line"/>
			<point x="400" y="386"/>
			<point x="307" y="372"/>
			<point x="223" y="396" type="curve"/>
			<point x="220" y="369" type="line"/>
			<point x="292" y="347"/>
			<point x="390" y="355"/>
			<point x="441" y="378" type="curve"/>
			<point x="80" y="15" type="line"/>
			<point x="101" y="-6" type="line"/>
			<point x="462" y="357" type="line"/>
			<point x="439" y="305"/>
			<point x="432" y="207"/>
			<point x="453" y="135" type="curve"/>
			<point x="481" y="139" type="line"/>
			<point x="457" y="222"/>
			<point x="471" y="316"/>
		</contour>
	</outline>
</glyph>
<glyph name="uni2199" format="2">
	<advance width="600"/>
	<unicode hex="2199"/>
	<note>
		uni2199
	</note>
	<outline>
		<contour>
			<point x="96" y="17" type="curve"/>
			<point x="110" y="3" type="line"/>
			<point x="197" y="33"/>
			<point x="291" y="47"/>
			<point x="374" y="23" type="curve"/>
			<point x="378" y="51" type="line"/>
			<point x="306" y="72"/>
			<point x="208" y="65"/>
			<point x="156" y="42" type="curve"/>
			<point x="519" y="403" type="line"/>
			<point x="498" y="424" type="line"/>
			<point x="135" y="63" type="line"/>
			<point x="158" y="114"/>
			<point x="166" y="212"/>
			<point x="144" y="284" type="curve"/>
			<point x="117" y="281" type="line"/>
			<point x="141" y="197"/>
			<point x="127" y="104"/>
		</contour>
	</outline>
</glyph>
<glyph name="product" format="2">
	<advance width="600"/>
	<unicode hex="220F"/>
	<note>
		product
	</note>
	<outline>
		<contour>
			<point x="151" y="560" type="line"/>
			<point x="75" y="560" type="line"/>
			<point x="75" y="590" type="line"/>
			<point x="526" y="590" type="line"/>
			<point x="526" y="560" type="line"/>
			<point x="450" y="560" type="line"/>
			<point x="450" y="-160" type="line"/>
			<point x="420" y="-160" type="line"/>
			<point x="420" y="560" type="line"/>
			<point x="181" y="560" type="line"/>
			<point x="181" y="-160" type="line"/>
			<point x="151" y="-160" type="line"/>
		</contour>
	</outline>
</glyph>
<glyph name="infinity" format="2">
	<advance width="600"/>
	<unicode hex="221E"/>
	<note>
		infinity
	</note>
	<outline>
		<contour>
			<point x="27" y="115" type="curve" smooth="yes"/>
			<point x="27" y="45"/>
			<point x="92" y="-13"/>
			<point x="163" y="-13" type="curve" smooth="yes"/>
			<point x="222" y="-13"/>
			<point x="259" y="35"/>
			<point x="300" y="89" type="curve"/>
			<point x="341" y="35"/>
			<point x="378" y="-13"/>
			<point x="437" y="-13" type="curve" smooth="yes"/>
			<point x="508" y="-13"/>
			<point x="573" y="45"/>
			<point x="573" y="115" type="curve" smooth="yes"/>
			<point x="573" y="183"/>
			<point x="512" y="245"/>
			<point x="437" y="245" type="curve" smooth="yes"/>
			<point x="382" y="245"/>
			<point x="340" y="198"/>
			<point x="300" y="141" type="curve"/>
			<point x="260" y="198"/>
			<point x="218" y="245"/>
			<point x="163" y="245" type="curve" smooth="yes"/>
			<point x="88" y="245"/>
			<point x="27" y="183"/>
		</contour>
		<contour>
			<point x="57" y="115" type="curve" smooth="yes"/>
			<point x="57" y="170"/>
			<point x="109" y="215"/>
			<point x="164" y="215" type="curve" smooth="yes"/>
			<point x="209" y="215"/>
			<point x="245" y="168"/>
			<point x="282" y="116" type="curve"/>
			<point x="245" y="64"/>
			<point x="209" y="17"/>
			<point x="164" y="17" type="curve" smooth="yes"/>
			<point x="110" y="17"/>
			<point x="57" y="62"/>
		</contour>
		<contour>
			<point x="318" y="116" type="curve"/>
			<point x="355" y="168"/>
			<point x="391" y="215"/>
			<point x="436" y="215" type="curve" smooth="yes"/>
			<point x="491" y="215"/>
			<point x="543" y="170"/>
			<point x="543" y="115" type="curve" smooth="yes"/>
			<point x="543" y="62"/>
			<point x="490" y="17"/>
			<point x="436" y="17" type="curve" smooth="yes"/>
			<point x="391" y="17"/>
			<point x="355" y="64"/>
		</contour>
	</outline>
</glyph>
<glyph name="approxequal" format="2">
	<advance width="600"/>
	<unicode hex="2248"/>
	<note>
		approxequal
	</note>
	<outline>
		<contour>
			<point x="398" y="239" type="curve" smooth="yes"/>
			<point x="466" y="239"/>
			<point x="506" y="292"/>
			<point x="506" y="396" type="curve" smooth="yes"/>
			<point x="506" y="430" type="line"/>
			<point x="476" y="430" type="line"/>
			<point x="476" y="396" type="line" smooth="yes"/>
			<point x="476" y="314"/>
			<point x="446" y="269"/>
			<point x="398" y="269" type="curve" smooth="yes"/>
			<point x="359" y="269"/>
			<point x="341" y="289"/>
			<point x="317" y="345" type="curve" smooth="yes"/>
			<point x="293" y="401"/>
			<point x="267" y="443"/>
			<point x="204" y="443" type="curve" smooth="yes"/>
			<point x="136" y="443"/>
			<point x="91" y="388"/>
			<point x="91" y="285" type="curve" smooth="yes"/>
			<point x="91" y="250" type="line"/>
			<point x="121" y="250" type="line"/>
			<point x="121" y="285" type="line" smooth="yes"/>
			<point x="121" y="366"/>
			<point x="157" y="413"/>
			<point x="204" y="413" type="curve" smooth="yes"/>
			<point x="240" y="413"/>
			<point x="262" y="393"/>
			<point x="290" y="331" type="curve" smooth="yes"/>
			<point x="315" y="275"/>
			<point x="343" y="239"/>
		</contour>
		<contour>
			<point x="398" y="17" type="curve" smooth="yes"/>
			<point x="466" y="17"/>
			<point x="506" y="70"/>
			<point x="506" y="174" type="curve" smooth="yes"/>
			<point x="506" y="208" type="line"/>
			<point x="476" y="208" type="line"/>
			<point x="476" y="174" type="line" smooth="yes"/>
			<point x="476" y="92"/>
			<point x="446" y="47"/>
			<point x="398" y="47" type="curve" smooth="yes"/>
			<point x="359" y="47"/>
			<point x="341" y="67"/>
			<point x="317" y="123" type="curve" smooth="yes"/>
			<point x="293" y="179"/>
			<point x="267" y="221"/>
			<point x="204" y="221" type="curve" smooth="yes"/>
			<point x="136" y="221"/>
			<point x="91" y="166"/>
			<point x="91" y="63" type="curve" smooth="yes"/>
			<point x="91" y="28" type="line"/>
			<point x="121" y="28" type="line"/>
			<point x="121" y="63" type="line" smooth="yes"/>
			<point x="121" y="144"/>
			<point x="157" y="191"/>
			<point x="204" y="191" type="curve" smooth="yes"/>
			<point x="240" y="191"/>
			<point x="262" y="171"/>
			<point x="290" y="109" type="curve" smooth="yes"/>
			<point x="315" y="53"/>
			<point x="343" y="17"/>
		</contour>
	</outline>
</glyph>
<glyph name="greaterequal" format="2">
	<advance width="600"/>
	<unicode hex="2265"/>
	<note>
		greaterequal
	</note>
	<outline>
		<contour>
			<point x="95" y="526" type="line"/>
			<point x="514" y="371" type="line"/>
			<point x="514" y="333" type="line"/>
			<point x="95" y="178" type="line"/>
			<point x="85" y="205" type="line"/>
			<point x="485" y="352" type="line"/>
			<point x="85" y="499" type="line"/>
		</contour>
		<contour>
			<point x="515" y="34" type="line"/>
			<point x="85" y="34" type="line"/>
			<point x="85" y="64" type="line"/>
			<point x="515" y="64" type="line"/>
		</contour>
	</outline>
</glyph>
<glyph name="lozenge" format="2">
	<advance width="600"/>
	<unicode hex="25CA"/>
	<note>
		lozenge
	</note>
	<outline>
		<contour>
			<point x="285" y="-13" type="line"/>
			<point x="135" y="295" type="line"/>
			<point x="285" y="603" type="line"/>
			<point x="318" y="603" type="line"/>
			<point x="466" y="295" type="line"/>
			<point x="318" y="-13" type="line"/>
		</contour>
		<contour>
			<point x="301" y="571" type="line"/>
			<point x="168" y="295" type="line"/>
			<point x="301" y="19" type="line"/>
			<point x="433" y="295" type="line"/>
		</contour>
	</outline>
</glyph>
<glyph name="ff" format="2">
	<advance width="600"/>
	<unicode hex="FB00"/>
	<note>
		ff
	</note>
	<outline>
		<contour>
			<point x="447" y="603" type="curve" smooth="yes"/>
			<point x="403" y="603"/>
			<point x="365" y="587"/>
			<point x="339" y="555" type="curve"/>
			<point x="312" y="585"/>
			<point x="272" y="603"/>
			<point x="227" y="603" type="curve" smooth="yes"/>
			<point x="142" y="603"/>
			<point x="81" y="542"/>
			<point x="77" y="430" type="curve"/>
			<point x="23" y="430" type="line"/>
			<point x="23" y="400" type="line"/>
			<point x="76" y="400" type="line"/>
			<point x="76" y="30" type="line"/>
			<point x="23" y="30" type="line"/>
			<point x="23" y="0" type="line"/>
			<point x="186" y="0" type="line"/>
			<point x="186" y="30" type="line"/>
			<point x="106" y="30" type="line"/>
			<point x="106" y="400" type="line"/>
			<point x="196" y="400" type="line"/>
			<point x="196" y="430" type="line"/>
			<point x="107" y="430" type="line"/>
			<point x="111" y="522"/>
			<point x="155" y="573"/>
			<point x="226" y="573" type="curve" smooth="yes"/>
			<point x="263" y="573"/>
			<point x="299" y="559"/>
			<point x="321" y="528" type="curve"/>
			<point x="307" y="502"/>
			<point x="298" y="469"/>
			<point x="297" y="430" type="curve"/>
			<point x="243" y="430" type="line"/>
			<point x="243" y="400" type="line"/>
			<point x="296" y="400" type="line"/>
			<point x="296" y="30" type="line"/>
			<point x="243" y="30" type="line"/>
			<point x="243" y="0" type="line"/>
			<point x="436" y="0" type="line"/>
			<point x="436" y="30" type="line"/>
			<point x="326" y="30" type="line"/>
			<point x="326" y="400" type="line"/>
			<point x="416" y="400" type="line"/>
			<point x="416" y="430" type="line"/>
			<point x="327" y="430" type="line"/>
			<point x="331" y="522"/>
			<point x="375" y="573"/>
			<point x="446" y="573" type="curve" smooth="yes"/>
			<point x="502" y="573"/>
			<point x="557" y="540"/>
			<point x="560" y="470" type="curve"/>
			<point x="550" y="486"/>
			<point x="536" y="489"/>
			<point x="520" y="489" type="curve" smooth="yes"/>
			<point x="497" y="489"/>
			<point x="472" y="464"/>
			<point x="472" y="439" type="curve" smooth="yes"/>
			<point x="472" y="405"/>
			<point x="498" y="389"/>
			<point x="529" y="389" type="curve" smooth="yes"/>
			<point x="563" y="389"/>
			<point x="589" y="420"/>
			<point x="589" y="469" type="curve" smooth="yes"/>
			<point x="589" y="550"/>
			<point x="524" y="603"/>
		</contour>
	</outline>
</glyph>
<glyph name="Madame.duo" format="2">
	<advance width="900"/>
	<note>
		Madame.duo
	</note>
	<outline>
		<contour>
			<point x="700" y="581" type="curve" smooth="yes"/>
			<point x="687" y="581"/>
			<point x="677" y="572"/>
			<point x="663" y="555" type="curve"/>
			<point x="663" y="554" type="line"/>
			<point x="659" y="575"/>
			<point x="646" y="581"/>
			<point x="633" y="581" type="curve" smooth="yes"/>
			<point x="620" y="581"/>
			<point x="610" y="572"/>
			<point x="596" y="555" type="curve"/>
			<point x="596" y="554" type="line"/>
			<point x="592" y="575"/>
			<point x="579" y="581"/>
			<point x="566" y="581" type="curve" smooth="yes"/>
			<point x="561" y="581"/>
			<point x="556" y="580"/>
			<point x="552" y="577" type="curve"/>
			<point x="554" y="590" type="line"/>
			<point x="524" y="590" type="line"/>
			<point x="324" y="124" type="line"/>
			<point x="407" y="590" type="line"/>
			<point x="377" y="590" type="line"/>
			<point x="255" y="284" type="line" smooth="yes"/>
			<point x="175" y="82"/>
			<point x="148" y="17"/>
			<point x="93" y="17" type="curve" smooth="yes"/>
			<point x="40" y="17"/>
			<point x="19" y="72"/>
			<point x="41" y="123" type="curve"/>
			<point x="44" y="92"/>
			<point x="64" y="78"/>
			<point x="85" y="77" type="curve" smooth="yes"/>
			<point x="107" y="76"/>
			<point x="137" y="94"/>
			<point x="138" y="126" type="curve" smooth="yes"/>
			<point x="139" y="156"/>
			<point x="108" y="181"/>
			<point x="83" y="181" type="curve" smooth="yes"/>
			<point x="38" y="181"/>
			<point x="6" y="132"/>
			<point x="6" y="84" type="curve" smooth="yes"/>
			<point x="6" y="32"/>
			<point x="37" y="-13"/>
			<point x="90" y="-13" type="curve" smooth="yes"/>
			<point x="168" y="-13"/>
			<point x="189" y="40"/>
			<point x="281" y="273" type="curve" smooth="yes"/>
			<point x="352" y="452" type="line"/>
			<point x="271" y="0" type="line"/>
			<point x="302" y="0" type="line"/>
			<point x="503" y="471" type="line"/>
			<point x="434" y="75" type="line"/>
			<point x="421" y="15"/>
			<point x="446" y="-13"/>
			<point x="474" y="-13" type="curve" smooth="yes"/>
			<point x="523" y="-13"/>
			<point x="546" y="29"/>
			<point x="587" y="85" type="curve"/>
			<point x="563" y="102" type="line"/>
			<point x="529" y="54"/>
			<point x="501" y="16"/>
			<point x="479" y="16" type="curve" smooth="yes"/>
			<point x="461" y="16"/>
			<point x="457" y="35"/>
			<point x="463" y="70" type="curve" smooth="yes"/>
			<point x="546" y="545" type="line"/>
			<point x="554" y="554"/>
			<point x="561" y="562"/>
			<point x="566" y="562" type="curve" smooth="yes"/>
			<point x="575" y="562"/>
			<point x="577" y="552"/>
			<point x="577" y="525" type="curve" smooth="yes"/>
			<point x="577" y="430" type="line"/>
			<point x="597" y="430" type="line"/>
			<point x="597" y="524" type="line"/>
			<point x="611" y="542"/>
			<point x="625" y="562"/>
			<point x="633" y="562" type="curve" smooth="yes"/>
			<point x="642" y="562"/>
			<point x="644" y="552"/>
			<point x="644" y="525" type="curve" smooth="yes"/>
			<point x="644" y="430" type="line"/>
			<point x="664" y="430" type="line"/>
			<point x="664" y="524" type="line"/>
			<point x="678" y="542"/>
			<point x="692" y="562"/>
			<point x="700" y="562" type="curve" smooth="yes"/>
			<point x="709" y="562"/>
			<point x="711" y="552"/>
			<point x="711" y="525" type="curve" smooth="yes"/>
			<point x="711" y="430" type="line"/>
			<point x="731" y="430" type="line"/>
			<point x="731" y="542" type="line" smooth="yes"/>
			<point x="731" y="573"/>
			<point x="715" y="581"/>
		</contour>
		<contour>
			<point x="902" y="476" type="curve"/>
			<point x="881" y="481" type="line"/>
			<point x="864" y="452"/>
			<point x="840" y="446"/>
			<point x="820" y="446" type="curve" smooth="yes"/>
			<point x="798" y="446"/>
			<point x="772" y="460"/>
			<point x="767" y="498" type="curve"/>
			<point x="893" y="498" type="line"/>
			<point x="893" y="501" type="line" smooth="yes"/>
			<point x="893" y="552"/>
			<point x="859" y="581"/>
			<point x="820" y="581" type="curve" smooth="yes"/>
			<point x="775" y="581"/>
			<point x="744" y="554"/>
			<point x="744" y="506" type="curve" smooth="yes"/>
			<point x="744" y="463"/>
			<point x="778" y="425"/>
			<point x="820" y="425" type="curve" smooth="yes"/>
			<point x="856" y="425"/>
			<point x="883" y="444"/>
		</contour>
		<contour>
			<point x="820" y="560" type="curve" smooth="yes"/>
			<point x="842" y="560"/>
			<point x="866" y="548"/>
			<point x="869" y="518" type="curve"/>
			<point x="767" y="518" type="line"/>
			<point x="772" y="551"/>
			<point x="792" y="560"/>
		</contour>
	</outline>
</glyph>
<glyph name="Monsieur.duo" format="2">
	<advance width="900"/>
	<note>
		Monsieur.duo
	</note>
	<outline>
		<contour>
			<point x="459" y="16" type="curve" smooth="yes"/>
			<point x="441" y="16"/>
			<point x="437" y="35"/>
			<point x="443" y="70" type="curve" smooth="yes"/>
			<point x="536" y="590" type="line"/>
			<point x="506" y="590" type="line"/>
			<point x="327" y="141" type="line"/>
			<point x="407" y="590" type="line"/>
			<point x="377" y="590" type="line"/>
			<point x="255" y="284" type="line" smooth="yes"/>
			<point x="175" y="82"/>
			<point x="148" y="17"/>
			<point x="93" y="17" type="curve" smooth="yes"/>
			<point x="40" y="17"/>
			<point x="19" y="72"/>
			<point x="41" y="123" type="curve"/>
			<point x="44" y="92"/>
			<point x="64" y="78"/>
			<point x="85" y="77" type="curve" smooth="yes"/>
			<point x="107" y="76"/>
			<point x="137" y="94"/>
			<point x="138" y="126" type="curve" smooth="yes"/>
			<point x="139" y="156"/>
			<point x="108" y="181"/>
			<point x="83" y="181" type="curve" smooth="yes"/>
			<point x="38" y="181"/>
			<point x="6" y="132"/>
			<point x="6" y="84" type="curve" smooth="yes"/>
			<point x="6" y="32"/>
			<point x="37" y="-13"/>
			<point x="90" y="-13" type="curve" smooth="yes"/>
			<point x="168" y="-13"/>
			<point x="188" y="40"/>
			<point x="281" y="273" type="curve" smooth="yes"/>
			<point x="352" y="452" type="line"/>
			<point x="271" y="0" type="line"/>
			<point x="302" y="0" type="line"/>
			<point x="481" y="452" type="line"/>
			<point x="414" y="75" type="line"/>
			<point x="401" y="15"/>
			<point x="426" y="-13"/>
			<point x="454" y="-13" type="curve" smooth="yes"/>
			<point x="503" y="-13"/>
			<point x="526" y="29"/>
			<point x="567" y="85" type="curve"/>
			<point x="543" y="102" type="line"/>
			<point x="509" y="54"/>
			<point x="481" y="16"/>
		</contour>
		<contour>
			<point x="687" y="120" type="curve" smooth="yes"/>
			<point x="650" y="120"/>
			<point x="619" y="89"/>
			<point x="619" y="53" type="curve" smooth="yes"/>
			<point x="619" y="18"/>
			<point x="650" y="-13"/>
			<point x="687" y="-13" type="curve" smooth="yes"/>
			<point x="723" y="-13"/>
			<point x="752" y="17"/>
			<point x="752" y="53" type="curve" smooth="yes"/>
			<point x="752" y="89"/>
			<point x="723" y="120"/>
		</contour>
	</outline>
</glyph>
<glyph name="Th.duo" format="2">
	<advance width="900"/>
	<note>
		Th.duo
	</note>
	<outline>
		<contour>
			<point x="41" y="310" type="line"/>
			<point x="11" y="313" type="line"/>
			<point x="33" y="590" type="line"/>
			<point x="487" y="590" type="line"/>
			<point x="510" y="304" type="line"/>
			<point x="592" y="386"/>
			<point x="634" y="443"/>
			<point x="701" y="443" type="curve" smooth="yes"/>
			<point x="779" y="443"/>
			<point x="827" y="394"/>
			<point x="827" y="310" type="curve" smooth="yes"/>
			<point x="827" y="30" type="line"/>
			<point x="914" y="30" type="line"/>
			<point x="914" y="0" type="line"/>
			<point x="713" y="0" type="line"/>
			<point x="713" y="30" type="line"/>
			<point x="797" y="30" type="line"/>
			<point x="797" y="310" type="line" smooth="yes"/>
			<point x="797" y="377"/>
			<point x="760" y="413"/>
			<point x="701" y="413" type="curve" smooth="yes"/>
			<point x="647" y="413"/>
			<point x="617" y="369"/>
			<point x="509" y="261" type="curve"/>
			<point x="509" y="30" type="line"/>
			<point x="593" y="30" type="line"/>
			<point x="593" y="0" type="line"/>
			<point x="411" y="0" type="line"/>
			<point x="411" y="30" type="line"/>
			<point x="479" y="30" type="line"/>
			<point x="479" y="308" type="line"/>
			<point x="458" y="560" type="line"/>
			<point x="275" y="560" type="line"/>
			<point x="275" y="30" type="line"/>
			<point x="363" y="30" type="line"/>
			<point x="363" y="0" type="line"/>
			<point x="157" y="0" type="line"/>
			<point x="157" y="30" type="line"/>
			<point x="245" y="30" type="line"/>
			<point x="245" y="560" type="line"/>
			<point x="62" y="560" type="line"/>
		</contour>
	</outline>
</glyph>
<glyph name="ae.duo" format="2">
	<advance width="900"/>
	<note>
		ae.duo
	</note>
	<outline>
		<contour>
			<point x="872" y="136" type="curve"/>
			<point x="846" y="151" type="line"/>
			<point x="799" y="66"/>
			<point x="721" y="17"/>
			<point x="632" y="17" type="curve" smooth="yes"/>
			<point x="524" y="17"/>
			<point x="439" y="116"/>
			<point x="439" y="227" type="curve"/>
			<point x="844" y="227" type="line"/>
			<point x="844" y="238" type="line" smooth="yes"/>
			<point x="844" y="356"/>
			<point x="748" y="443"/>
			<point x="632" y="443" type="curve" smooth="yes"/>
			<point x="549" y="443"/>
			<point x="482" y="412"/>
			<point x="444" y="354" type="curve"/>
			<point x="420" y="415"/>
			<point x="336" y="443"/>
			<point x="255" y="443" type="curve" smooth="yes"/>
			<point x="171" y="443"/>
			<point x="80" y="396"/>
			<point x="80" y="330" type="curve" smooth="yes"/>
			<point x="80" y="298"/>
			<point x="96" y="271"/>
			<point x="129" y="271" type="curve" smooth="yes"/>
			<point x="160" y="271"/>
			<point x="184" y="285"/>
			<point x="184" y="321" type="curve" smooth="yes"/>
			<point x="184" y="348"/>
			<point x="159" y="360"/>
			<point x="140" y="360" type="curve" smooth="yes"/>
			<point x="134" y="360"/>
			<point x="120" y="357"/>
			<point x="112" y="352" type="curve"/>
			<point x="138" y="392"/>
			<point x="196" y="413"/>
			<point x="255" y="413" type="curve" smooth="yes"/>
			<point x="330" y="413"/>
			<point x="421" y="386"/>
			<point x="421" y="317" type="curve" smooth="yes"/>
			<point x="421" y="311"/>
			<point x="420" y="306"/>
			<point x="419" y="300" type="curve"/>
			<point x="419" y="298"/>
			<point x="418" y="295"/>
			<point x="417" y="293" type="curve"/>
			<point x="402" y="250"/>
			<point x="343" y="247"/>
			<point x="253" y="243" type="curve" smooth="yes"/>
			<point x="147" y="238"/>
			<point x="45" y="204"/>
			<point x="43" y="112" type="curve" smooth="yes"/>
			<point x="41" y="33"/>
			<point x="102" y="-13"/>
			<point x="184" y="-13" type="curve" smooth="yes"/>
			<point x="270" y="-13"/>
			<point x="336" y="20"/>
			<point x="421" y="91" type="curve" smooth="yes"/>
			<point x="439" y="106" type="line"/>
			<point x="478" y="36"/>
			<point x="550" y="-13"/>
			<point x="632" y="-13" type="curve" smooth="yes"/>
			<point x="738" y="-13"/>
			<point x="818" y="43"/>
		</contour>
		<contour>
			<point x="632" y="413" type="curve" smooth="yes"/>
			<point x="726" y="413"/>
			<point x="803" y="348"/>
			<point x="813" y="257" type="curve"/>
			<point x="441" y="257" type="line"/>
			<point x="455" y="354"/>
			<point x="520" y="413"/>
		</contour>
		<contour>
			<point x="426" y="134" type="curve"/>
			<point x="421" y="130" type="line" smooth="yes"/>
			<point x="337" y="61"/>
			<point x="275" y="17"/>
			<point x="185" y="17" type="curve" smooth="yes"/>
			<point x="116" y="17"/>
			<point x="73" y="49"/>
			<point x="73" y="112" type="curve" smooth="yes"/>
			<point x="73" y="184"/>
			<point x="160" y="213"/>
			<point x="253" y="213" type="curve" smooth="yes"/>
			<point x="305" y="213"/>
			<point x="376" y="219"/>
			<point x="410" y="241" type="curve"/>
			<point x="409" y="235"/>
			<point x="409" y="229"/>
			<point x="409" y="223" type="curve" smooth="yes"/>
			<point x="409" y="192"/>
			<point x="415" y="162"/>
		</contour>
	</outline>
</glyph>
<glyph name="backslash.duo" format="2">
	<advance width="300"/>
	<note>
		backslash.duo
	</note>
	<outline>
		<contour>
			<point x="236" y="-13" type="line"/>
			<point x="50" y="590" type="line"/>
			<point x="78" y="600" type="line"/>
			<point x="264" y="-2" type="line"/>
		</contour>
	</outline>
</glyph>
<glyph name="braceleft.duo" format="2">
	<advance width="300"/>
	<note>
		braceleft.duo
	</note>
	<outline>
		<contour>
			<point x="17" y="228" type="curve"/>
			<point x="17" y="198" type="line"/>
			<point x="71" y="177"/>
			<point x="81" y="147"/>
			<point x="71" y="93" type="curve" smooth="yes"/>
			<point x="57" y="17" type="line" smooth="yes"/>
			<point x="36" y="-98"/>
			<point x="100" y="-177"/>
			<point x="172" y="-177" type="curve" smooth="yes"/>
			<point x="239" y="-177"/>
			<point x="277" y="-130"/>
			<point x="277" y="-65" type="curve" smooth="yes"/>
			<point x="277" y="-35"/>
			<point x="257" y="-9"/>
			<point x="229" y="-9" type="curve" smooth="yes"/>
			<point x="203" y="-9"/>
			<point x="181" y="-25"/>
			<point x="181" y="-53" type="curve" smooth="yes"/>
			<point x="181" y="-75"/>
			<point x="199" y="-96"/>
			<point x="221" y="-96" type="curve" smooth="yes"/>
			<point x="230" y="-96"/>
			<point x="241" y="-93"/>
			<point x="248" y="-85" type="curve"/>
			<point x="241" y="-125"/>
			<point x="213" y="-147"/>
			<point x="173" y="-147" type="curve" smooth="yes"/>
			<point x="118" y="-147"/>
			<point x="71" y="-81"/>
			<point x="87" y="13" type="curve" smooth="yes"/>
			<point x="100" y="91" type="line" smooth="yes"/>
			<point x="111" y="158"/>
			<point x="98" y="198"/>
			<point x="53" y="213" type="curve"/>
			<point x="98" y="230"/>
			<point x="111" y="268"/>
			<point x="100" y="335" type="curve" smooth="yes"/>
			<point x="87" y="413" type="line" smooth="yes"/>
			<point x="72" y="505"/>
			<point x="118" y="571"/>
			<point x="173" y="571" type="curve" smooth="yes"/>
			<point x="213" y="571"/>
			<point x="241" y="549"/>
			<point x="248" y="509" type="curve"/>
			<point x="241" y="517"/>
			<point x="230" y="520"/>
			<point x="221" y="520" type="curve" smooth="yes"/>
			<point x="199" y="520"/>
			<point x="181" y="499"/>
			<point x="181" y="477" type="curve" smooth="yes"/>
			<point x="181" y="449"/>
			<point x="203" y="433"/>
			<point x="229" y="433" type="curve" smooth="yes"/>
			<point x="257" y="433"/>
			<point x="277" y="459"/>
			<point x="277" y="489" type="curve" smooth="yes"/>
			<point x="277" y="554"/>
			<point x="239" y="601"/>
			<point x="172" y="601" type="curve" smooth="yes"/>
			<point x="100" y="601"/>
			<point x="36" y="522"/>
			<point x="57" y="409" type="curve" smooth="yes"/>
			<point x="71" y="333" type="line" smooth="yes"/>
			<point x="81" y="279"/>
			<point x="71" y="249"/>
		</contour>
	</outline>
</glyph>
<glyph name="bracketleft.duo" format="2">
	<advance width="300"/>
	<note>
		bracketleft.duo
	</note>
	<outline>
		<contour>
			<point x="280" y="-67" type="line"/>
			<point x="280" y="-97" type="line"/>
			<point x="21" y="-97" type="line"/>
			<point x="21" y="590" type="line"/>
			<point x="280" y="590" type="line"/>
			<point x="280" y="560" type="line"/>
			<point x="51" y="560" type="line"/>
			<point x="51" y="-67" type="line"/>
		</contour>
	</outline>
</glyph>
<glyph name="bracketright.duo" format="2">
	<advance width="300"/>
	<note>
		bracketright.duo
	</note>
	<outline>
		<contour>
			<point x="279" y="-97" type="line"/>
			<point x="20" y="-97" type="line"/>
			<point x="20" y="-67" type="line"/>
			<point x="249" y="-67" type="line"/>
			<point x="249" y="560" type="line"/>
			<point x="20" y="560" type="line"/>
			<point x="20" y="590" type="line"/>
			<point x="279" y="590" type="line"/>
		</contour>
	</outline>
</glyph>
<glyph name="bullet.duo" format="2">
	<advance width="300"/>
	<note>
		bullet.duo
	</note>
	<outline>
		<contour>
			<point x="152" y="196" type="curve" smooth="yes"/>
			<point x="207" y="196"/>
			<point x="253" y="244"/>
			<point x="253" y="297" type="curve" smooth="yes"/>
			<point x="253" y="353"/>
			<point x="208" y="399"/>
			<point x="152" y="399" type="curve" smooth="yes"/>
			<point x="96" y="399"/>
			<point x="48" y="352"/>
			<point x="48" y="297" type="curve" smooth="yes"/>
			<point x="48" y="244"/>
			<point x="96" y="196"/>
		</contour>
	</outline>
</glyph>
<glyph name="comma.duo" format="2">
	<advance width="300"/>
	<note>
		comma.duo
	</note>
	<outline>
		<contour>
			<point x="123" y="-12" type="curve" smooth="yes"/>
			<point x="156" y="-12"/>
			<point x="183" y="16"/>
			<point x="183" y="44" type="curve" smooth="yes"/>
			<point x="183" y="63"/>
			<point x="177" y="80"/>
			<point x="166" y="89" type="curve"/>
			<point x="195" y="80"/>
			<point x="218" y="37"/>
			<point x="218" y="-5" type="curve" smooth="yes"/>
			<point x="218" y="-70"/>
			<point x="160" y="-136"/>
			<point x="93" y="-143" type="curve"/>
			<point x="97" y="-168" type="line"/>
			<point x="169" y="-161"/>
			<point x="243" y="-90"/>
			<point x="243" y="-5" type="curve" smooth="yes"/>
			<point x="243" y="70"/>
			<point x="196" y="125"/>
			<point x="135" y="125" type="curve" smooth="yes"/>
			<point x="95" y="125"/>
			<point x="57" y="97"/>
			<point x="57" y="56" type="curve" smooth="yes"/>
			<point x="57" y="17"/>
			<point x="86" y="-12"/>
		</contour>
	</outline>
</glyph>
<glyph name="eight.dnom" format="2">
	<advance width="600"/>
	<note>
		eight.dnom
	</note>
	<outline>
		<contour>
			<point x="128" y="603" type="curve" smooth="yes"/>
			<point x="185" y="603"/>
			<point x="217" y="567"/>
			<point x="217" y="532" type="curve" smooth="yes"/>
			<point x="217" y="491"/>
			<point x="186" y="473"/>
			<point x="169" y="472" type="curve"/>
			<point x="190" y="472"/>
			<point x="231" y="442"/>
			<point x="231" y="401" type="curve" smooth="yes"/>
			<point x="231" y="347"/>
			<point x="185" y="317"/>
			<point x="128" y="317" type="curve" smooth="yes"/>
			<point x="71" y="317"/>
			<point x="25" y="347"/>
			<point x="25" y="401" type="curve" smooth="yes"/>
			<point x="25" y="442"/>
			<point x="66" y="472"/>
			<point x="87" y="472" type="curve"/>
			<point x="70" y="473"/>
			<point x="39" y="491"/>
			<point x="39" y="532" type="curve" smooth="yes"/>
			<point x="39" y="567"/>
			<point x="71" y="603"/>
		</contour>
		<contour>
			<point x="128" y="483" type="curve" smooth="yes"/>
			<point x="170" y="483"/>
			<point x="193" y="504"/>
			<point x="193" y="532" type="curve" smooth="yes"/>
			<point x="193" y="559"/>
			<point x="166" y="579"/>
			<point x="128" y="579" type="curve" smooth="yes"/>
			<point x="90" y="579"/>
			<point x="63" y="559"/>
			<point x="63" y="532" type="curve" smooth="yes"/>
			<point x="63" y="504"/>
			<point x="86" y="483"/>
		</contour>
		<contour>
			<point x="128" y="341" type="curve" smooth="yes"/>
			<point x="176" y="341"/>
			<point x="207" y="362"/>
			<point x="207" y="401" type="curve" smooth="yes"/>
			<point x="207" y="436"/>
			<point x="171" y="462"/>
			<point x="128" y="462" type="curve" smooth="yes"/>
			<point x="85" y="462"/>
			<point x="49" y="436"/>
			<point x="49" y="401" type="curve" smooth="yes"/>
			<point x="49" y="362"/>
			<point x="80" y="341"/>
		</contour>
	</outline>
</glyph>
<glyph name="f13" format="2">
	<advance width="600"/>
	<note>
		f13
	</note>
	<outline>
		<contour>
			<point x="532" y="590" type="line"/>
			<point x="512" y="603" type="line"/>
			<point x="81" y="1" type="line"/>
			<point x="101" y="-13" type="line"/>
		</contour>
		<contour>
			<point x="40" y="455" type="curve"/>
			<point x="54" y="436" type="line"/>
			<point x="109" y="479"/>
			<point x="122" y="493"/>
			<point x="159" y="551" type="curve"/>
			<point x="159" y="347" type="line"/>
			<point x="58" y="347" type="line"/>
			<point x="58" y="323" type="line"/>
			<point x="262" y="323" type="line"/>
			<point x="262" y="347" type="line"/>
			<point x="183" y="347" type="line"/>
			<point x="183" y="590" type="line"/>
			<point x="151" y="590" type="line"/>
			<point x="123" y="531"/>
			<point x="87" y="492"/>
		</contour>
		<contour>
			<point x="364" y="62" type="curve"/>
			<point x="364" y="35"/>
			<point x="404" y="11"/>
			<point x="453" y="11" type="curve" smooth="yes"/>
			<point x="496" y="11"/>
			<point x="551" y="37"/>
			<point x="551" y="88" type="curve" smooth="yes"/>
			<point x="551" y="134"/>
			<point x="501" y="157"/>
			<point x="453" y="151" type="curve"/>
			<point x="437" y="138" type="line"/>
			<point x="422" y="157" type="line"/>
			<point x="522" y="239" type="line"/>
			<point x="381" y="239" type="line"/>
			<point x="369" y="187" type="line"/>
			<point x="345" y="190" type="line"/>
			<point x="361" y="263" type="line"/>
			<point x="567" y="263" type="line"/>
			<point x="567" y="245" type="line"/>
			<point x="480" y="174" type="line"/>
			<point x="534" y="174"/>
			<point x="575" y="137"/>
			<point x="575" y="88" type="curve" smooth="yes"/>
			<point x="575" y="21"/>
			<point x="508" y="-13"/>
			<point x="453" y="-13" type="curve" smooth="yes"/>
			<point x="400" y="-13"/>
			<point x="343" y="14"/>
			<point x="343" y="63" type="curve" smooth="yes"/>
			<point x="343" y="84"/>
			<point x="356" y="100"/>
			<point x="378" y="100" type="curve" smooth="yes"/>
			<point x="397" y="100"/>
			<point x="409" y="89"/>
			<point x="409" y="72" type="curve" smooth="yes"/>
			<point x="409" y="55"/>
			<point x="398" y="47"/>
			<point x="385" y="47" type="curve" smooth="yes"/>
			<point x="375" y="47"/>
			<point x="368" y="52"/>
		</contour>
	</outline>
</glyph>
<glyph name="ffi.duo" format="2">
	<advance width="900"/>
	<note>
		ffi.duo
	</note>
	<outline>
		<contour>
			<point x="669" y="573" type="curve" smooth="yes"/>
			<point x="745" y="573"/>
			<point x="808" y="530"/>
			<point x="811" y="470" type="curve"/>
			<point x="801" y="486"/>
			<point x="787" y="489"/>
			<point x="771" y="489" type="curve" smooth="yes"/>
			<point x="748" y="489"/>
			<point x="723" y="464"/>
			<point x="723" y="439" type="curve" smooth="yes"/>
			<point x="723" y="405"/>
			<point x="749" y="389"/>
			<point x="780" y="389" type="curve" smooth="yes"/>
			<point x="814" y="389"/>
			<point x="840" y="420"/>
			<point x="840" y="469" type="curve" smooth="yes"/>
			<point x="840" y="540"/>
			<point x="767" y="603"/>
			<point x="670" y="603" type="curve" smooth="yes"/>
			<point x="601" y="603"/>
			<point x="546" y="577"/>
			<point x="513" y="526" type="curve"/>
			<point x="487" y="571"/>
			<point x="429" y="603"/>
			<point x="360" y="603" type="curve" smooth="yes"/>
			<point x="255" y="603"/>
			<point x="184" y="542"/>
			<point x="170" y="430" type="curve"/>
			<point x="36" y="430" type="line"/>
			<point x="36" y="400" type="line"/>
			<point x="169" y="400" type="line"/>
			<point x="169" y="30" type="line"/>
			<point x="36" y="30" type="line"/>
			<point x="36" y="0" type="line"/>
			<point x="329" y="0" type="line"/>
			<point x="329" y="30" type="line"/>
			<point x="199" y="30" type="line"/>
			<point x="199" y="400" type="line"/>
			<point x="329" y="400" type="line"/>
			<point x="329" y="430" type="line"/>
			<point x="200" y="430" type="line"/>
			<point x="214" y="522"/>
			<point x="268" y="573"/>
			<point x="359" y="573" type="curve" smooth="yes"/>
			<point x="424" y="573"/>
			<point x="480" y="541"/>
			<point x="496" y="494" type="curve"/>
			<point x="488" y="475"/>
			<point x="483" y="454"/>
			<point x="480" y="430" type="curve"/>
			<point x="376" y="430" type="line"/>
			<point x="376" y="400" type="line"/>
			<point x="479" y="400" type="line"/>
			<point x="479" y="30" type="line"/>
			<point x="376" y="30" type="line"/>
			<point x="376" y="0" type="line"/>
			<point x="639" y="0" type="line"/>
			<point x="639" y="30" type="line"/>
			<point x="509" y="30" type="line"/>
			<point x="509" y="400" type="line"/>
			<point x="669" y="400" type="line"/>
			<point x="669" y="430" type="line"/>
			<point x="510" y="430" type="line"/>
			<point x="524" y="522"/>
			<point x="578" y="573"/>
		</contour>
		<contour>
			<point x="877" y="30" type="line"/>
			<point x="794" y="30" type="line"/>
			<point x="794" y="339" type="line"/>
			<point x="764" y="339" type="line"/>
			<point x="764" y="30" type="line"/>
			<point x="691" y="30" type="line"/>
			<point x="691" y="0" type="line"/>
			<point x="877" y="0" type="line"/>
		</contour>
	</outline>
</glyph>
<glyph name="five.dnom" format="2">
	<advance width="600"/>
	<note>
		five.dnom
	</note>
	<outline>
		<contour>
			<point x="46" y="389" type="curve"/>
			<point x="52" y="359"/>
			<point x="85" y="340"/>
			<point x="134" y="340" type="curve" smooth="yes"/>
			<point x="172" y="340"/>
			<point x="214" y="369"/>
			<point x="214" y="412" type="curve" smooth="yes"/>
			<point x="214" y="464"/>
			<point x="172" y="487"/>
			<point x="134" y="487" type="curve" smooth="yes"/>
			<point x="107" y="487"/>
			<point x="80" y="471"/>
			<point x="62" y="454" type="curve"/>
			<point x="35" y="468" type="line"/>
			<point x="46" y="590" type="line"/>
			<point x="219" y="590" type="line"/>
			<point x="219" y="566" type="line"/>
			<point x="68" y="566" type="line"/>
			<point x="61" y="483" type="line"/>
			<point x="72" y="494"/>
			<point x="99" y="511"/>
			<point x="134" y="511" type="curve" smooth="yes"/>
			<point x="191" y="511"/>
			<point x="238" y="472"/>
			<point x="238" y="412" type="curve" smooth="yes"/>
			<point x="238" y="350"/>
			<point x="184" y="316"/>
			<point x="134" y="316" type="curve" smooth="yes"/>
			<point x="76" y="316"/>
			<point x="25" y="346"/>
			<point x="25" y="390" type="curve" smooth="yes"/>
			<point x="25" y="411"/>
			<point x="38" y="427"/>
			<point x="60" y="427" type="curve" smooth="yes"/>
			<point x="79" y="427"/>
			<point x="91" y="416"/>
			<point x="91" y="399" type="curve" smooth="yes"/>
			<point x="91" y="382"/>
			<point x="80" y="374"/>
			<point x="67" y="374" type="curve" smooth="yes"/>
			<point x="57" y="374"/>
			<point x="48" y="379"/>
		</contour>
	</outline>
</glyph>
<glyph name="fj" format="2">
	<advance width="600"/>
	<note>
		fj
	</note>
	<outline>
		<contour>
			<point x="482" y="470" type="curve"/>
			<point x="472" y="486"/>
			<point x="458" y="488"/>
			<point x="442" y="488" type="curve" smooth="yes"/>
			<point x="420" y="488"/>
			<point x="393" y="464"/>
			<point x="393" y="439" type="curve" smooth="yes"/>
			<point x="393" y="405"/>
			<point x="419" y="389"/>
			<point x="450" y="389" type="curve" smooth="yes"/>
			<point x="484" y="389"/>
			<point x="510" y="420"/>
			<point x="510" y="469" type="curve" smooth="yes"/>
			<point x="510" y="539"/>
			<point x="437" y="603"/>
			<point x="340" y="603" type="curve" smooth="yes"/>
			<point x="235" y="603"/>
			<point x="164" y="542"/>
			<point x="150" y="430" type="curve"/>
			<point x="56" y="430" type="line"/>
			<point x="56" y="400" type="line"/>
			<point x="149" y="400" type="line"/>
			<point x="149" y="30" type="line"/>
			<point x="56" y="30" type="line"/>
			<point x="56" y="0" type="line"/>
			<point x="272" y="0" type="line"/>
			<point x="272" y="30" type="line"/>
			<point x="179" y="30" type="line"/>
			<point x="179" y="400" type="line"/>
			<point x="302" y="400" type="line"/>
			<point x="302" y="430" type="line"/>
			<point x="180" y="430" type="line"/>
			<point x="193" y="522"/>
			<point x="248" y="573"/>
			<point x="339" y="573" type="curve" smooth="yes"/>
			<point x="415" y="573"/>
			<point x="479" y="530"/>
		</contour>
		<contour>
			<point x="290" y="-123" type="curve" smooth="yes"/>
			<point x="290" y="-148"/>
			<point x="319" y="-173"/>
			<point x="355" y="-173" type="curve" smooth="yes"/>
			<point x="435" y="-173"/>
			<point x="465" y="-117"/>
			<point x="466" y="10" type="curve" smooth="yes"/>
			<point x="466" y="339" type="line"/>
			<point x="436" y="339" type="line"/>
			<point x="436" y="18" type="line" smooth="yes"/>
			<point x="436" y="-97"/>
			<point x="415" y="-143"/>
			<point x="357" y="-143" type="curve"/>
			<point x="374" y="-135"/>
			<point x="378" y="-123"/>
			<point x="378" y="-109" type="curve" smooth="yes"/>
			<point x="378" y="-86"/>
			<point x="355" y="-71"/>
			<point x="335" y="-71" type="curve" smooth="yes"/>
			<point x="307" y="-71"/>
			<point x="290" y="-92"/>
		</contour>
	</outline>
</glyph>
<glyph name="fk.duo" format="2">
	<advance width="900"/>
	<note>
		fk.duo
	</note>
	<outline>
		<contour>
			<point x="461" y="428" type="curve" smooth="yes"/>
			<point x="461" y="30" type="line"/>
			<point x="379" y="30" type="line"/>
			<point x="379" y="0" type="line"/>
			<point x="591" y="0" type="line"/>
			<point x="591" y="30" type="line"/>
			<point x="491" y="30" type="line"/>
			<point x="491" y="162" type="line"/>
			<point x="596" y="248" type="line"/>
			<point x="723" y="58" type="line" smooth="yes"/>
			<point x="748" y="21"/>
			<point x="777" y="-13"/>
			<point x="825" y="-13" type="curve" smooth="yes"/>
			<point x="852" y="-13"/>
			<point x="874" y="3"/>
			<point x="893" y="23" type="curve"/>
			<point x="870" y="42" type="line"/>
			<point x="859" y="30"/>
			<point x="844" y="17"/>
			<point x="825" y="17" type="curve" smooth="yes"/>
			<point x="789" y="17"/>
			<point x="769" y="45"/>
			<point x="741" y="86" type="curve" smooth="yes"/>
			<point x="619" y="268" type="line"/>
			<point x="780" y="400" type="line"/>
			<point x="864" y="400" type="line"/>
			<point x="864" y="430" type="line"/>
			<point x="642" y="430" type="line"/>
			<point x="642" y="400" type="line"/>
			<point x="734" y="400" type="line"/>
			<point x="491" y="201" type="line"/>
			<point x="491" y="428" type="line" smooth="yes"/>
			<point x="491" y="541"/>
			<point x="416" y="603"/>
			<point x="319" y="603" type="curve" smooth="yes"/>
			<point x="214" y="603"/>
			<point x="143" y="542"/>
			<point x="129" y="430" type="curve"/>
			<point x="25" y="430" type="line"/>
			<point x="25" y="400" type="line"/>
			<point x="128" y="400" type="line"/>
			<point x="128" y="30" type="line"/>
			<point x="25" y="30" type="line"/>
			<point x="25" y="0" type="line"/>
			<point x="278" y="0" type="line"/>
			<point x="278" y="30" type="line"/>
			<point x="158" y="30" type="line"/>
			<point x="158" y="400" type="line"/>
			<point x="318" y="400" type="line"/>
			<point x="318" y="430" type="line"/>
			<point x="159" y="430" type="line"/>
			<point x="172" y="522"/>
			<point x="227" y="573"/>
			<point x="318" y="573" type="curve" smooth="yes"/>
			<point x="394" y="573"/>
			<point x="461" y="528"/>
		</contour>
	</outline>
</glyph>
<glyph name="four.osf" format="2">
	<advance width="600"/>
	<note>
		four.osf
	</note>
	<outline>
		<contour>
			<point x="45" y="50" type="line"/>
			<point x="364" y="50" type="line"/>
			<point x="364" y="-173" type="line"/>
			<point x="394" y="-173" type="line"/>
			<point x="394" y="50" type="line"/>
			<point x="559" y="50" type="line"/>
			<point x="559" y="80" type="line"/>
			<point x="394" y="80" type="line"/>
			<point x="394" y="326" type="line"/>
			<point x="364" y="326" type="line"/>
			<point x="364" y="80" type="line"/>
			<point x="77" y="80" type="line"/>
			<point x="140" y="164"/>
			<point x="168" y="202"/>
			<point x="209" y="274" type="curve" smooth="yes"/>
			<point x="250" y="346"/>
			<point x="273" y="400"/>
			<point x="299" y="484" type="curve"/>
			<point x="272" y="492" type="line"/>
			<point x="247" y="412"/>
			<point x="225" y="357"/>
			<point x="184" y="286" type="curve" smooth="yes"/>
			<point x="143" y="215"/>
			<point x="106" y="168"/>
			<point x="45" y="88" type="curve"/>
		</contour>
	</outline>
</glyph>
<glyph name="ft.duo" format="2">
	<advance width="900"/>
	<note>
		ft.duo
	</note>
	<outline>
		<contour>
			<point x="25" y="30" type="line"/>
			<point x="25" y="0" type="line"/>
			<point x="278" y="0" type="line"/>
			<point x="278" y="30" type="line"/>
			<point x="158" y="30" type="line"/>
			<point x="158" y="400" type="line"/>
			<point x="298" y="400" type="line"/>
			<point x="298" y="430" type="line"/>
			<point x="159" y="430" type="line"/>
			<point x="172" y="522"/>
			<point x="227" y="573"/>
			<point x="318" y="573" type="curve" smooth="yes"/>
			<point x="393" y="573"/>
			<point x="460" y="529"/>
			<point x="461" y="430" type="curve"/>
			<point x="375" y="430" type="line"/>
			<point x="375" y="400" type="line"/>
			<point x="461" y="400" type="line"/>
			<point x="461" y="97" type="line" smooth="yes"/>
			<point x="461" y="23"/>
			<point x="510" y="-13"/>
			<point x="587" y="-13" type="curve" smooth="yes"/>
			<point x="643" y="-13"/>
			<point x="713" y="30"/>
			<point x="785" y="74" type="curve" smooth="yes"/>
			<point x="841" y="108" type="line"/>
			<point x="824" y="133" type="line"/>
			<point x="765" y="96" type="line" smooth="yes"/>
			<point x="689" y="48"/>
			<point x="638" y="17"/>
			<point x="587" y="17" type="curve" smooth="yes"/>
			<point x="524" y="17"/>
			<point x="491" y="40"/>
			<point x="491" y="110" type="curve" smooth="yes"/>
			<point x="491" y="400" type="line"/>
			<point x="787" y="400" type="line"/>
			<point x="787" y="430" type="line"/>
			<point x="491" y="430" type="line"/>
			<point x="490" y="542"/>
			<point x="415" y="603"/>
			<point x="319" y="603" type="curve" smooth="yes"/>
			<point x="214" y="603"/>
			<point x="143" y="542"/>
			<point x="129" y="430" type="curve"/>
			<point x="25" y="430" type="line"/>
			<point x="25" y="400" type="line"/>
			<point x="128" y="400" type="line"/>
			<point x="128" y="30" type="line"/>
		</contour>
	</outline>
</glyph>
<glyph name="guillemotleft.duo" format="2">
	<advance width="300"/>
	<note>
		guillemotleft.duo
	</note>
	<outline>
		<contour>
			<point x="74" y="258" type="curve"/>
			<point x="107" y="298"/>
			<point x="132" y="346"/>
			<point x="167" y="429" type="curve"/>
			<point x="136" y="443" type="line"/>
			<point x="105" y="360"/>
			<point x="71" y="305"/>
			<point x="32" y="258" type="curve"/>
			<point x="71" y="209"/>
			<point x="105" y="156"/>
			<point x="136" y="73" type="curve"/>
			<point x="167" y="87" type="line"/>
			<point x="132" y="170"/>
			<point x="107" y="218"/>
		</contour>
		<contour>
			<point x="176" y="258" type="curve"/>
			<point x="209" y="298"/>
			<point x="234" y="346"/>
			<point x="269" y="429" type="curve"/>
			<point x="238" y="443" type="line"/>
			<point x="207" y="360"/>
			<point x="173" y="305"/>
			<point x="134" y="258" type="curve"/>
			<point x="173" y="209"/>
			<point x="207" y="156"/>
			<point x="238" y="73" type="curve"/>
			<point x="269" y="87" type="line"/>
			<point x="234" y="170"/>
			<point x="209" y="218"/>
		</contour>
	</outline>
</glyph>
<glyph name="guillemotright.duo" format="2">
	<advance width="300"/>
	<note>
		guillemotright.duo
	</note>
	<outline>
		<contour>
			<point x="125" y="258" type="curve"/>
			<point x="92" y="218"/>
			<point x="67" y="170"/>
			<point x="32" y="87" type="curve"/>
			<point x="63" y="73" type="line"/>
			<point x="94" y="156"/>
			<point x="128" y="209"/>
			<point x="167" y="258" type="curve"/>
			<point x="128" y="305"/>
			<point x="94" y="360"/>
			<point x="63" y="443" type="curve"/>
			<point x="32" y="429" type="line"/>
			<point x="67" y="346"/>
			<point x="92" y="298"/>
		</contour>
		<contour>
			<point x="227" y="258" type="curve"/>
			<point x="194" y="218"/>
			<point x="169" y="170"/>
			<point x="134" y="87" type="curve"/>
			<point x="165" y="73" type="line"/>
			<point x="196" y="156"/>
			<point x="230" y="209"/>
			<point x="269" y="258" type="curve"/>
			<point x="230" y="305"/>
			<point x="196" y="360"/>
			<point x="165" y="443" type="curve"/>
			<point x="134" y="429" type="line"/>
			<point x="169" y="346"/>
			<point x="194" y="298"/>
		</contour>
	</outline>
</glyph>
<glyph name="guilsinglleft.duo" format="2">
	<advance width="300"/>
	<note>
		guilsinglleft.duo
	</note>
	<outline>
		<contour>
			<point x="36" y="253" type="curve"/>
			<point x="88" y="208"/>
			<point x="179" y="144"/>
			<point x="240" y="63" type="curve"/>
			<point x="263" y="87" type="line"/>
			<point x="198" y="168"/>
			<point x="138" y="213"/>
			<point x="87" y="253" type="curve"/>
			<point x="138" y="293"/>
			<point x="198" y="338"/>
			<point x="263" y="419" type="curve"/>
			<point x="240" y="443" type="line"/>
			<point x="179" y="362"/>
			<point x="88" y="298"/>
		</contour>
	</outline>
</glyph>
<glyph name="guilsinglright_duo" format="2">
	<advance width="300"/>
	<note>
		guilsinglright_duo
	</note>
	<outline>
		<contour>
			<point x="264" y="253" type="curve"/>
			<point x="212" y="298"/>
			<point x="121" y="362"/>
			<point x="60" y="443" type="curve"/>
			<point x="37" y="419" type="line"/>
			<point x="102" y="338"/>
			<point x="162" y="293"/>
			<point x="213" y="253" type="curve"/>
			<point x="162" y="213"/>
			<point x="102" y="168"/>
			<point x="37" y="87" type="curve"/>
			<point x="60" y="63" type="line"/>
			<point x="121" y="144"/>
			<point x="212" y="208"/>
		</contour>
	</outline>
</glyph>
<glyph name="hyphen.duo" format="2">
	<advance width="300"/>
	<guideline x="-107" y="231" angle="0"/>
	<note>
		hyphen.duo
	</note>
	<outline>
		<contour>
			<point x="291" y="201" type="line"/>
			<point x="9" y="201" type="line"/>
			<point x="9" y="231" type="line"/>
			<point x="291" y="231" type="line"/>
		</contour>
	</outline>
</glyph>
<glyph name="iacute.duo" format="2">
	<advance width="300"/>
	<note>
		iacute.duo
	</note>
	<outline>
		<contour>
			<point x="256" y="590" type="line"/>
			<point x="35" y="507" type="line"/>
			<point x="41" y="490" type="line"/>
			<point x="267" y="556" type="line"/>
		</contour>
		<contour>
			<point x="168" y="428" type="line"/>
			<point x="135" y="428" type="line"/>
			<point x="135" y="31" type="line"/>
			<point x="40" y="31" type="line"/>
			<point x="40" y="-2" type="line"/>
			<point x="263" y="-2" type="line"/>
			<point x="263" y="31" type="line"/>
			<point x="168" y="31" type="line"/>
		</contour>
	</outline>
</glyph>
<glyph name="icircumflex.duo" format="2">
	<advance width="300"/>
	<note>
		icircumflex.duo
	</note>
	<outline>
		<contour>
			<point x="22" y="478" type="line"/>
			<point x="150" y="554" type="line"/>
			<point x="278" y="478" type="line"/>
			<point x="287" y="492" type="line"/>
			<point x="150" y="590" type="line"/>
			<point x="13" y="492" type="line"/>
		</contour>
		<contour>
			<point x="168" y="430" type="line"/>
			<point x="135" y="430" type="line"/>
			<point x="135" y="33" type="line"/>
			<point x="40" y="33" type="line"/>
			<point x="40" y="0" type="line"/>
			<point x="263" y="0" type="line"/>
			<point x="263" y="33" type="line"/>
			<point x="168" y="33" type="line"/>
		</contour>
	</outline>
</glyph>
<glyph name="igrave.duo" format="2">
	<advance width="300"/>
	<note>
		igrave.duo
	</note>
	<outline>
		<contour>
			<point x="266" y="491" type="line"/>
			<point x="272" y="508" type="line"/>
			<point x="51" y="591" type="line"/>
			<point x="40" y="557" type="line"/>
		</contour>
		<contour>
			<point x="168" y="430" type="line"/>
			<point x="135" y="430" type="line"/>
			<point x="135" y="33" type="line"/>
			<point x="40" y="33" type="line"/>
			<point x="40" y="0" type="line"/>
			<point x="263" y="0" type="line"/>
			<point x="263" y="33" type="line"/>
			<point x="168" y="33" type="line"/>
		</contour>
	</outline>
</glyph>
<glyph name="l.duo" format="2">
	<advance width="300"/>
	<note>
		l.duo
	</note>
	<outline>
		<contour>
			<point x="165" y="590" type="line"/>
			<point x="165" y="30" type="line"/>
			<point x="263" y="30" type="line"/>
			<point x="263" y="0" type="line"/>
			<point x="40" y="0" type="line"/>
			<point x="40" y="30" type="line"/>
			<point x="135" y="30" type="line"/>
			<point x="135" y="560" type="line"/>
			<point x="40" y="560" type="line"/>
			<point x="40" y="590" type="line"/>
		</contour>
	</outline>
</glyph>
<glyph name="m.duo" format="2">
	<advance width="900"/>
	<note>
		m.duo
	</note>
	<outline>
		<contour>
			<point x="31" y="370" type="curve"/>
			<point x="58" y="355" type="line"/>
			<point x="74" y="389"/>
			<point x="89" y="413"/>
			<point x="103" y="413" type="curve" smooth="yes"/>
			<point x="119" y="413"/>
			<point x="128" y="397"/>
			<point x="128" y="363" type="curve" smooth="yes"/>
			<point x="128" y="30" type="line"/>
			<point x="40" y="30" type="line"/>
			<point x="40" y="0" type="line"/>
			<point x="242" y="0" type="line"/>
			<point x="242" y="30" type="line"/>
			<point x="158" y="30" type="line"/>
			<point x="158" y="261" type="line"/>
			<point x="266" y="369"/>
			<point x="296" y="413"/>
			<point x="350" y="413" type="curve" smooth="yes"/>
			<point x="409" y="413"/>
			<point x="446" y="377"/>
			<point x="446" y="310" type="curve" smooth="yes"/>
			<point x="446" y="30" type="line"/>
			<point x="362" y="30" type="line"/>
			<point x="362" y="0" type="line"/>
			<point x="560" y="0" type="line"/>
			<point x="560" y="30" type="line"/>
			<point x="476" y="30" type="line"/>
			<point x="476" y="261" type="line"/>
			<point x="584" y="369"/>
			<point x="614" y="413"/>
			<point x="668" y="413" type="curve" smooth="yes"/>
			<point x="727" y="413"/>
			<point x="764" y="377"/>
			<point x="764" y="310" type="curve" smooth="yes"/>
			<point x="764" y="30" type="line"/>
			<point x="680" y="30" type="line"/>
			<point x="680" y="0" type="line"/>
			<point x="882" y="0" type="line"/>
			<point x="882" y="30" type="line"/>
			<point x="794" y="30" type="line"/>
			<point x="794" y="310" type="line" smooth="yes"/>
			<point x="794" y="394"/>
			<point x="746" y="443"/>
			<point x="668" y="443" type="curve" smooth="yes"/>
			<point x="601" y="443"/>
			<point x="559" y="386"/>
			<point x="476" y="303" type="curve"/>
			<point x="476" y="395"/>
			<point x="431" y="443"/>
			<point x="350" y="443" type="curve" smooth="yes"/>
			<point x="283" y="443"/>
			<point x="241" y="386"/>
			<point x="158" y="303" type="curve"/>
			<point x="158" y="363" type="line"/>
			<point x="157" y="425"/>
			<point x="132" y="443"/>
			<point x="103" y="443" type="curve" smooth="yes"/>
			<point x="72" y="443"/>
			<point x="51" y="412"/>
		</contour>
	</outline>
</glyph>
<glyph name="nine.dnom" format="2">
	<advance width="600"/>
	<note>
		nine.dnom
	</note>
	<outline>
		<contour>
			<point x="55" y="373" type="curve"/>
			<point x="59" y="363"/>
			<point x="66" y="358"/>
			<point x="76" y="358" type="curve" smooth="yes"/>
			<point x="89" y="358"/>
			<point x="102" y="366"/>
			<point x="102" y="383" type="curve" smooth="yes"/>
			<point x="102" y="400"/>
			<point x="88" y="411"/>
			<point x="69" y="411" type="curve" smooth="yes"/>
			<point x="50" y="411"/>
			<point x="35" y="395"/>
			<point x="35" y="374" type="curve" smooth="yes"/>
			<point x="35" y="343"/>
			<point x="66" y="317"/>
			<point x="111" y="317" type="curve" smooth="yes"/>
			<point x="180" y="317"/>
			<point x="235" y="381"/>
			<point x="235" y="470" type="curve" smooth="yes"/>
			<point x="235" y="560"/>
			<point x="193" y="603"/>
			<point x="124" y="603" type="curve" smooth="yes"/>
			<point x="69" y="603"/>
			<point x="25" y="561"/>
			<point x="25" y="513" type="curve" smooth="yes"/>
			<point x="25" y="457"/>
			<point x="65" y="427"/>
			<point x="122" y="427" type="curve" smooth="yes"/>
			<point x="160" y="427"/>
			<point x="190" y="450"/>
			<point x="213" y="472" type="curve"/>
			<point x="208" y="385"/>
			<point x="165" y="342"/>
			<point x="111" y="342" type="curve" smooth="yes"/>
			<point x="86" y="342"/>
			<point x="60" y="348"/>
		</contour>
		<contour>
			<point x="49" y="512" type="curve" smooth="yes"/>
			<point x="49" y="548"/>
			<point x="77" y="579"/>
			<point x="124" y="579" type="curve" smooth="yes"/>
			<point x="163" y="579"/>
			<point x="199" y="563"/>
			<point x="210" y="504" type="curve"/>
			<point x="187" y="478"/>
			<point x="161" y="451"/>
			<point x="122" y="451" type="curve" smooth="yes"/>
			<point x="75" y="451"/>
			<point x="49" y="476"/>
		</contour>
	</outline>
</glyph>
<glyph name="one.duo" format="2">
	<advance width="300"/>
	<note>
		one.duo
	</note>
	<outline>
		<contour>
			<point x="286" y="30" type="line"/>
			<point x="210" y="30" type="line"/>
			<point x="210" y="590" type="line"/>
			<point x="171" y="590" type="line"/>
			<point x="129" y="497"/>
			<point x="76" y="423"/>
			<point x="27" y="374" type="curve"/>
			<point x="48" y="355" type="line"/>
			<point x="96" y="404"/>
			<point x="142" y="463"/>
			<point x="180" y="534" type="curve"/>
			<point x="180" y="30" type="line"/>
			<point x="49" y="30" type="line"/>
			<point x="49" y="0" type="line"/>
			<point x="286" y="0" type="line"/>
		</contour>
	</outline>
</glyph>
<glyph name="one.osf.duo" format="2">
	<advance width="300"/>
	<note>
		one.osf.duo
	</note>
	<outline>
		<contour>
			<point x="25" y="355" type="curve"/>
			<point x="44" y="333" type="line"/>
			<point x="127" y="404"/>
			<point x="179" y="463"/>
			<point x="217" y="534" type="curve"/>
			<point x="217" y="0" type="line"/>
			<point x="247" y="0" type="line"/>
			<point x="247" y="590" type="line"/>
			<point x="208" y="590" type="line"/>
			<point x="166" y="497"/>
			<point x="109" y="426"/>
		</contour>
	</outline>
</glyph>
<glyph name="period.duo" format="2">
	<advance width="300"/>
	<note>
		period.duo
	</note>
	<outline>
		<contour>
			<point x="151" y="-13" type="curve" smooth="yes"/>
			<point x="187" y="-13"/>
			<point x="216" y="17"/>
			<point x="216" y="53" type="curve" smooth="yes"/>
			<point x="216" y="89"/>
			<point x="187" y="120"/>
			<point x="151" y="120" type="curve" smooth="yes"/>
			<point x="114" y="120"/>
			<point x="83" y="89"/>
			<point x="83" y="53" type="curve" smooth="yes"/>
			<point x="83" y="18"/>
			<point x="114" y="-13"/>
		</contour>
	</outline>
</glyph>
<glyph name="periodcentered.duo" format="2">
	<advance width="300"/>
	<note>
		periodcentered.duo
	</note>
	<outline>
		<contour>
			<point x="151" y="221" type="curve" smooth="yes"/>
			<point x="187" y="221"/>
			<point x="216" y="251"/>
			<point x="216" y="287" type="curve" smooth="yes"/>
			<point x="216" y="323"/>
			<point x="187" y="354"/>
			<point x="151" y="354" type="curve" smooth="yes"/>
			<point x="114" y="354"/>
			<point x="83" y="323"/>
			<point x="83" y="287" type="curve" smooth="yes"/>
			<point x="83" y="252"/>
			<point x="114" y="221"/>
		</contour>
	</outline>
</glyph>
<glyph name="quoteleft.duo" format="2">
	<advance width="300"/>
	<note>
		quoteleft.duo
	</note>
	<outline>
		<contour>
			<point x="177" y="447" type="curve" smooth="yes"/>
			<point x="144" y="447"/>
			<point x="117" y="419"/>
			<point x="117" y="391" type="curve" smooth="yes"/>
			<point x="117" y="372"/>
			<point x="123" y="355"/>
			<point x="134" y="346" type="curve"/>
			<point x="105" y="355"/>
			<point x="82" y="398"/>
			<point x="82" y="440" type="curve" smooth="yes"/>
			<point x="82" y="505"/>
			<point x="140" y="571"/>
			<point x="207" y="578" type="curve"/>
			<point x="203" y="603" type="line"/>
			<point x="131" y="596"/>
			<point x="57" y="525"/>
			<point x="57" y="440" type="curve" smooth="yes"/>
			<point x="57" y="365"/>
			<point x="104" y="310"/>
			<point x="165" y="310" type="curve" smooth="yes"/>
			<point x="205" y="310"/>
			<point x="243" y="338"/>
			<point x="243" y="379" type="curve" smooth="yes"/>
			<point x="243" y="418"/>
			<point x="214" y="447"/>
		</contour>
	</outline>
</glyph>
<glyph name="quoteright.duo" format="2">
	<advance width="300"/>
	<note>
		quoteright.duo
	</note>
	<outline>
		<contour>
			<point x="123" y="466" type="curve" smooth="yes"/>
			<point x="156" y="466"/>
			<point x="183" y="494"/>
			<point x="183" y="522" type="curve" smooth="yes"/>
			<point x="183" y="541"/>
			<point x="177" y="558"/>
			<point x="166" y="567" type="curve"/>
			<point x="195" y="558"/>
			<point x="218" y="515"/>
			<point x="218" y="473" type="curve" smooth="yes"/>
			<point x="218" y="408"/>
			<point x="160" y="342"/>
			<point x="93" y="335" type="curve"/>
			<point x="97" y="310" type="line"/>
			<point x="169" y="317"/>
			<point x="243" y="388"/>
			<point x="243" y="473" type="curve" smooth="yes"/>
			<point x="243" y="548"/>
			<point x="196" y="603"/>
			<point x="135" y="603" type="curve" smooth="yes"/>
			<point x="95" y="603"/>
			<point x="57" y="575"/>
			<point x="57" y="534" type="curve" smooth="yes"/>
			<point x="57" y="495"/>
			<point x="86" y="466"/>
		</contour>
	</outline>
</glyph>
<glyph name="quotesingle.duo" format="2">
	<advance width="300"/>
	<note>
		quotesingle.duo
	</note>
	<outline>
		<contour>
			<point x="66" y="466" type="curve" smooth="yes"/>
			<point x="99" y="466"/>
			<point x="126" y="494"/>
			<point x="126" y="522" type="curve" smooth="yes"/>
			<point x="126" y="541"/>
			<point x="120" y="558"/>
			<point x="109" y="567" type="curve"/>
			<point x="138" y="558"/>
			<point x="161" y="515"/>
			<point x="161" y="473" type="curve" smooth="yes"/>
			<point x="161" y="408"/>
			<point x="103" y="342"/>
			<point x="36" y="335" type="curve"/>
			<point x="40" y="310" type="line"/>
			<point x="112" y="317"/>
			<point x="186" y="388"/>
			<point x="186" y="473" type="curve" smooth="yes"/>
			<point x="186" y="548"/>
			<point x="139" y="603"/>
			<point x="78" y="603" type="curve" smooth="yes"/>
			<point x="38" y="603"/>
			<point x="0" y="575"/>
			<point x="0" y="534" type="curve" smooth="yes"/>
			<point x="0" y="495"/>
			<point x="29" y="466"/>
		</contour>
	</outline>
</glyph>
<glyph name="semicolon.duo" format="2">
	<advance width="300"/>
	<note>
		semicolon.duo
	</note>
	<outline>
		<contour>
			<point x="120" y="310" type="curve" smooth="yes"/>
			<point x="156" y="310"/>
			<point x="185" y="340"/>
			<point x="185" y="376" type="curve" smooth="yes"/>
			<point x="185" y="412"/>
			<point x="156" y="443"/>
			<point x="120" y="443" type="curve" smooth="yes"/>
			<point x="83" y="443"/>
			<point x="52" y="412"/>
			<point x="52" y="376" type="curve" smooth="yes"/>
			<point x="52" y="341"/>
			<point x="83" y="310"/>
		</contour>
		<contour>
			<point x="117" y="-12" type="curve" smooth="yes"/>
			<point x="150" y="-12"/>
			<point x="177" y="16"/>
			<point x="177" y="44" type="curve" smooth="yes"/>
			<point x="177" y="63"/>
			<point x="171" y="80"/>
			<point x="160" y="89" type="curve"/>
			<point x="189" y="80"/>
			<point x="212" y="37"/>
			<point x="212" y="-5" type="curve" smooth="yes"/>
			<point x="212" y="-70"/>
			<point x="154" y="-136"/>
			<point x="87" y="-143" type="curve"/>
			<point x="91" y="-168" type="line"/>
			<point x="163" y="-161"/>
			<point x="237" y="-90"/>
			<point x="237" y="-5" type="curve" smooth="yes"/>
			<point x="237" y="70"/>
			<point x="190" y="125"/>
			<point x="129" y="125" type="curve" smooth="yes"/>
			<point x="89" y="125"/>
			<point x="51" y="97"/>
			<point x="51" y="56" type="curve" smooth="yes"/>
			<point x="51" y="17"/>
			<point x="80" y="-12"/>
		</contour>
	</outline>
</glyph>
<glyph name="sfd" format="2">
	<advance width="600"/>
	<note>
		sfd
	</note>
	<outline>
		<contour>
			<point x="142" y="261" type="curve"/>
			<point x="138" y="247"/>
			<point x="137" y="231"/>
			<point x="137" y="216" type="curve" smooth="yes"/>
			<point x="137" y="88"/>
			<point x="239" y="-13"/>
			<point x="366" y="-13" type="curve" smooth="yes"/>
			<point x="492" y="-13"/>
			<point x="594" y="88"/>
			<point x="594" y="216" type="curve" smooth="yes"/>
			<point x="594" y="342"/>
			<point x="492" y="443"/>
			<point x="366" y="443" type="curve" smooth="yes"/>
			<point x="312" y="443"/>
			<point x="263" y="425"/>
			<point x="224" y="394" type="curve"/>
			<point x="243" y="371" type="line"/>
			<point x="277" y="397"/>
			<point x="320" y="413"/>
			<point x="366" y="413" type="curve" smooth="yes"/>
			<point x="475" y="413"/>
			<point x="564" y="325"/>
			<point x="564" y="216" type="curve" smooth="yes"/>
			<point x="564" y="105"/>
			<point x="475" y="17"/>
			<point x="366" y="17" type="curve" smooth="yes"/>
			<point x="256" y="17"/>
			<point x="167" y="105"/>
			<point x="167" y="216" type="curve" smooth="yes"/>
			<point x="167" y="231"/>
			<point x="168" y="246"/>
			<point x="172" y="261" type="curve"/>
			<point x="192" y="208"/>
			<point x="256" y="133"/>
			<point x="322" y="97" type="curve"/>
			<point x="339" y="119" type="line"/>
			<point x="263" y="161"/>
			<point x="207" y="237"/>
			<point x="167" y="320" type="curve"/>
			<point x="147" y="320" type="line"/>
			<point x="107" y="237"/>
			<point x="51" y="161"/>
			<point x="-25" y="119" type="curve"/>
			<point x="-8" y="97" type="line"/>
			<point x="58" y="133"/>
			<point x="119" y="208"/>
		</contour>
	</outline>
</glyph>
<glyph name="six.dnom" format="2">
	<advance width="600"/>
	<note>
		six.dnom
	</note>
	<outline>
		<contour>
			<point x="205" y="547" type="curve"/>
			<point x="201" y="557"/>
			<point x="194" y="562"/>
			<point x="184" y="562" type="curve" smooth="yes"/>
			<point x="171" y="562"/>
			<point x="158" y="554"/>
			<point x="158" y="537" type="curve" smooth="yes"/>
			<point x="158" y="520"/>
			<point x="172" y="509"/>
			<point x="191" y="509" type="curve" smooth="yes"/>
			<point x="210" y="509"/>
			<point x="225" y="525"/>
			<point x="225" y="546" type="curve" smooth="yes"/>
			<point x="225" y="577"/>
			<point x="194" y="603"/>
			<point x="149" y="603" type="curve" smooth="yes"/>
			<point x="80" y="603"/>
			<point x="25" y="539"/>
			<point x="25" y="450" type="curve" smooth="yes"/>
			<point x="25" y="360"/>
			<point x="67" y="317"/>
			<point x="136" y="317" type="curve" smooth="yes"/>
			<point x="191" y="317"/>
			<point x="235" y="359"/>
			<point x="235" y="407" type="curve" smooth="yes"/>
			<point x="235" y="463"/>
			<point x="195" y="493"/>
			<point x="138" y="493" type="curve" smooth="yes"/>
			<point x="100" y="493"/>
			<point x="70" y="470"/>
			<point x="47" y="448" type="curve"/>
			<point x="52" y="535"/>
			<point x="95" y="578"/>
			<point x="149" y="578" type="curve" smooth="yes"/>
			<point x="174" y="578"/>
			<point x="200" y="572"/>
		</contour>
		<contour>
			<point x="211" y="408" type="curve" smooth="yes"/>
			<point x="211" y="372"/>
			<point x="183" y="341"/>
			<point x="136" y="341" type="curve" smooth="yes"/>
			<point x="97" y="341"/>
			<point x="61" y="357"/>
			<point x="50" y="416" type="curve"/>
			<point x="73" y="442"/>
			<point x="99" y="469"/>
			<point x="138" y="469" type="curve" smooth="yes"/>
			<point x="185" y="469"/>
			<point x="211" y="444"/>
		</contour>
	</outline>
</glyph>
<glyph name="six.numr" format="2">
	<advance width="600"/>
	<note>
		six.numr
	</note>
	<outline>
		<contour>
			<point x="205" y="217" type="curve"/>
			<point x="201" y="227"/>
			<point x="194" y="232"/>
			<point x="184" y="232" type="curve" smooth="yes"/>
			<point x="171" y="232"/>
			<point x="158" y="224"/>
			<point x="158" y="207" type="curve" smooth="yes"/>
			<point x="158" y="190"/>
			<point x="172" y="179"/>
			<point x="191" y="179" type="curve" smooth="yes"/>
			<point x="210" y="179"/>
			<point x="225" y="195"/>
			<point x="225" y="216" type="curve" smooth="yes"/>
			<point x="225" y="247"/>
			<point x="194" y="273"/>
			<point x="149" y="273" type="curve" smooth="yes"/>
			<point x="80" y="273"/>
			<point x="25" y="209"/>
			<point x="25" y="120" type="curve" smooth="yes"/>
			<point x="25" y="30"/>
			<point x="67" y="-13"/>
			<point x="136" y="-13" type="curve" smooth="yes"/>
			<point x="191" y="-13"/>
			<point x="235" y="29"/>
			<point x="235" y="77" type="curve" smooth="yes"/>
			<point x="235" y="133"/>
			<point x="195" y="163"/>
			<point x="138" y="163" type="curve" smooth="yes"/>
			<point x="100" y="163"/>
			<point x="70" y="140"/>
			<point x="47" y="118" type="curve"/>
			<point x="52" y="205"/>
			<point x="95" y="248"/>
			<point x="149" y="248" type="curve" smooth="yes"/>
			<point x="174" y="248"/>
			<point x="200" y="242"/>
		</contour>
		<contour>
			<point x="211" y="78" type="curve" smooth="yes"/>
			<point x="211" y="42"/>
			<point x="183" y="11"/>
			<point x="136" y="11" type="curve" smooth="yes"/>
			<point x="97" y="11"/>
			<point x="61" y="27"/>
			<point x="50" y="86" type="curve"/>
			<point x="73" y="112"/>
			<point x="99" y="139"/>
			<point x="138" y="139" type="curve" smooth="yes"/>
			<point x="185" y="139"/>
			<point x="211" y="114"/>
		</contour>
	</outline>
</glyph>
<glyph name="six.osf" format="2">
	<advance width="600"/>
	<note>
		six.osf
	</note>
	<outline>
		<contour>
			<point x="515" y="125" type="curve" smooth="yes"/>
			<point x="515" y="237"/>
			<point x="424" y="312"/>
			<point x="314" y="312" type="curve" smooth="yes"/>
			<point x="237" y="312"/>
			<point x="162" y="272"/>
			<point x="118" y="214" type="curve"/>
			<point x="127" y="411"/>
			<point x="362" y="573"/>
			<point x="521" y="573" type="curve"/>
			<point x="521" y="603" type="line"/>
			<point x="344" y="603"/>
			<point x="89" y="425"/>
			<point x="89" y="203" type="curve" smooth="yes"/>
			<point x="89" y="73"/>
			<point x="161" y="-63"/>
			<point x="314" y="-63" type="curve" smooth="yes"/>
			<point x="424" y="-63"/>
			<point x="515" y="13"/>
		</contour>
		<contour>
			<point x="485" y="125" type="curve" smooth="yes"/>
			<point x="485" y="31"/>
			<point x="407" y="-33"/>
			<point x="314" y="-33" type="curve" smooth="yes"/>
			<point x="187" y="-33"/>
			<point x="121" y="89"/>
			<point x="120" y="174" type="curve"/>
			<point x="167" y="239"/>
			<point x="243" y="282"/>
			<point x="314" y="282" type="curve" smooth="yes"/>
			<point x="410" y="282"/>
			<point x="485" y="216"/>
		</contour>
	</outline>
</glyph>
<glyph name="three.dnom" format="2">
	<advance width="600"/>
	<note>
		three.dnom
	</note>
	<outline>
		<contour>
			<point x="46" y="389" type="curve"/>
			<point x="46" y="362"/>
			<point x="86" y="338"/>
			<point x="135" y="338" type="curve" smooth="yes"/>
			<point x="178" y="338"/>
			<point x="233" y="364"/>
			<point x="233" y="415" type="curve" smooth="yes"/>
			<point x="233" y="461"/>
			<point x="183" y="484"/>
			<point x="135" y="478" type="curve"/>
			<point x="119" y="465" type="line"/>
			<point x="104" y="484" type="line"/>
			<point x="204" y="566" type="line"/>
			<point x="63" y="566" type="line"/>
			<point x="51" y="514" type="line"/>
			<point x="27" y="517" type="line"/>
			<point x="43" y="590" type="line"/>
			<point x="249" y="590" type="line"/>
			<point x="249" y="572" type="line"/>
			<point x="162" y="501" type="line"/>
			<point x="216" y="501"/>
			<point x="257" y="464"/>
			<point x="257" y="415" type="curve" smooth="yes"/>
			<point x="257" y="348"/>
			<point x="190" y="314"/>
			<point x="135" y="314" type="curve" smooth="yes"/>
			<point x="82" y="314"/>
			<point x="25" y="341"/>
			<point x="25" y="390" type="curve" smooth="yes"/>
			<point x="25" y="411"/>
			<point x="38" y="427"/>
			<point x="60" y="427" type="curve" smooth="yes"/>
			<point x="79" y="427"/>
			<point x="91" y="416"/>
			<point x="91" y="399" type="curve" smooth="yes"/>
			<point x="91" y="382"/>
			<point x="80" y="374"/>
			<point x="67" y="374" type="curve" smooth="yes"/>
			<point x="57" y="374"/>
			<point x="50" y="379"/>
		</contour>
	</outline>
</glyph>
<glyph name="three.numr" format="2">
	<advance width="600"/>
	<note>
		three.numr
	</note>
	<outline>
		<contour>
			<point x="46" y="62" type="curve"/>
			<point x="46" y="35"/>
			<point x="86" y="11"/>
			<point x="135" y="11" type="curve" smooth="yes"/>
			<point x="178" y="11"/>
			<point x="233" y="37"/>
			<point x="233" y="88" type="curve" smooth="yes"/>
			<point x="233" y="134"/>
			<point x="183" y="157"/>
			<point x="135" y="151" type="curve"/>
			<point x="119" y="138" type="line"/>
			<point x="104" y="157" type="line"/>
			<point x="204" y="239" type="line"/>
			<point x="63" y="239" type="line"/>
			<point x="51" y="187" type="line"/>
			<point x="27" y="190" type="line"/>
			<point x="43" y="263" type="line"/>
			<point x="249" y="263" type="line"/>
			<point x="249" y="245" type="line"/>
			<point x="162" y="174" type="line"/>
			<point x="216" y="174"/>
			<point x="257" y="137"/>
			<point x="257" y="88" type="curve" smooth="yes"/>
			<point x="257" y="21"/>
			<point x="190" y="-13"/>
			<point x="135" y="-13" type="curve" smooth="yes"/>
			<point x="82" y="-13"/>
			<point x="25" y="14"/>
			<point x="25" y="63" type="curve" smooth="yes"/>
			<point x="25" y="84"/>
			<point x="38" y="100"/>
			<point x="60" y="100" type="curve" smooth="yes"/>
			<point x="79" y="100"/>
			<point x="91" y="89"/>
			<point x="91" y="72" type="curve" smooth="yes"/>
			<point x="91" y="55"/>
			<point x="80" y="47"/>
			<point x="67" y="47" type="curve" smooth="yes"/>
			<point x="57" y="47"/>
			<point x="50" y="52"/>
		</contour>
	</outline>
</glyph>
<glyph name="three.osf" format="2">
	<advance width="600"/>
	<note>
		three.osf
	</note>
	<outline>
		<contour>
			<point x="89" y="-143" type="curve"/>
			<point x="89" y="-173" type="line"/>
			<point x="288" y="-173"/>
			<point x="526" y="-75"/>
			<point x="526" y="89" type="curve" smooth="yes"/>
			<point x="526" y="213"/>
			<point x="415" y="290"/>
			<point x="326" y="273" type="curve"/>
			<point x="495" y="458" type="line"/>
			<point x="495" y="494" type="line"/>
			<point x="126" y="494" type="line"/>
			<point x="85" y="318" type="line"/>
			<point x="114" y="313" type="line"/>
			<point x="151" y="464" type="line"/>
			<point x="460" y="464" type="line"/>
			<point x="249" y="234" type="line"/>
			<point x="273" y="214" type="line"/>
			<point x="301" y="245" type="line"/>
			<point x="392" y="271"/>
			<point x="496" y="201"/>
			<point x="496" y="89" type="curve" smooth="yes"/>
			<point x="496" y="-51"/>
			<point x="270" y="-143"/>
		</contour>
	</outline>
</glyph>
<glyph name="tt.duo" format="2">
	<advance width="900"/>
	<note>
		tt.duo
	</note>
	<outline>
		<contour>
			<point x="896" y="108" type="line"/>
			<point x="879" y="133" type="line"/>
			<point x="820" y="96" type="line" smooth="yes"/>
			<point x="744" y="48"/>
			<point x="693" y="17"/>
			<point x="642" y="17" type="curve" smooth="yes"/>
			<point x="579" y="17"/>
			<point x="546" y="40"/>
			<point x="546" y="110" type="curve" smooth="yes"/>
			<point x="546" y="400" type="line"/>
			<point x="842" y="400" type="line"/>
			<point x="842" y="430" type="line"/>
			<point x="546" y="430" type="line"/>
			<point x="546" y="590" type="line"/>
			<point x="516" y="590" type="line"/>
			<point x="516" y="430" type="line"/>
			<point x="430" y="430" type="line"/>
			<point x="430" y="400" type="line"/>
			<point x="516" y="400" type="line"/>
			<point x="516" y="131" type="line"/>
			<point x="460" y="96" type="line" smooth="yes"/>
			<point x="384" y="48"/>
			<point x="333" y="17"/>
			<point x="282" y="17" type="curve" smooth="yes"/>
			<point x="219" y="17"/>
			<point x="186" y="40"/>
			<point x="186" y="110" type="curve" smooth="yes"/>
			<point x="186" y="400" type="line"/>
			<point x="382" y="400" type="line"/>
			<point x="382" y="430" type="line"/>
			<point x="186" y="430" type="line"/>
			<point x="186" y="590" type="line"/>
			<point x="156" y="590" type="line"/>
			<point x="156" y="430" type="line"/>
			<point x="20" y="430" type="line"/>
			<point x="20" y="400" type="line"/>
			<point x="156" y="400" type="line"/>
			<point x="156" y="97" type="line" smooth="yes"/>
			<point x="156" y="23"/>
			<point x="205" y="-13"/>
			<point x="282" y="-13" type="curve" smooth="yes"/>
			<point x="338" y="-13"/>
			<point x="408" y="30"/>
			<point x="480" y="74" type="curve" smooth="yes"/>
			<point x="516" y="96" type="line"/>
			<point x="517" y="23"/>
			<point x="565" y="-13"/>
			<point x="642" y="-13" type="curve" smooth="yes"/>
			<point x="698" y="-13"/>
			<point x="768" y="30"/>
			<point x="840" y="74" type="curve" smooth="yes"/>
		</contour>
	</outline>
</glyph>
